<svg xmlns="http://www.w3.org/2000/svg" viewBox="0 0 525.02 358.22"><defs><style>.cls-1{fill:#bedce0;}.cls-10,.cls-13,.cls-15,.cls-17,.cls-2,.cls-26,.cls-27,.cls-28,.cls-29,.cls-30,.cls-31,.cls-32,.cls-33,.cls-34,.cls-35,.cls-36{fill:none;}.cls-2,.cls-30,.cls-34{stroke:#bedce0;}.cls-10,.cls-15,.cls-17,.cls-2,.cls-26,.cls-27,.cls-28,.cls-29,.cls-30,.cls-32,.cls-34,.cls-35,.cls-36{stroke-miterlimit:10;}.cls-2{stroke-width:0.83px;}.cls-3{fill:#4a75c9;}.cls-4{fill:#1b2536;}.cls-5{fill:#d68d8d;}.cls-6{fill:#fff;}.cls-7{fill:#ebbc3b;}.cls-8{fill:#365896;}.cls-9{fill:#d9956a;}.cls-10{stroke:#422424;stroke-width:0.39px;}.cls-11{fill:#422424;}.cls-12{fill:#943232;}.cls-13{stroke:#365896;stroke-width:0.75px;}.cls-13,.cls-31,.cls-33{stroke-linecap:round;stroke-linejoin:round;}.cls-14{fill:#d65353;}.cls-15,.cls-33{stroke:#1b2536;}.cls-15,.cls-17{stroke-width:0.43px;}.cls-16{fill:#edd1c2;}.cls-17,.cls-27,.cls-31,.cls-36{stroke:#fff;}.cls-18{fill:#d4780e;}.cls-19{fill:#4a6cab;}.cls-20{fill:#6e9296;}.cls-21{fill:#496163;}.cls-22{fill:#6b89bf;}.cls-23{fill:#28364f;}.cls-24{fill:#6e4c2e;}.cls-25{fill:#de6767;}.cls-26{stroke:#000;}.cls-26,.cls-27{stroke-width:0.44px;}.cls-28{stroke:#943232;}.cls-29{stroke:#28364f;stroke-width:1.25px;}.cls-30{stroke-width:1.24px;}.cls-31{stroke-width:2px;}.cls-32{stroke:#d4780e;stroke-width:3px;}.cls-33,.cls-35,.cls-36{stroke-width:0.75px;}.cls-35{stroke:#4a75c9;}</style></defs><g id="OBJECTS"><path class="cls-1" d="M284.25,348.32V357h31.53a16.4,16.4,0,0,1,32.8,0H380.1v-8.68H364.89a33.47,33.47,0,0,0-3.4-8.2l10.76-10.76L359.88,317l-10.76,10.76a33.53,33.53,0,0,0-8.19-3.39V309.14h-17.5v15.22a33.77,33.77,0,0,0-8.2,3.39L304.48,317l-12.37,12.37,10.76,10.76a33.47,33.47,0,0,0-3.4,8.2Z"/><path class="cls-2" d="M16.71,357s3.82-235.14,49.8-236.91,17,193.16,44.06,193.16S139.05,200,168.44,200s16.25,121.83,39.19,121.83,13.14-141.23,38.53-141.23c29.35,0,18.35,121,36.28,121,28,0,9.32-190,60.94-190,55.22,0,34.18,221.43,58.94,221.43s16.35-166.69,59.38-166.69c35.85,0,40.15,190.69,40.15,190.69"/><path class="cls-3" d="M40,172.71a4.8,4.8,0,1,1-4.8-4.79A4.8,4.8,0,0,1,40,172.71Z"/><path class="cls-3" d="M195.16,260.42a4.8,4.8,0,1,1-4.8-4.8A4.8,4.8,0,0,1,195.16,260.42Z"/><path class="cls-3" d="M289.05,301.77a4.8,4.8,0,1,1-4.8-4.8A4.79,4.79,0,0,1,289.05,301.77Z"/><path class="cls-3" d="M330.18,122a4.8,4.8,0,1,1-4.8-4.8A4.8,4.8,0,0,1,330.18,122Z"/><path class="cls-3" d="M434.27,223a4.8,4.8,0,1,1-4.8-4.8A4.8,4.8,0,0,1,434.27,223Z"/><circle class="cls-3" cx="490.97" cy="232.85" r="4.8"/><rect class="cls-4" x="406.5" y="109.4" width="72.86" height="52.9" rx="5.46"/><path class="cls-5" d="M453.2,120.63h14.66a1.07,1.07,0,0,0,1.07-1.07h0a1.07,1.07,0,0,0-1.07-1.07H453.2a1.07,1.07,0,0,0-1.07,1.07h0A1.07,1.07,0,0,0,453.2,120.63Z"/><path class="cls-6" d="M441.75,124.7h26.11a1.07,1.07,0,0,0,1.07-1.07h0a1.07,1.07,0,0,0-1.07-1.07H441.75a1.07,1.07,0,0,0-1.07,1.07h0A1.07,1.07,0,0,0,441.75,124.7Z"/><path class="cls-1" d="M424.93,124.7h12.52a1.07,1.07,0,0,0,1.07-1.07h0a1.07,1.07,0,0,0-1.07-1.07H424.93a1.07,1.07,0,0,0-1.07,1.07h0A1.07,1.07,0,0,0,424.93,124.7Z"/><rect class="cls-7" x="422.06" y="126.63" width="46.87" height="2.14" rx="1.07" transform="translate(890.99 255.41) rotate(180)"/><path class="cls-3" d="M464.57,132.85h3.29a1.07,1.07,0,0,0,1.07-1.07h0a1.07,1.07,0,0,0-1.07-1.08h-3.29a1.07,1.07,0,0,0-1.07,1.08h0A1.06,1.06,0,0,0,464.57,132.85Z"/><path class="cls-1" d="M437.8,132.85h22.44a1.07,1.07,0,0,0,1.07-1.07h0a1.07,1.07,0,0,0-1.07-1.08H437.8a1.08,1.08,0,0,0-1.08,1.08h0A1.07,1.07,0,0,0,437.8,132.85Z"/><path class="cls-6" d="M453.2,136.92h14.66a1.07,1.07,0,0,0,1.07-1.07h0a1.07,1.07,0,0,0-1.07-1.07H453.2a1.07,1.07,0,0,0-1.07,1.07h0A1.07,1.07,0,0,0,453.2,136.92Z"/><path class="cls-7" d="M431.72,141h36.14a1.07,1.07,0,0,0,1.07-1.07h0a1.07,1.07,0,0,0-1.07-1.07H431.72a1.07,1.07,0,0,0-1.07,1.07h0A1.07,1.07,0,0,0,431.72,141Z"/><path class="cls-6" d="M422.59,145.07h45.27a1.07,1.07,0,0,0,1.07-1.08h0a1.07,1.07,0,0,0-1.07-1.07H422.59a1.07,1.07,0,0,0-1.07,1.07h0A1.07,1.07,0,0,0,422.59,145.07Z"/><path class="cls-3" d="M443.89,149.14h24a1.07,1.07,0,0,0,1.07-1.07h0a1.07,1.07,0,0,0-1.07-1.08h-24a1.07,1.07,0,0,0-1.07,1.08h0A1.07,1.07,0,0,0,443.89,149.14Z"/><path class="cls-1" d="M422.59,149.14H438a1.07,1.07,0,0,0,1.08-1.07h0A1.08,1.08,0,0,0,438,147H422.59a1.07,1.07,0,0,0-1.07,1.08h0A1.07,1.07,0,0,0,422.59,149.14Z"/><path class="cls-5" d="M453.2,153.21h14.66a1.07,1.07,0,0,0,1.07-1.07h0a1.07,1.07,0,0,0-1.07-1.07H453.2a1.07,1.07,0,0,0-1.07,1.07h0A1.07,1.07,0,0,0,453.2,153.21Z"/><path class="cls-8" d="M143.21,114.94a6,6,0,0,0,3.91-7.66c-1-3-5.84-3.67-14.91-.24s-15.59,3.06-16.16,6,1.85,4.4,6.29,3.83l3.93,9.19Z"/><polygon class="cls-4" points="149.5 208.61 176.1 344.11 157.96 344.11 127.01 230.92 89.36 342.15 72.33 342.15 101.87 208.61 149.5 208.61"/><path class="cls-9" d="M131.81,114.21l11.64-1.89a40.38,40.38,0,0,1,.77,7.37,9.21,9.21,0,0,1,2,6.29c-.13,4-2.3,7.58-6.29,8.34l.08,7.34H125.8l2.06-18.14S132.61,122.35,131.81,114.21Z"/><path class="cls-9" d="M130.42,126.78c-.89,2.07-3.54,2.91-5.91,1.89s-3.57-3.53-2.68-5.59,3.54-2.91,5.91-1.89S131.31,124.72,130.42,126.78Z"/><path class="cls-10" d="M123.35,123.6s3.7-2.18,5.84,2.46"/><line class="cls-10" x1="125.2" y1="125.82" x2="125.8" y2="123.12"/><path class="cls-10" d="M139.06,134.36a9.41,9.41,0,0,1-7.05-2.3"/><path class="cls-10" d="M138.42,118.08a6.94,6.94,0,0,0,1.36,4,.54.54,0,0,1-.15.82l-1.21.63"/><path class="cls-11" d="M136.28,124.93h5.93s-1.9,5.12-3.31,5.16S136.28,124.93,136.28,124.93Z"/><path class="cls-12" d="M138.63,126.76a6.5,6.5,0,0,0-1.75.23c.48,1.45,1.22,3.12,2,3.1s1.62-1.45,2.28-2.8A6.17,6.17,0,0,0,138.63,126.76Z"/><path class="cls-4" d="M134.8,117.75c-.55.08-.84,1.09-.65,2.27a4.42,4.42,0,0,0,.28,1l.81-.54s-.2.62-.41,1.21a.81.81,0,0,0,.67.35c.55-.08.84-1.09.64-2.26S135.35,117.68,134.8,117.75Z"/><path class="cls-4" d="M141.07,116.91c-.55.07-.84,1.08-.65,2.26a4,4,0,0,0,.29,1l.8-.55s-.2.63-.41,1.21a.79.79,0,0,0,.67.35c.55-.07.84-1.09.65-2.26S141.62,116.83,141.07,116.91Z"/><path class="cls-13" d="M132.39,116.43a6,6,0,0,1,3.63,0"/><path class="cls-13" d="M139.5,115.85a4.81,4.81,0,0,1,3.25-.61"/><path class="cls-14" d="M126.4,138.71h13.73a2.17,2.17,0,0,1,2.11,1.67l.51,2.12L161.11,149,177,175.47l6.94-8.23L195,172l-6.75,17.27a12.62,12.62,0,0,1-18.9,5.81l-14.86-10.22-2.85,17.78s10.15,8.67-1.21,8.67h-48.2a2,2,0,0,1-2-2.47l12.81-62.52,10.72-4.13.52-1.88A2.17,2.17,0,0,1,126.4,138.71Z"/><line class="cls-15" x1="176.98" y1="175.47" x2="169.99" y2="184.43"/><line class="cls-15" x1="154.53" y1="184.85" x2="156.67" y2="170.65"/><polygon class="cls-16" points="182.82 177.73 137.73 177.73 145.27 141.66 190.36 141.66 182.82 177.73"/><path class="cls-17" d="M182.94,149H149.62a1.05,1.05,0,0,1-1.05-1.33h0a1.74,1.74,0,0,1,1.61-1.34H183.5a1.06,1.06,0,0,1,1.06,1.34h0A1.75,1.75,0,0,1,182.94,149Z"/><path class="cls-17" d="M181.67,155.07H148.35a1.05,1.05,0,0,1-1-1.34h0a1.73,1.73,0,0,1,1.61-1.34h33.32a1.06,1.06,0,0,1,1.06,1.34h0A1.74,1.74,0,0,1,181.67,155.07Z"/><path class="cls-17" d="M171.74,161.15H147.08a1,1,0,0,1-1.05-1.33h0a1.72,1.72,0,0,1,1.61-1.34H172.3a1,1,0,0,1,1,1.34h0A1.71,1.71,0,0,1,171.74,161.15Z"/><path class="cls-17" d="M179.13,167.24H145.81a1,1,0,0,1-1.05-1.34h0a1.72,1.72,0,0,1,1.61-1.34h33.32a1,1,0,0,1,1.05,1.34h0A1.72,1.72,0,0,1,179.13,167.24Z"/><path class="cls-17" d="M164.85,173.32H144.54a1.05,1.05,0,0,1-1.06-1.33h0a1.74,1.74,0,0,1,1.62-1.34h20.31a1.06,1.06,0,0,1,1.05,1.34h0A1.72,1.72,0,0,1,164.85,173.32Z"/><path class="cls-4" d="M103.82,191.42s20-9.11,32.7-12.49c-5,9.13-19.63,20.46-28.87,27a3.85,3.85,0,0,1-6-3.92Z"/><path class="cls-14" d="M113.07,146.31c-5.24,1.59-9.67,4.9-16.52,12.71s-21.53,22.3-14,34.34c8.79,14.1,41.59-4.76,54-14.43l-6.44-12.17-20.88,6.13,7.9-11.74Z"/><path class="cls-15" d="M97,170.65s3.45-.71,9.91,1.34"/><path class="cls-9" d="M130.08,166.76l5.15-1.85L140,154.82a3.78,3.78,0,0,1,2.54-2.07l6.61-1.62a2.07,2.07,0,0,1,2.54,1.76l.54,4.51a1.66,1.66,0,0,1-1,1.74l-5.21,2s4.51.74,6.4,1c.27,0,.27,1,0,1.09a45.67,45.67,0,0,1-6.4.12s-3,5.86-7.2,6l-5.25,4Z"/><line class="cls-10" x1="142.39" y1="156.09" x2="151.71" y2="153.56"/><line class="cls-10" x1="143.08" y1="158.48" x2="152.09" y2="156.03"/><path class="cls-9" d="M192.6,171v-7.31l1.21-6.07a3.32,3.32,0,0,0-1.39-3.38L187,150.52a1.13,1.13,0,0,0-1.73.65l-2.12,8.32a1.1,1.1,0,0,0,.49,1.21l2.45,1.5-1.14,5.47Z"/><line class="cls-10" x1="186.07" y1="162.2" x2="188.75" y2="163.82"/><line class="cls-10" x1="183.6" y1="157.67" x2="189.56" y2="161.15"/><line class="cls-10" x1="184.18" y1="155.07" x2="190.15" y2="158.56"/><line class="cls-10" x1="184.94" y1="152.59" x2="190.91" y2="156.08"/><line class="cls-15" x1="146" y1="188.33" x2="129.06" y2="199.01"/><polygon class="cls-4" points="86.39 340.21 87.89 346.5 104.77 353.91 105.57 357.6 68.98 357.6 75.27 340.21 86.39 340.21"/><path class="cls-4" d="M122.34,116.87a23,23,0,0,0,6-1.68l-4.54,5.12Z"/><polyline class="cls-15" points="93.16 177.75 130.07 166.76 136.52 178.93"/><line class="cls-15" x1="109.2" y1="172.89" x2="118.51" y2="159.41"/><path class="cls-18" d="M508.3,302.65V281.8H490.17a40.2,40.2,0,0,0-4.05-9.77l12.82-12.82L484.2,244.47l-12.82,12.82a40.2,40.2,0,0,0-9.77-4.05V235.11H440.76v18.13a40.2,40.2,0,0,0-9.77,4.05l-12.82-12.82-14.74,14.74L416.25,272a40.2,40.2,0,0,0-4.05,9.77H394.07v20.85H412.2a40.2,40.2,0,0,0,4.05,9.77l-12.82,12.82L418.17,340,431,327.16a40.2,40.2,0,0,0,9.77,4v18.13h20.85V331.21a40.2,40.2,0,0,0,9.77-4L484.2,340l14.74-14.74-12.82-12.82a40.2,40.2,0,0,0,4.05-9.77Zm-37.57-10.43a19.55,19.55,0,1,1-19.55-19.54A19.57,19.57,0,0,1,470.73,292.22Z"/><path class="cls-4" d="M396.06,130.85l-2.42,9.52s-5.38-6-5-10.45Z"/><path class="cls-5" d="M345.46,333.89l-1.33,8.54-14,6.51a5.14,5.14,0,0,0-2.67,2.88l-2.1,5.62h32.93l-1.8-14.25,1-9.3Z"/><path class="cls-4" d="M349,342.59h0a3.38,3.38,0,0,0-3.38-3.38h-.94l-.5,3.22-14,6.51a5.14,5.14,0,0,0-2.67,2.88l-2.1,5.62h32.93l-1.8-14.25.07-.6Z"/><polygon class="cls-19" points="325.38 357.44 358.31 357.44 357.9 354.19 326.59 354.19 325.38 357.44"/><path class="cls-5" d="M420.12,333.89l.6,8.55-14.05,6.36a5.19,5.19,0,0,0-2.7,2.86l-2.15,5.94h32.93l-1.65-14.27-1-9.32Z"/><path class="cls-4" d="M433.1,343.33l-.09-.86h-8.38l-.06-.48a3.39,3.39,0,0,0-3.36-2.91h-.73l.24,3.36-14.05,6.36a5.19,5.19,0,0,0-2.7,2.86l-2.15,5.94h32.93Z"/><polygon class="cls-19" points="401.82 357.6 434.75 357.6 434.37 354.34 403.06 354.01 401.82 357.6"/><path class="cls-4" d="M352,252.07H330.06l2.81-10.66h16.3Zm-18.57-2.58h15.22l-1.45-5.5H334.86Z"/><path class="cls-20" d="M316.36,255.22H365a0,0,0,0,1,0,0v22.15a4.25,4.25,0,0,1-4.25,4.25H320.61a4.25,4.25,0,0,1-4.25-4.25V255.22A0,0,0,0,1,316.36,255.22Z"/><path class="cls-21" d="M320,248.24H361.4a5.19,5.19,0,0,1,5.19,5.19v5a2.38,2.38,0,0,1-2.38,2.38H317.14a2.38,2.38,0,0,1-2.38-2.38v-5A5.19,5.19,0,0,1,320,248.24Z"/><rect class="cls-6" x="322.69" y="255.22" width="4.1" height="5.6"/><rect class="cls-6" x="354.56" y="255.22" width="4.1" height="5.6"/><rect class="cls-15" x="322.69" y="255.22" width="4.1" height="11.17"/><rect class="cls-15" x="354.56" y="255.22" width="4.1" height="11.17"/><path class="cls-19" d="M372.08,209.72v10.8l-20.22,48.59A41.16,41.16,0,0,0,349,280l-6.74,56.41h18.38L369.06,290a56.46,56.46,0,0,1,3.44-11.58l17-43.32h3.8L416.9,336.42h17.57l-16.28-116.7-1-10.8Z"/><line class="cls-15" x1="372.08" y1="214.56" x2="417.72" y2="214.56"/><line class="cls-15" x1="391.39" y1="235.11" x2="389.94" y2="210.93"/><path class="cls-15" d="M386,211.41l.81,11.82a3.83,3.83,0,0,0,3.83,3.58h.3"/><path class="cls-15" d="M408.27,211.41s-1.4,14.92,10.91,15.4"/><path class="cls-15" d="M377.81,211.9s.32,14.72-8.5,15.3"/><line class="cls-15" x1="380.22" y1="235.11" x2="401.99" y2="235.43"/><polyline class="cls-15" points="385.14 235.43 365.31 281.62 357.09 333.2"/><line class="cls-15" x1="415.71" y1="226.2" x2="429.47" y2="333.2"/><polygon class="cls-4" points="372.08 213.01 418.13 219.11 417.22 208.92 372.08 209.72 372.08 213.01"/><path class="cls-5" d="M358.38,185.78l-2.5,12.42L338.8,232.45l-3.13,10.86a1.78,1.78,0,0,0,1.71,2.28h7.19a1.91,1.91,0,0,0,1.9-2.11l-.74-7.16,27.56-32.8.16-17.74Z"/><path class="cls-10" d="M340.41,235.11s1.56,3.47-.28,8.54h1.8a1.86,1.86,0,0,1,1.86,1.89v.05"/><line class="cls-10" x1="341.01" y1="240.35" x2="346.04" y2="240.35"/><line class="cls-10" x1="343.99" y1="240.35" x2="345.13" y2="245.5"/><line class="cls-10" x1="341.96" y1="240.35" x2="342.73" y2="243.84"/><path class="cls-4" d="M357.14,192s4.25,3,16.21,5.6l.1-11.77H358.38Z"/><path class="cls-20" d="M388.61,151.39s16.08.14,23.93,4.33,20.8,29.58,20.8,29.58l-15.48,1,3.2,22.57a2.69,2.69,0,0,1-2.66,3.06H369.67c-4.92,0,1.53-4,1.53-4l-1.45-17.81s-10.8,2.09-17.09-.65l9.9-25.53a15.75,15.75,0,0,1,11.75-9.79Z"/><polygon class="cls-21" points="393.55 147.54 397.93 152.02 390.36 161 386.37 156.34 383.83 160.64 378.3 153.02 381.84 149.51 393.55 147.54"/><line class="cls-15" x1="409.38" y1="186.75" x2="406.5" y2="169.1"/><line class="cls-15" x1="369.75" y1="190.06" x2="367.93" y2="169.1"/><line class="cls-15" x1="387" y1="158.29" x2="391.39" y2="209.72"/><polygon class="cls-6" points="406.69 206.09 379.6 206.09 376.09 174.06 403.18 174.06 406.69 206.09"/><path class="cls-18" d="M391.38,173.33a2.11,2.11,0,0,0-2-1.67,1.61,1.61,0,0,0-1.64,1.67H385l.24,2.24h9.13l-.24-2.24Z"/><polygon class="cls-22" points="416.9 336.43 434.47 336.43 433.76 331.35 415.71 331.35 416.9 336.43"/><polygon class="cls-22" points="361.56 331.35 342.87 331.35 342.26 336.43 360.64 336.43 361.56 331.35"/><path class="cls-5" d="M430.08,185.5l-20.7,1.25.53,4.12-19.8-3.46a10.92,10.92,0,0,0-8.42-6,.33.33,0,0,0-.21.61,6.24,6.24,0,0,1,2.65,3l-5.28.2-2.51-.57a.65.65,0,0,0-.79.69l.54,6.07a1.68,1.68,0,0,0,1.37,1.49,28.79,28.79,0,0,0,4.7.38,12.48,12.48,0,0,0,7,1.33,81.32,81.32,0,0,0,27.08,12.17C431.69,210.25,432.77,198.56,430.08,185.5Z"/><path class="cls-10" d="M375.65,186.6a17,17,0,0,0,5.81.86"/><path class="cls-10" d="M375.82,188.52a17,17,0,0,0,5.8.86"/><path class="cls-10" d="M376,190.44a16.9,16.9,0,0,0,5.8.86"/><line class="cls-10" x1="409.91" y1="190.87" x2="420" y2="192.35"/><path class="cls-5" d="M377,128.32s-1,6.36-1.85,10.88,1,8.54,6.69,8.3v3.63l4.51,4.59,7.66-6.29-.49-12.49s-4-1.21-3.54-7.09Z"/><path class="cls-10" d="M382.6,147.54a8.1,8.1,0,0,0,6.53-3.55"/><path class="cls-5" d="M395.85,140.11c-1.31,1.63-3.39,2.12-4.66,1.1s-1.24-3.16.07-4.78,3.39-2.12,4.66-1.1S397.16,138.49,395.85,140.11Z"/><path class="cls-10" d="M391.39,138.92c.24-1.7,3.06-3.4,4.17-1.7"/><line class="cls-10" x1="394.07" y1="139.11" x2="392.52" y2="137.19"/><path class="cls-23" d="M379.49,135.11l.6.29a4.15,4.15,0,0,0,.13-.65c.11-1.08-.22-2-.74-2s-1,.86-1.16,1.94.22,2,.74,2c.33,0,.65-.33.88-.84Z"/><path class="cls-23" d="M385.12,135.24l.6.29a4.17,4.17,0,0,0,.12-.65c.12-1.08-.21-2-.73-2s-1,.86-1.16,1.94.21,2,.74,2c.32,0,.65-.33.87-.85Z"/><polyline class="cls-10" points="381.59 135.04 380.48 139.36 383.47 139.11"/><path class="cls-10" d="M379.72,141.35a6.83,6.83,0,0,0,6-1.54"/><path class="cls-3" d="M376.91,128.43l19.35,2.45s2.34-9.09-8.14-10.5C379.66,119.24,377.26,126.2,376.91,128.43Z"/><path class="cls-20" d="M388.51,120.44l-.39-.06c-8.46-1.14-10.86,5.82-11.22,8.05l9.33,1.18Z"/><path class="cls-4" d="M386.23,129.61l-18.18-2.3h0a1.72,1.72,0,0,1,1.9-1.45L386.58,128Z"/><path class="cls-24" d="M90.5,202.34s-2.38-3.52-7.39-2.19-5.26,5.56-5.26,7.56.24,4.83-3.21,5a4.41,4.41,0,0,0-4.29,4.66c0,1.63-.24,4.23-2.42,5.38H85.65Z"/><path class="cls-4" d="M86.48,219.23l3.76-15.79a10.62,10.62,0,0,0-2.7,2C82.27,210.89,84.32,216.37,86.48,219.23Z"/><path class="cls-4" d="M92.73,206.11a3.82,3.82,0,1,1-3.81-4A3.92,3.92,0,0,1,92.73,206.11Z"/><path class="cls-24" d="M107.29,209.1c-1.7-6.53-12.21-11.91-18.86-5.08s-1.64,13.78.54,15.41Z"/><polygon class="cls-21" points="99.57 310.59 92.51 310.59 107.68 351.26 42.89 351.26 58.06 310.59 51 310.59 33.47 357.6 117.11 357.6 99.57 310.59"/><path class="cls-25" d="M112.79,330.62l-3.87,14.59,14.75,7.09,1.64.41a4.49,4.49,0,0,1,3.36,4.89H92.32A1.49,1.49,0,0,1,91,355.52l4.51-10.47,3.79-14.43Z"/><path class="cls-4" d="M97.26,338.2l-1.8,6.85L91,355.52a1.49,1.49,0,0,0,1.37,2.08h36.35a4.49,4.49,0,0,0-3.36-4.89l-1.64-.41-14.75-7.09,1.86-7Z"/><path class="cls-4" d="M142,289.46,163.32,333h-25s-4-5.48-4-11-7.8-9.13-9-13.54-9.23-15.32-9.23-15.32L111.25,282h18.8A13.3,13.3,0,0,1,142,289.46Z"/><path class="cls-4" d="M58.06,310.59H51L45.64,325a17.57,17.57,0,0,0,5.87,3.16Z"/><polygon class="cls-4" points="99.57 310.59 92.51 310.59 99.37 328.97 106.43 328.97 99.57 310.59"/><path class="cls-21" d="M77.62,246.41,105.82,322H57.16a17,17,0,0,1-15.89-11L21,256.51a7.48,7.48,0,0,1,7-10.1Z"/><path class="cls-4" d="M102.9,314.16,77.62,246.41H28a7.46,7.46,0,0,0-2.43.41,7.89,7.89,0,0,0,.44,1.85L46.3,303.13a17,17,0,0,0,15.88,11Z"/><line class="cls-15" x1="45.51" y1="308.17" x2="61.92" y2="308.17"/><path class="cls-19" d="M93.28,282h21.87a11.72,11.72,0,0,1,11.15,15.31L114.8,333H90.46s1.29-5,4-7.42-.79-5.8.73-9.51c1.36-3.29,2.91-4.17,3.46-7.25H57.05c-8.46,0-19.1-12.7-3.74-35.91H90.78L90.06,279Z"/><path class="cls-4" d="M53.46,273.72s25.8,1.14,32,8.3h7.86l-3.22-3,.72-6.17Z"/><line class="cls-15" x1="78.45" y1="282.02" x2="92.4" y2="282.02"/><path class="cls-15" d="M66.77,272.87l-3.91,12.51a3.5,3.5,0,0,0,3.34,4.54h38.38a5.68,5.68,0,0,1,5.45,7.26l-9.57,33"/><line class="cls-15" x1="116.09" y1="289.31" x2="104.81" y2="296.69"/><line class="cls-15" x1="117.26" y1="291.61" x2="103.28" y2="306.6"/><line class="cls-15" x1="74.24" y1="283.15" x2="58.06" y2="294.27"/><line class="cls-15" x1="68.18" y1="284.11" x2="56.33" y2="287.74"/><path class="cls-26" d="M74.24,254.19C71.3,248.36,69,243.61,69,243.61"/><path class="cls-9" d="M111.25,248.9s-4-7.29-5.22-9.74-2.61-6.19-12.89-9.57-24.06-4.35-28.83,8.28a294.52,294.52,0,0,0-8.83,29.56l-3.26,3.36a1.73,1.73,0,0,0,1.24,2.93H91.51Z"/><path class="cls-14" d="M111.25,248.9l6.52,12.19,23,10s12.56-.68,14.67,6.18H106L95.22,254.73Z"/><path class="cls-4" d="M81.35,267.67c-2-3.63-10.49-20.27-10.49-20.27l4.83,20.29a7.85,7.85,0,0,0,7.63,6H86A23.16,23.16,0,0,1,81.35,267.67Z"/><line class="cls-15" x1="71.63" y1="263.08" x2="58.06" y2="269.45"/><path class="cls-15" d="M96.71,238.29l-.91,6.84s1.45,5.06,0,9.39"/><path class="cls-25" d="M93.5,214.78l2.75-6.17,11,.49a7.4,7.4,0,0,1,0,3.62c-.49,2.18-1.24,3.15-1.47,5.81S106,229,96.71,228l-4,7.07s-6.66,1.59-9.62-7.55Z"/><path class="cls-25" d="M94.44,217.69a4.06,4.06,0,1,1-3.2-4.3A3.79,3.79,0,0,1,94.44,217.69Z"/><path class="cls-10" d="M89,215.08s2.33-.64,3.76,2.78"/><line class="cls-10" x1="89.58" y1="217.38" x2="91.13" y2="215.63"/><circle class="cls-14" cx="95.8" cy="219.84" r="2.25"/><path class="cls-10" d="M96,227.78s-4-.64-5.47-2.91"/><line class="cls-27" x1="74.74" y1="217.58" x2="72.81" y2="222.76"/><line class="cls-27" x1="78.08" y1="217.58" x2="76.15" y2="222.76"/><line class="cls-27" x1="81.42" y1="217.58" x2="79.48" y2="222.76"/><line class="cls-27" x1="84.76" y1="217.58" x2="82.82" y2="222.76"/><path class="cls-4" d="M103.74,216.25l-.62.25a4.46,4.46,0,0,1,0-.63c.09-1.05.56-1.88,1.05-1.86s.82.88.72,1.93-.56,1.87-1.05,1.85c-.31,0-.55-.35-.67-.86Z"/><path class="cls-4" d="M98.46,216.05l-.62.24a4.41,4.41,0,0,1,0-.63c.1-1,.57-1.87,1.06-1.86s.81.89.72,1.93-.57,1.87-1.06,1.86c-.3,0-.54-.36-.66-.87Z"/><path class="cls-26" d="M102.06,214.72a5.86,5.86,0,0,0,.29,3.45.46.46,0,0,1-.44.68l-1.36-.11"/><path class="cls-10" d="M102.69,220.89a7.71,7.71,0,0,1-5.59-.72"/><path class="cls-24" d="M97.1,211.79c.37-.57,3.85.3,3.89.86S96.59,212.57,97.1,211.79Z"/><path class="cls-24" d="M106.88,212.72c-.31-.6-3.86-.07-3.95.48S107.32,213.56,106.88,212.72Z"/><path class="cls-15" d="M98.84,307.49c.33-4.19-2.58-9.51,2.42-13.22"/><path class="cls-22" d="M91,355.52a1.49,1.49,0,0,0,1.37,2.08h36.35a4.48,4.48,0,0,0-.6-2.8H91.26Z"/><path class="cls-22" d="M92,329a22.11,22.11,0,0,0-1.54,4H114.8l1.29-4Z"/><path class="cls-25" d="M92.73,247.4l7.73,15.68,32.64,10.4s11-2.66,16.92,4H98.64c-6,0-12-.37-17.29-9.8-2.28-4.05-4.89-9.07-7.11-13.48Z"/><line class="cls-15" x1="84.62" y1="230.92" x2="92.73" y2="247.4"/><circle class="cls-28" cx="89.23" cy="220.36" r="1.12"/><polygon class="cls-21" points="201.85 357.06 111.61 357.06 138.82 284.12 201.85 284.12 201.85 357.06"/><polygon class="cls-4" points="137.16 288.57 201.85 312.16 201.85 284.12 138.82 284.12 137.16 288.57"/><path class="cls-21" d="M201.85,285.4H104.43a4,4,0,0,1-4-4h0a4,4,0,0,1,4-4h97.42Z"/><line class="cls-29" y1="357.6" x2="525.02" y2="357.6"/><path class="cls-30" d="M127.32,45.54H66a4.38,4.38,0,0,0-4.38,4.38V92.1A4.38,4.38,0,0,0,66,96.48H94.72a3.18,3.18,0,0,1,2.74,1.57l9.21,15.75a1,1,0,0,0,1.81-.49V99.65a3.17,3.17,0,0,1,3.18-3.17h15.66a4.38,4.38,0,0,0,4.38-4.38V49.92A4.38,4.38,0,0,0,127.32,45.54Z"/><path class="cls-7" d="M109.18,65.86a14,14,0,1,1-17.76-8.65A14,14,0,0,1,109.18,65.86Z"/><path class="cls-3" d="M106.09,60.8A13.28,13.28,0,0,1,107.78,63c7.84-1.85,12.72-2,13.75-1.37-.59,1.71-8.88,7.1-24.3,12.43S72,80.22,70.43,79.24c.4-1.17,4.35-4,11.66-7.4a14.87,14.87,0,0,1,0-2.75c-7.37,3.29-15.25,7.67-14.1,11,2,6,28.93-3.26,30.07-3.65S126,66.7,124,60.75C122.83,57.43,113.92,58.84,106.09,60.8Z"/><path class="cls-8" d="M204.73,261s11.12-27.81,45.21-47.88c0,0,8.71-22.68,21.17-30.57a5.16,5.16,0,0,1,7.47,6.31l-12.44,31.58h36.52Z"/><path class="cls-7" d="M301.93,92.18C299.14,72,281.62,46.07,247.77,46.07S196.39,72,193.6,92.18c-2.74,19.82,2.42,31.27,12.25,47.39,10.76,17.63,14.83,41.91,14.83,41.91h54.17s4.07-24.28,14.83-41.91C299.51,123.45,304.67,112,301.93,92.18Z"/><path class="cls-4" d="M247.77,180.44A232.68,232.68,0,0,1,219.23,179l5.41,37.27c.17,1.13,10.52,2,23.13,2s23-.9,23.12-2L276.3,179A232.62,232.62,0,0,1,247.77,180.44Z"/><ellipse class="cls-4" cx="247.77" cy="214.2" rx="14.75" ry="10.52"/><path class="cls-31" d="M262.17,134.57l2.53-17.33h0c.12-.67.22-1.36.33-2.06,1.87-12.86,1-25.54-2.31-25.54-2.06,0-4.28,5.16-5.83,12.36-.55-7.2-2.05-12.36-4.12-12.36s-3.93,5.16-5,12.36c-1.05-7.2-2.91-12.36-5-12.36s-3.57,5.16-4.12,12.36c-1.54-7.2-3.76-12.36-5.83-12.36-3.33,0-4.18,12.68-2.3,25.54.1.7.21,1.39.32,2.06h0l2.5,17.33"/><line class="cls-32" x1="222.63" y1="34.33" x2="212.4" y2="6.24"/><line class="cls-32" x1="200.52" y1="47.09" x2="181.3" y2="24.19"/><line class="cls-32" x1="184.11" y1="66.65" x2="158.22" y2="51.7"/><line class="cls-32" x1="175.38" y1="90.64" x2="145.94" y2="85.45"/><line class="cls-32" x1="247.77" x2="247.77" y2="29.89"/><line class="cls-32" x1="283.13" y1="6.24" x2="272.91" y2="34.33"/><line class="cls-32" x1="314.23" y1="24.19" x2="295.02" y2="47.09"/><line class="cls-32" x1="337.31" y1="51.7" x2="311.42" y2="66.65"/><line class="cls-32" x1="349.6" y1="85.45" x2="320.16" y2="90.64"/><path class="cls-3" d="M250.91,302.3V273.52l63.68-38.44A37.13,37.13,0,0,0,332,209.79l6.33-35.56a4,4,0,0,0-3.52-4.69c-3.73-.38-9.27.66-13.5,8.23l.58-18.76a4,4,0,0,0-4.51-4.11l-1.35.17a15.22,15.22,0,0,0-13.33,15.1v31.54L296,171a3.25,3.25,0,0,0-5.06-2l-2.31,1.65a17,17,0,0,0-6.84,17.3l5.91,28.86L270.92,190a2.66,2.66,0,0,0-4.24-.36h0a12.75,12.75,0,0,0-2,13.93L273.4,222l-12.82,11.85s-62.14,5.08-62.14,41.35V302.3Z"/><polygon class="cls-4" points="198.44 288.27 250.91 292.14 250.91 302.3 198.44 302.3 198.44 288.27"/><path class="cls-33" d="M288.77,218.32l.93,1.25a9.21,9.21,0,0,1-1.08,12.17l-23.93,22.6"/><path class="cls-33" d="M303.38,206.3l.82,3.91a25.33,25.33,0,0,1-6.89,23.18l-18.18,18.14"/><path class="cls-33" d="M321.27,180.67l-.79,29.68a28,28,0,0,1-10,20.75L293.87,245"/><rect class="cls-1" x="189.49" y="294.8" width="77.38" height="29.74"/><rect class="cls-4" x="186.07" y="318.29" width="84.21" height="39.31"/><line class="cls-34" x1="235.23" y1="346.27" x2="235.23" y2="318.29"/><path class="cls-34" d="M248.79,326.64a4.11,4.11,0,1,1-4.11-4.11A4.11,4.11,0,0,1,248.79,326.64Z"/><path class="cls-34" d="M248.79,341.34a4.11,4.11,0,1,1-4.11-4.11A4.11,4.11,0,0,1,248.79,341.34Z"/><polygon class="cls-1" points="123.05 218.05 106.03 263.66 169.06 263.66 186.08 218.05 123.05 218.05"/><line class="cls-35" x1="126.28" y1="218.05" x2="109.26" y2="263.66"/><path class="cls-36" d="M157.27,238.21a11.16,11.16,0,0,1-10.16,8.06c-4.45,0-7.12-3.6-6-8.06a11.19,11.19,0,0,1,10.17-8.06C155.77,230.15,158.44,233.76,157.27,238.21Z"/><polygon class="cls-3" points="135.84 250.58 137.16 263.92 169.06 263.92 154.26 250.58 135.84 250.58"/><polygon class="cls-1" points="154.26 250.58 164.21 277.25 145.79 277.25 135.84 250.58 154.26 250.58"/><line class="cls-35" x1="137.81" y1="250.58" x2="148.09" y2="277.47"/><path class="cls-3" d="M418.94,78.64c0-12.62-12.33-22.85-27.55-22.85S363.84,66,363.84,78.64c0,9.86,7.53,18.27,18.08,21.47a9.73,9.73,0,0,1,5.94,5.28l3.53,7.6,3.53-7.6a9.73,9.73,0,0,1,5.94-5.28C411.41,96.91,418.94,88.5,418.94,78.64Z"/><path class="cls-6" d="M381.27,78.35a2.5,2.5,0,1,1-2.5-2.5A2.5,2.5,0,0,1,381.27,78.35Z"/><path class="cls-6" d="M389.68,78.35a2.5,2.5,0,1,1-2.5-2.5A2.5,2.5,0,0,1,389.68,78.35Z"/><path class="cls-6" d="M398.09,78.35a2.5,2.5,0,1,1-2.5-2.5A2.5,2.5,0,0,1,398.09,78.35Z"/><path class="cls-6" d="M406.5,78.35a2.5,2.5,0,1,1-2.49-2.5A2.49,2.49,0,0,1,406.5,78.35Z"/></g></svg>