<?xml version="1.0" encoding="UTF-8"?>
<svg id="Layer_1" data-name="Layer 1" xmlns="http://www.w3.org/2000/svg" viewBox="0 0 1000 639.63">
  <defs>
    <style>
      .cls-1 {
        fill: #ffaba1;
      }

      .cls-2, .cls-3, .cls-4, .cls-5, .cls-6 {
        opacity: .5;
      }

      .cls-2, .cls-7 {
        fill: #5572bd;
      }

      .cls-8 {
        fill: #fff;
      }

      .cls-9 {
        fill: #db895f;
      }

      .cls-4, .cls-10 {
        fill: #ffc800;
      }

      .cls-11 {
        fill: #435ca1;
      }

      .cls-5 {
        fill: #db762d;
      }

      .cls-12 {
        fill: #ed776a;
      }

      .cls-13 {
        fill: #c36358;
      }

      .cls-14 {
        opacity: .2;
      }

      .cls-14, .cls-15 {
        fill: #1a2e35;
      }

      .cls-16 {
        fill: #2b454e;
      }

      .cls-17 {
        fill: #c8c8c8;
      }

      .cls-18, .cls-19, .cls-20 {
        opacity: .1;
      }

      .cls-21, .cls-19 {
        fill: #698f91;
      }

      .cls-22 {
        fill: #375a64;
      }

      .cls-23 {
        fill: none;
      }

      .cls-24 {
        fill: #dcdcdc;
      }

      .cls-25, .cls-20 {
        fill: #526db5;
      }

      .cls-26 {
        fill: #ff9cbf;
      }

      .cls-27 {
        fill: #a8a8a8;
      }

      .cls-28 {
        fill: #d55456;
      }

      .cls-29 {
        fill: #ececec;
      }

      .cls-30 {
        fill: #ff9581;
      }

      .cls-6 {
        fill: #b6deda;
      }
    </style>
  </defs>
  <g>
    <rect class="cls-4" x="496.96" y="411.47" width="6.08" height="122.04"/>
    <rect class="cls-4" x="321.37" y="146.55" width="6.08" height="185.59" transform="translate(-15.32 456.39) rotate(-68.99)"/>
    <path class="cls-4" d="M421.08,358.66l-91.69,55.12c-22.07-34.62-60.77-57.65-104.79-57.65-68.48,0-124.2,55.72-124.2,124.2s55.72,124.2,124.2,124.2,124.2-55.72,124.2-124.2c0-22.3-5.94-43.23-16.27-61.34l91.68-55.11-3.13-5.21Zm-196.47,239.78c-65.13,0-118.11-52.99-118.11-118.11s52.99-118.11,118.11-118.11,118.11,52.99,118.11,118.11-52.99,118.11-118.11,118.11Z"/>
    <rect class="cls-4" x="586.44" y="222.11" width="184.84" height="6.08" transform="translate(-35.87 251.62) rotate(-20.47)"/>
    <rect class="cls-4" x="520.45" y="165.8" width="108.01" height="6.08" transform="translate(125.89 565.45) rotate(-57.86)"/>
    <path class="cls-4" d="M788.55,366.35c-43.71,0-82.19,22.72-104.33,56.95l-103.31-49.41-2.63,5.49,102.74,49.14c-10.58,18.27-16.67,39.45-16.67,62.03,0,68.48,55.72,124.2,124.2,124.2s124.2-55.72,124.2-124.2-55.72-124.2-124.2-124.2Zm0,242.31c-65.13,0-118.11-52.99-118.11-118.11s52.99-118.11,118.11-118.11,118.11,52.99,118.11,118.11-52.99,118.11-118.11,118.11Z"/>
  </g>
  <g>
    <path class="cls-29" d="M27.04,357.67c1.51-.94,3.4-.89,4.93,.03,.41,.25,.83,.49,1.26,.72,.43,.23,.87,.45,1.31,.66,1.6,.76,2.69,2.3,2.74,4.07l.19,6.06,19.74-.61-.19-6.06c-.05-1.78,.92-3.41,2.48-4.26,.86-.47,1.69-.98,2.5-1.55,1.45-1.01,3.34-1.15,4.9-.31l5.33,2.86,9.34-17.41-5.33-2.86c-1.56-.84-2.49-2.48-2.45-4.26,.02-.98-.01-1.96-.1-2.94-.15-1.77,.66-3.48,2.17-4.42l5.15-3.2-10.41-16.78-5.18,3.21c-1.51,.93-3.39,.88-4.9-.04-.41-.25-.83-.49-1.26-.72-.43-.23-.86-.45-1.3-.65-1.61-.76-2.7-2.31-2.75-4.08l-.18-6.06-19.74,.61,.19,6.04c.06,1.78-.91,3.4-2.47,4.26-.86,.47-1.7,.99-2.51,1.56-1.45,1.01-3.34,1.15-4.9,.32l-5.33-2.86-9.34,17.41,5.33,2.86c1.56,.84,2.49,2.49,2.45,4.26-.02,.99,0,1.97,.09,2.95,.15,1.77-.67,3.48-2.18,4.42l-5.14,3.18,10.41,16.78,5.14-3.19Zm4.95-31.17c4.22-7.87,14.04-10.83,21.91-6.61,7.87,4.22,10.82,14.03,6.6,21.9-4.22,7.87-14.02,10.83-21.89,6.61-7.87-4.22-10.84-14.02-6.62-21.89Z"/>
    <path class="cls-29" d="M779.63,80.81c.62-1.08,1.81-1.67,3.05-1.61,.34,.02,.68,.03,1.02,.03s.69,0,1.03-.03c1.24-.06,2.42,.53,3.04,1.6l2.12,3.68,11.98-6.91-2.12-3.68c-.62-1.08-.56-2.41,.12-3.45,.37-.57,.72-1.17,1.03-1.78,.56-1.11,1.68-1.82,2.92-1.82h4.24v-13.84h-4.24c-1.24,0-2.36-.71-2.92-1.82-.31-.61-.66-1.21-1.03-1.78-.68-1.04-.74-2.37-.12-3.45l2.12-3.68-11.98-6.91-2.13,3.69c-.62,1.07-1.8,1.66-3.04,1.6-.34-.02-.68-.03-1.02-.03s-.68,0-1.02,.03c-1.24,.06-2.43-.53-3.05-1.61l-2.12-3.68-11.98,6.91,2.12,3.67c.62,1.08,.56,2.4-.12,3.45-.38,.58-.72,1.17-1.03,1.79-.56,1.11-1.68,1.82-2.92,1.82h-4.23v13.84h4.23c1.24,0,2.36,.71,2.92,1.82,.31,.62,.66,1.21,1.03,1.79,.68,1.04,.74,2.37,.12,3.45l-2.12,3.67,11.98,6.91,2.12-3.67Zm-7.26-20.88c0-6.26,5.08-11.34,11.34-11.34s11.33,5.08,11.33,11.34-5.07,11.33-11.33,11.33-11.34-5.07-11.34-11.33Z"/>
    <path class="cls-29" d="M82.56,415.15c1.08,.62,1.67,1.81,1.61,3.05-.02,.34-.03,.68-.03,1.02s0,.69,.03,1.03c.06,1.24-.53,2.42-1.6,3.04l-3.68,2.12,6.91,11.98,3.68-2.12c1.08-.62,2.41-.56,3.45,.12,.57,.37,1.17,.72,1.78,1.03,1.11,.56,1.82,1.68,1.82,2.92v4.24h13.84v-4.24c0-1.24,.71-2.36,1.82-2.92,.61-.31,1.21-.66,1.78-1.03,1.04-.68,2.37-.74,3.45-.12l3.68,2.12,6.91-11.98-3.69-2.13c-1.07-.62-1.66-1.8-1.6-3.04,.02-.34,.03-.68,.03-1.02s0-.68-.03-1.02c-.06-1.24,.53-2.43,1.61-3.05l3.68-2.12-6.91-11.98-3.67,2.12c-1.08,.62-2.4,.56-3.45-.12-.58-.38-1.17-.72-1.79-1.04-1.11-.56-1.82-1.68-1.82-2.92v-4.23h-13.84v4.23c0,1.24-.71,2.36-1.82,2.92-.62,.31-1.22,.66-1.79,1.04-1.04,.68-2.37,.74-3.45,.12l-3.67-2.12-6.91,11.98,3.67,2.12Zm20.88-7.26c6.26,0,11.34,5.08,11.34,11.34s-5.08,11.33-11.34,11.33-11.33-5.07-11.33-11.33,5.07-11.34,11.33-11.34Z"/>
  </g>
  <g>
    <circle class="cls-29" cx="633.62" cy="544.7" r="37.27" transform="translate(-183.52 370.18) rotate(-28.63)"/>
    <circle class="cls-29" cx="400.55" cy="87.85" r="37.27"/>
    <circle class="cls-29" cx="253.33" cy="313.97" r="15.89" transform="translate(-96.21 515.39) rotate(-81.05)"/>
    <circle class="cls-29" cx="880.3" cy="316.26" r="15.89"/>
    <rect class="cls-29" x="348.47" y="230.45" width="3.04" height="175.7" transform="translate(23.68 660.82) rotate(-88.67)"/>
    <rect class="cls-29" x="565.29" y="301.95" width="3.04" height="261.13" transform="translate(-141.49 350.95) rotate(-30.78)"/>
    <rect class="cls-29" x="450.15" y="88.32" width="3.04" height="198.26" transform="translate(-36.74 211.9) rotate(-25.41)"/>
    <rect class="cls-29" x="541.79" y="314.74" width="338.51" height="3.04"/>
  </g>
  <g>
    <circle class="cls-29" cx="279.93" cy="23.97" r="10.6"/>
    <path class="cls-29" d="M252.25,47.48c0,5.85-4.74,10.6-10.6,10.6s-10.6-4.74-10.6-10.6,4.74-10.6,10.6-10.6,10.6,4.74,10.6,10.6Z"/>
    <path class="cls-29" d="M290.53,70.99c0,5.85-4.74,10.6-10.6,10.6s-10.6-4.74-10.6-10.6,4.74-10.6,10.6-10.6,10.6,4.74,10.6,10.6Z"/>
    <polygon class="cls-29" points="279.11 73.46 238.8 47.45 279.14 22.67 280.73 25.26 244.51 47.51 280.76 70.91 279.11 73.46"/>
  </g>
  <circle class="cls-10" cx="500" cy="311.88" r="115.63"/>
  <circle class="cls-6" cx="124.2" cy="159.2" r="107.26" transform="translate(-76.2 134.45) rotate(-45)"/>
  <path class="cls-4" d="M124.2,283.4C55.72,283.4,0,227.68,0,159.2S55.72,35,124.2,35s124.2,55.72,124.2,124.2-55.72,124.2-124.2,124.2Zm0-242.31C59.07,41.09,6.08,94.07,6.08,159.2s52.99,118.11,118.11,118.11,118.11-52.99,118.11-118.11S189.33,41.09,124.2,41.09Z"/>
  <path class="cls-4" d="M875.8,268.79c-68.48,0-124.2-55.72-124.2-124.2s55.72-124.2,124.2-124.2,124.2,55.72,124.2,124.2-55.72,124.2-124.2,124.2Zm0-242.31c-65.13,0-118.11,52.99-118.11,118.11s52.99,118.11,118.11,118.11,118.11-52.99,118.11-118.11-52.99-118.11-118.11-118.11Z"/>
  <circle class="cls-5" cx="788.55" cy="490.54" r="107.26" transform="translate(-115.91 701.27) rotate(-45)"/>
  <g class="cls-3">
    <circle class="cls-7" cx="875.8" cy="144.59" r="107.26" transform="translate(154.28 661.63) rotate(-45)"/>
    <circle class="cls-2" cx="875.8" cy="144.59" r="107.26" transform="translate(154.28 661.63) rotate(-45)"/>
  </g>
  <g class="cls-3">
    <circle class="cls-7" cx="224.61" cy="480.32" r="107.26" transform="translate(-273.85 299.5) rotate(-45)"/>
    <circle class="cls-2" cx="224.61" cy="480.32" r="107.26" transform="translate(-273.85 299.5) rotate(-45)"/>
  </g>
  <g>
    <circle class="cls-25" cx="625.17" cy="89.87" r="51.61" transform="translate(396.06 678.44) rotate(-76.91)"/>
    <circle class="cls-20" cx="625.17" cy="89.87" r="51.61" transform="translate(396.06 678.44) rotate(-76.91)"/>
  </g>
  <g>
    <circle class="cls-21" cx="500" cy="569.78" r="51.61"/>
    <circle class="cls-19" cx="500" cy="569.78" r="51.61"/>
  </g>
  <path class="cls-8" d="M592.2,96.5c0,4.48,3.46,8.14,7.86,8.47v.02h48.1c5.51,0,9.98-4.47,9.98-9.98,0-5.2-3.97-9.47-9.05-9.94-.29-9.03-7.7-16.27-16.81-16.27-7.25,0-13.43,4.59-15.79,11.01-1.34-.68-2.86-1.06-4.46-1.06-5.31,0-9.65,4.14-9.96,9.36-.45-.08-.91-.11-1.38-.11-4.69,0-8.49,3.8-8.49,8.49Z"/>
  <g>
    <path class="cls-15" d="M816.09,466.55c.02,.46-.29,.94-.77,1.01-1.1,.08-2.43,.16-3.92,.26-3.51-9.13-7.3-16.39-6.3-13.56,1.44,4.1,2.5,10,2.46,13.79-1.73,.1-5.73,.29-7.73,.39-3.05-16.08-6.96-28.01-6.71-24.33,.99,14.85,.11,19.62-.92,24.72-18.66,.88-43.14,1.76-60.85,2.02-2.05-8.89-3.84-18.52-4.15-17.84-2.41,5.03-3.07,12.32-3.12,17.93-5.64,.04-10.14-.03-12.89-.21,0,0-1.32-7.48-1.51-9.94-.52-6.26,.18-12.68,1.97-18.73,1.87-6.23,5.11-11.74,8.18-17.39,.02-.05,.05-.09,.08-.12,0-.02,.01-.02,.02-.05,2.1-3.91,3.66-7.64,4.71-11.6,.01-.02,.02-.05,.03-.09,.73-2.81,1.21-5.71,1.45-8.91,.82-10.98,7-20.49,17.32-23.39,19.49-18.37,39.02-10.67,44.92,3.41,.57,1.37,1.12,2.94,1.66,4.66l.02,.05c2,6.34,3.79,14.58,5.44,20.94-.01,.02,0,.04,0,.04-.01,.02,0,.04,.02,.07v.02c.82,3.03,1.58,5.61,2.32,7.35,4.93,11.45,16.18,17.95,18.27,49.51Z"/>
    <path class="cls-15" d="M738.94,383.53c-6.77,3.54-10.92,8.7-11.97,16.72-.61,4.67-.92,9.23-2.71,13.64-1.85,4.55-4.78,8.29-7.79,12.02-4.79,5.93-8.12,11.83-8.86,19.7-.75,7.99-.36,17.42,2.33,24.87,.02,.04,.08,.02,.07-.02-2.19-7.55-2.25-18.02-.91-25.94,1.48-8.7,6.4-14.18,11.43-20.79,4-5.26,6.55-11.06,7.4-17.76,.5-3.96,.44-8.08,2.04-11.82,1.9-4.46,5.69-7.3,9.46-9.81,.51-.34,.03-1.08-.48-.81Z"/>
    <path class="cls-15" d="M809.18,429.31c-4.78-6.22-9.76-11.52-12.56-19.24-2.55-7.04-4.01-14.47-6.61-21.5-.04-.11-.21-.07-.17,.05,4.01,12.48,4.79,25.08,12.85,35.57,4.38,5.7,8.76,10.98,11.66,17.82,3.04,7.19,4.35,14.67,4.55,22.57,0,.28,.36,.26,.39,0,1.2-12.8-2.59-25.5-10.09-35.26Z"/>
  </g>
  <g>
    <path class="cls-10" d="M682.08,594.54c.04-.31,.1-.6,.16-.91-.07,.38-.15,.75-.19,1.13,.01-.07,.01-.15,.03-.22Z"/>
    <path class="cls-10" d="M732.74,603.5c-.16,.1-.34,.19-.53,.28l-.07-.13h-.01c.18-.06,.37-.09,.54-.13,.03,0,.04,0,.07-.01Z"/>
  </g>
  <path class="cls-30" d="M753.69,468.68c-31.69,32.13-71.57,99.71-64.13,113.41,8.28,15.26,52.41-29.78,52.24-32.41-.13-1.99,15.4-43.04,27.18-72.89,11.77-29.83-7.45-16.05-15.29-8.11Z"/>
  <path class="cls-11" d="M742.1,549.73c1.35-4.39,22.47-58.52,28.51-75.64,6.04-17.12,.44-22.42-16.81-6.74-17.25,15.68-55.05,68.05-63.68,95.85-8.31,26.78,5.47,26.78,23.67,14.43,14.89-10.11,28.3-27.91,28.3-27.91Z"/>
  <path class="cls-8" d="M772.88,464.85c-.02,.32-.06,.64-.11,.97-.21,.29-.53,.48-.91,.48-.59,0-1.08-.48-1.08-1.08s.49-1.08,1.08-1.08c.48,0,.86,.3,1.02,.72Zm-35.95,22.65c-.6,0-1.08,.49-1.08,1.08s.49,1.08,1.08,1.08,1.08-.49,1.08-1.08-.49-1.08-1.08-1.08Zm17.47,0c-.6,0-1.08,.49-1.08,1.08s.49,1.08,1.08,1.08,1.08-.49,1.08-1.08-.49-1.08-1.08-1.08Zm-8.73-11.19c-.6,0-1.08,.49-1.08,1.08s.49,1.08,1.08,1.08,1.08-.49,1.08-1.08-.49-1.08-1.08-1.08Zm17.47,0c-.6,0-1.08,.49-1.08,1.08s.49,1.08,1.08,1.08,1.08-.49,1.08-1.08-.49-1.08-1.08-1.08Zm-43.67,34.56c-.6,0-1.08,.49-1.08,1.08s.49,1.08,1.08,1.08,1.08-.49,1.08-1.08-.49-1.08-1.08-1.08Zm17.47,0c-.6,0-1.08,.49-1.08,1.08s.49,1.08,1.08,1.08,1.08-.49,1.08-1.08-.49-1.08-1.08-1.08Zm17.47,0c-.6,0-1.08,.49-1.08,1.08s.49,1.08,1.08,1.08,1.08-.49,1.08-1.08-.49-1.08-1.08-1.08Zm-26.2-11.19c-.6,0-1.08,.49-1.08,1.08s.49,1.08,1.08,1.08,1.08-.49,1.08-1.08-.49-1.08-1.08-1.08Zm17.47,0c-.6,0-1.08,.49-1.08,1.08s.49,1.08,1.08,1.08,1.08-.49,1.08-1.08-.49-1.08-1.08-1.08Zm-26.2,34.56c-.6,0-1.08,.49-1.08,1.08s.49,1.08,1.08,1.08,1.08-.49,1.08-1.08-.49-1.08-1.08-1.08Zm17.47,0c-.6,0-1.08,.49-1.08,1.08s.49,1.08,1.08,1.08,1.08-.49,1.08-1.08-.49-1.08-1.08-1.08Zm-26.2-11.19c-.6,0-1.08,.49-1.08,1.08s.49,1.08,1.08,1.08,1.08-.49,1.08-1.08-.49-1.08-1.08-1.08Zm17.47,0c-.6,0-1.08,.49-1.08,1.08s.49,1.08,1.08,1.08,1.08-.49,1.08-1.08-.49-1.08-1.08-1.08Zm17.47,0c-.6,0-1.08,.49-1.08,1.08s.49,1.08,1.08,1.08,1.08-.49,1.08-1.08-.49-1.08-1.08-1.08Zm-43.67,34.56c-.6,0-1.08,.49-1.08,1.08s.49,1.08,1.08,1.08,1.08-.49,1.08-1.08-.49-1.08-1.08-1.08Zm17.47,0c-.6,0-1.08,.49-1.08,1.08s.49,1.08,1.08,1.08,1.08-.49,1.08-1.08-.49-1.08-1.08-1.08Zm-8.73-11.19c-.6,0-1.08,.49-1.08,1.08s.49,1.08,1.08,1.08,1.08-.49,1.08-1.08-.49-1.08-1.08-1.08Zm17.47,0c-.6,0-1.08,.49-1.08,1.08s.49,1.08,1.08,1.08,1.08-.49,1.08-1.08-.49-1.08-1.08-1.08Zm-26.2,34.56c-.6,0-1.08,.49-1.08,1.08s.49,1.08,1.08,1.08,1.08-.49,1.08-1.08-.49-1.08-1.08-1.08Zm-8.73-11.19c-.6,0-1.08,.49-1.08,1.08s.49,1.08,1.08,1.08,1.08-.49,1.08-1.08-.49-1.08-1.08-1.08Zm17.47,0c-.6,0-1.08,.49-1.08,1.08s.49,1.08,1.08,1.08,1.08-.49,1.08-1.08-.49-1.08-1.08-1.08Z"/>
  <g>
    <path class="cls-25" d="M844.15,582.3c-16.22,9.83-35.25,15.5-55.61,15.5-21.73,0-41.94-6.45-58.83-17.56l.24-1.42,4.56-33.68s-10.71-18.71-4.48-32.12c3.14-6.79,30.66-49.08,42.26-57.47,10.87-7.89,26.64,.56,32.52,6.74,20.75,21.86,31.45,63.5,39.34,120.01Z"/>
    <g>
      <path class="cls-25" d="M729.97,578.84c.57-5.64,1.17-11.27,1.84-16.9,.69-5.62,1.29-11.26,2.05-16.87l.13,.49c-3.26-4.65-5.27-9.96-6.21-15.48-.45-2.77-.54-5.58-.36-8.39,.24-2.86,1.1-5.55,2.07-8.15,2.02-5.2,4.83-9.98,7.83-14.6,3.01-4.62,6.32-9.03,9.88-13.22-3.24,4.44-6.25,9.03-9.1,13.7-2.82,4.69-5.39,9.54-7.34,14.6-.92,2.54-1.7,5.15-1.89,7.78-.16,2.67,0,5.38,.4,8.04,.83,5.29,2.77,10.53,5.78,14.91l.17,.24-.03,.25c-.76,5.61-1.67,11.2-2.5,16.81-.84,5.6-1.76,11.19-2.71,16.78Z"/>
      <path class="cls-25" d="M738.02,499.01c0-.77,.19-1.51,.4-2.23,.2-.73,.47-1.43,.77-2.12,.31-.69,.63-1.36,1.01-2.01,.38-.65,.77-1.29,1.25-1.88-.4,1.47-.98,2.83-1.56,4.19-.59,1.36-1.23,2.68-1.86,4.05Z"/>
    </g>
    <g>
      <path class="cls-25" d="M753.27,540.78c6.11,.07,12.23,1.36,18.09,3.01,5.9,1.67,18.95,6.84,22.23,8.12,.08,.03,.05,.15-.04,.13-5.95-1.48-6.76-1.81-12.57-3.78-5.79-1.97-11.63-3.75-17.55-5.29-3.34-.87-6.75-1.39-10.17-1.83-.22-.03-.23-.36,0-.36Z"/>
      <path class="cls-25" d="M742.49,543.89c6.35-.61,12.84,.12,19,1.69,.07,.02,.06,.14-.02,.13-3.15-.38-6.29-.74-9.45-1.01-3.17-.26-6.36-.43-9.54-.64-.11,0-.1-.16,0-.17Z"/>
    </g>
  </g>
  <g>
    <path class="cls-30" d="M689.56,582.08c7.13,10.2,26.55,12.15,74.99,21.64,6.7,1.31,28.69-43.5,21.61-45.26-8.92-2.23-44.04-8.95-46.67-9.11-22.18-1.41-54.77,25.82-49.93,32.74Z"/>
    <g>
      <path class="cls-30" d="M776.47,556.25s20.52,3.1,30.8,8.07c13.76,6.65,22.9,18.06,26.45,23.07,7.39,10.46,18.04,40.87,9.82,45.46-7.44,4.16-16.76-27.47-16.76-27.47,0,0,14.82,30.68,4.93,34.04-9.88,3.36-18.61-33.97-18.61-33.97,0,0,14.52,31.87,3.78,33.72-8.12,1.4-17.92-31.97-17.92-31.97,0,0,12.29,27.48,4,29.28-9.15,1.99-20.14-28.24-20.14-28.24-21.83,1.03-32.64-7.41-39.62-14.33-1.69-1.67,33.26-37.65,33.26-37.65Z"/>
      <g>
        <path class="cls-15" d="M822.33,594.43c1.87,3.54,3.79,7.11,5.34,10.81,1.55,3.7,2.97,7.45,4.17,11.27,2.94,9.38,3.31,15.71,3.25,15.32-1.55-9.19-6.9-22.5-8.45-26.2-1.55-3.69-2.91-7.45-4.45-11.14-.04-.09,.1-.14,.14-.05Z"/>
        <path class="cls-15" d="M808.88,599.79c2.19,4.63,4.54,9.14,6.53,13.86,1.98,4.7,3.45,9.33,5.1,14.16,.13,.37-.11,.32-.26-.05-1.84-4.75-3.91-9.01-5.81-13.74-1.89-4.72-3.61-9.54-5.67-14.18-.03-.07,.08-.11,.11-.04Z"/>
        <path class="cls-15" d="M796.52,602.31c3.71,6.9,6.15,14.47,8.36,21.96,.11,.37-.19,.27-.33-.11-2.64-7.35-4.66-13.14-8.28-21.72-.06-.13,.16-.27,.24-.13Z"/>
      </g>
    </g>
  </g>
  <path class="cls-11" d="M780.75,556.25l-42.44,47.26s-42.91-9.85-49.24-20.86c-4.16-7.24,28.14-36.59,52.54-33.17l39.14,6.77Z"/>
  <path class="cls-8" d="M720.54,558.69c0,.6-.49,1.08-1.08,1.08s-1.08-.49-1.08-1.08,.49-1.08,1.08-1.08,1.08,.49,1.08,1.08Zm16.38-1.08c-.6,0-1.08,.49-1.08,1.08s.49,1.08,1.08,1.08,1.08-.49,1.08-1.08-.49-1.08-1.08-1.08Zm17.47,0c-.6,0-1.08,.49-1.08,1.08s.49,1.08,1.08,1.08,1.08-.49,1.08-1.08-.49-1.08-1.08-1.08Zm17.47,0c-.6,0-1.08,.49-1.08,1.08s.49,1.08,1.08,1.08,1.08-.49,1.08-1.08-.49-1.08-1.08-1.08Zm-69.87,23.37c-.6,0-1.08,.49-1.08,1.08s.49,1.08,1.08,1.08,1.08-.49,1.08-1.08-.49-1.08-1.08-1.08Zm17.47,0c-.6,0-1.08,.49-1.08,1.08s.49,1.08,1.08,1.08,1.08-.49,1.08-1.08-.49-1.08-1.08-1.08Zm17.47,0c-.6,0-1.08,.49-1.08,1.08s.49,1.08,1.08,1.08,1.08-.49,1.08-1.08-.49-1.08-1.08-1.08Zm17.47,0c-.6,0-1.08,.49-1.08,1.08s.49,1.08,1.08,1.08,1.08-.49,1.08-1.08-.49-1.08-1.08-1.08Zm-43.67-11.19c-.6,0-1.08,.49-1.08,1.08s.49,1.08,1.08,1.08,1.08-.49,1.08-1.08-.49-1.08-1.08-1.08Zm17.47,0c-.6,0-1.08,.49-1.08,1.08s.49,1.08,1.08,1.08,1.08-.49,1.08-1.08-.49-1.08-1.08-1.08Zm17.47,0c-.6,0-1.08,.49-1.08,1.08s.49,1.08,1.08,1.08,1.08-.49,1.08-1.08-.49-1.08-1.08-1.08Zm17.47,0c-.6,0-1.08,.49-1.08,1.08s.49,1.08,1.08,1.08,1.08-.49,1.08-1.08-.49-1.08-1.08-1.08Zm-52.4,23.37c-.6,0-1.08,.49-1.08,1.08s.49,1.08,1.08,1.08,1.08-.49,1.08-1.08-.49-1.08-1.08-1.08Zm17.47,0c-.6,0-1.08,.49-1.08,1.08s.49,1.08,1.08,1.08,1.08-.49,1.08-1.08-.49-1.08-1.08-1.08Zm17.47,0c-.61,0-1.08,.49-1.08,1.08s.48,1.08,1.08,1.08l1.07-1.19v-.02c-.05-.53-.53-.96-1.07-.96Z"/>
  <g>
    <path class="cls-15" d="M712.51,557.17c3.93-2.85,15.01-9.5,29.13-7.72,.12,.02,.13,.22,0,.21-10.65-.3-25.02,5.27-29.04,7.69-.11,.06-.19-.1-.09-.18Z"/>
    <path class="cls-15" d="M726.71,595.59c4.39-5.45,9.06-10.65,13.75-15.85,4.69-5.2,9.37-10.4,14.2-15.48,2.72-2.87,5.43-5.76,8.26-8.53,.07-.07,.21,.03,.15,.12-4.38,5.44-9.04,10.67-13.68,15.89-4.66,5.23-9.37,10.41-14.14,15.55-2.69,2.9-5.43,5.76-8.26,8.53-.14,.14-.4-.06-.27-.22Z"/>
    <path class="cls-15" d="M780.82,555.63c-2.59-.86-5.27-1.31-7.95-1.81-2.68-.5-5.36-.96-8.05-1.39-5.35-.86-16.59-3.29-26.47-3.26-.11,0,.45,.53,.56,.52,4.7-.25,38.41,6.45,41.18,6.65-.11,.18-.21,.36-.3,.56-.06,.14,.08,.31,.23,.21,.35-.23,.59-.52,.92-.78,.27-.21,.22-.6-.11-.71Z"/>
  </g>
  <path class="cls-11" d="M812.51,465.23c40.55,35.38,72.45,79.08,70.38,90-3.86,20.34-30.64,21.61-34.7,17.21-16.42-17.79-33.75-52.26-52.52-90.72-16.77-34.36,3.49-28.15,16.85-16.5Z"/>
  <path class="cls-8" d="M805.13,464.13c0,.6-.49,1.08-1.08,1.08s-1.08-.49-1.08-1.08,.49-1.08,1.08-1.08,1.08,.49,1.08,1.08Zm-1.08,22.28c-.6,0-1.08,.49-1.08,1.08s.49,1.08,1.08,1.08,1.08-.49,1.08-1.08-.49-1.08-1.08-1.08Zm17.47,0c-.6,0-1.08,.49-1.08,1.08s.49,1.08,1.08,1.08,1.08-.49,1.08-1.08-.49-1.08-1.08-1.08Zm-26.2-11.19c-.6,0-1.08,.49-1.08,1.08s.49,1.08,1.08,1.08,1.08-.49,1.08-1.08-.49-1.08-1.08-1.08Zm17.47,0c-.6,0-1.08,.49-1.08,1.08s.49,1.08,1.08,1.08,1.08-.49,1.08-1.08-.49-1.08-1.08-1.08Zm8.73,34.56c-.6,0-1.08,.49-1.08,1.08s.49,1.08,1.08,1.08,1.08-.49,1.08-1.08-.49-1.08-1.08-1.08Zm17.47,0c-.6,0-1.08,.49-1.08,1.08s.49,1.08,1.08,1.08,1.08-.49,1.08-1.08-.49-1.08-1.08-1.08Zm17.09,.06c-.41,.16-.7,.56-.7,1.02,0,.61,.48,1.08,1.08,1.08,.38,0,.73-.21,.92-.53-.45-.53-.88-1.05-1.31-1.58Zm-43.29-11.25c-.6,0-1.08,.49-1.08,1.08s.49,1.08,1.08,1.08,1.08-.49,1.08-1.08-.49-1.08-1.08-1.08Zm17.47,0c-.6,0-1.08,.49-1.08,1.08s.49,1.08,1.08,1.08,1.08-.49,1.08-1.08-.49-1.08-1.08-1.08Zm16.55,.51c-.1,.16-.16,.37-.16,.57,0,.61,.48,1.08,1.08,1.08,.16,0,.32-.03,.45-.1-.45-.53-.91-1.04-1.37-1.56Zm-24.87,34.13c.22,.4,.43,.8,.65,1.18,.02-.06,.02-.11,.02-.18,0-.46-.27-.84-.67-1Zm17.06-.08c-.6,0-1.08,.49-1.08,1.08s.49,1.08,1.08,1.08,1.08-.49,1.08-1.08-.49-1.08-1.08-1.08Zm17.47,0c-.6,0-1.08,.49-1.08,1.08s.49,1.08,1.08,1.08,1.08-.49,1.08-1.08-.49-1.08-1.08-1.08Zm17.05,.08h-.02c-.38,.16-.65,.54-.65,1,0,.61,.48,1.08,1.08,1.08,.29,0,.54-.11,.73-.29-.37-.59-.75-1.2-1.15-1.8Zm-43.26-11.27c-.6,0-1.08,.49-1.08,1.08s.49,1.08,1.08,1.08,1.08-.49,1.08-1.08-.49-1.08-1.08-1.08Zm17.47,0c-.6,0-1.08,.49-1.08,1.08s.49,1.08,1.08,1.08,1.08-.49,1.08-1.08-.49-1.08-1.08-1.08Zm18.54,.87s-.02-.02,0-.03l-.02-.02c-.18-.24-.33-.45-.51-.67-.16-.1-.35-.14-.54-.14-.61,0-1.08,.48-1.08,1.08s.48,1.08,1.08,1.08,1.08-.49,1.08-1.08c0-.08,0-.14-.02-.22Zm-27.27,33.69c-.6,0-1.08,.49-1.08,1.08s.49,1.08,1.08,1.08,1.08-.49,1.08-1.08-.49-1.08-1.08-1.08Zm17.47,0c-.6,0-1.08,.49-1.08,1.08s.49,1.08,1.08,1.08,1.08-.49,1.08-1.08-.49-1.08-1.08-1.08Zm17.47,0c-.6,0-1.08,.49-1.08,1.08s.49,1.08,1.08,1.08,1.08-.49,1.08-1.08-.49-1.08-1.08-1.08Zm-43.67-11.19c-.6,0-1.08,.49-1.08,1.08s.49,1.08,1.08,1.08,1.08-.49,1.08-1.08-.49-1.08-1.08-1.08Zm17.47,0c-.6,0-1.08,.49-1.08,1.08s.49,1.08,1.08,1.08,1.08-.49,1.08-1.08-.49-1.08-1.08-1.08Zm17.47,0c-.6,0-1.08,.49-1.08,1.08s.49,1.08,1.08,1.08,1.08-.49,1.08-1.08-.49-1.08-1.08-1.08Zm-17.47,23.37c-.6,0-1.08,.49-1.08,1.08s.49,1.08,1.08,1.08,1.08-.49,1.08-1.08-.49-1.08-1.08-1.08Zm17.47,0c-.6,0-1.08,.49-1.08,1.08s.49,1.08,1.08,1.08,1.08-.49,1.08-1.08-.49-1.08-1.08-1.08Z"/>
  <path class="cls-15" d="M841.5,564.5c-2.97-4.61-5.77-9.37-8.61-14.07-2.84-4.71-5.65-9.43-8.42-14.19-5.46-9.4-10.53-19.01-15.42-28.71-2.77-5.49-5.58-10.96-8.21-16.52-.08-.17-.38-.04-.31,.14,2.54,6.46,5.28,12.82,8.22,19.09-.05-.07-.11-.14-.16-.21-.66-.89-1.31-1.77-1.96-2.67-1.27-1.76-2.46-3.58-3.6-5.43-.09-.15-.32-.01-.24,.14,1.33,2.49,2.79,4.95,4.44,7.25,.79,1.1,1.61,2.21,2.54,3.21,.02,.03,.06,.06,.08,.08,1.34,2.79,2.71,5.56,4.15,8.31,5.09,9.72,10.49,19.34,16.55,28.52,1.7,2.58,3.41,5.16,5.19,7.69,1.79,2.54,3.69,4.98,5.52,7.48,.09,.13,.3,0,.21-.13Z"/>
  <g>
    <path class="cls-30" d="M854.91,568.51c-7.68-11.03-3.79-32.97,4.65-85.58,1.17-7.28,56.43-7.85,55.59-.01-1.07,9.87-10.9,48.89-13.47,54.63-12.56,28.08-41.56,38.44-46.77,30.96Z"/>
    <g>
      <path class="cls-30" d="M916.94,461.08c-2.13-16.74-5.25-20.71,.45-35.79,3.74-9.9-.97-16.53-9.2-9.23-13.46,11.94-15.25,34.12-13.65,41.98l22.41,3.04Z"/>
      <g>
        <path class="cls-15" d="M863.48,399.59l-20.04,67.39c-.81,1.97,.12,3.63,2.09,3.72l35.15,1.49c1.96,.08,4.22-1.45,5.03-3.42l20.04-67.39c.81-1.97-.12-3.63-2.09-3.72l-35.15-1.49c-1.96-.08-4.22,1.45-5.03,3.42Z"/>
        <path class="cls-22" d="M867.65,399.73l-20.04,67.39c-.81,1.97,.12,3.63,2.09,3.72l35.15,1.49c1.96,.08,4.22-1.45,5.03-3.42l20.04-67.39c.81-1.97-.12-3.63-2.09-3.72l-35.15-1.49c-1.96-.08-4.22,1.45-5.03,3.42Z"/>
        <path class="cls-15" d="M877.16,403.25c-.11,1.65-1.53,2.9-3.18,2.79-1.65-.11-2.9-1.53-2.79-3.18,.11-1.65,1.53-2.9,3.18-2.79s2.9,1.53,2.79,3.18Z"/>
      </g>
      <path class="cls-30" d="M908.26,508.38s10.01-21.74,9.5-39.8c-.35-12.49-4.15-39.58-36.79-57.62-7.74-4.28-21.81-4.89-11.7,6.7,7.18,8.23,14.22,11.27,17.52,16.82,0,0-17.98,1.35-21.97,9.28-1.78,3.54-6.41,13.32-8.94,21.45,0,0,1.62,1.03,3.86,2.03,0,0-3.02,7.75,1.44,19.59l47.07,21.56Z"/>
      <path class="cls-30" d="M915.53,456.71c-4.44-4.81-14.03-14.85-24.73-20.33-11.89-6.09-36.42-14.62-40.83-5.8-3.23,6.47,5.85,10.55,5.85,10.55,0,0-10.88-1.39-12.53,5.09-1.49,5.91,5.72,8.64,5.72,8.64,0,0-6.75,.29-7.09,6.26-.41,7.18,13.8,5.38,19.66,13.01,1.32,1.71,53.95-17.42,53.95-17.42Z"/>
      <g>
        <path class="cls-15" d="M886.46,450.01c-4.92-3.84-18.33-9.69-30.41-9.04-.27,.02-.41,.23-.16,.27,13.44,2.11,25.5,6.65,30.5,8.88,.07,.03,.11-.07,.06-.11Z"/>
        <path class="cls-15" d="M879.96,461.83c-4.59-2.88-18.68-8.29-30.89-7.21-.27,.02-.39,.25-.14,.28,14.14,1.62,25.85,5.11,30.98,7.05,.07,.03,.11-.08,.05-.12Z"/>
      </g>
    </g>
  </g>
  <path class="cls-11" d="M916.02,500.75l-64.08,18.18s-12.78,42.01-4.66,52.55c8.69,11.27,49.04-6.19,57.06-30.74l11.68-39.98Z"/>
  <path class="cls-8" d="M892.47,510.87c0,.6-.49,1.08-1.08,1.08s-1.08-.49-1.08-1.08,.49-1.08,1.08-1.08,1.08,.49,1.08,1.08Zm16.38-1.08c-.6,0-1.08,.49-1.08,1.08s.49,1.08,1.08,1.08,1.08-.49,1.08-1.08-.49-1.08-1.08-1.08Zm-52.4,23.37c-.6,0-1.08,.49-1.08,1.08s.49,1.08,1.08,1.08,1.08-.49,1.08-1.08-.49-1.08-1.08-1.08Zm17.47,0c-.6,0-1.08,.49-1.08,1.08s.49,1.08,1.08,1.08,1.08-.49,1.08-1.08-.49-1.08-1.08-1.08Zm17.47,0c-.6,0-1.08,.49-1.08,1.08s.49,1.08,1.08,1.08,1.08-.49,1.08-1.08-.49-1.08-1.08-1.08Zm-26.2-11.19c-.6,0-1.08,.49-1.08,1.08s.49,1.08,1.08,1.08,1.08-.49,1.08-1.08-.49-1.08-1.08-1.08Zm17.47,0c-.6,0-1.08,.49-1.08,1.08s.49,1.08,1.08,1.08,1.08-.49,1.08-1.08-.49-1.08-1.08-1.08Zm17.47,0c-.6,0-1.08,.49-1.08,1.08s.49,1.08,1.08,1.08,1.08-.49,1.08-1.08-.49-1.08-1.08-1.08Zm-43.67,34.56c-.6,0-1.08,.49-1.08,1.08s.49,1.08,1.08,1.08,1.08-.49,1.08-1.08-.49-1.08-1.08-1.08Zm17.47,0c-.6,0-1.08,.49-1.08,1.08s.49,1.08,1.08,1.08,1.08-.49,1.08-1.08-.49-1.08-1.08-1.08Zm17.47,0c-.6,0-1.08,.49-1.08,1.08s.49,1.08,1.08,1.08,1.08-.49,1.08-1.08-.49-1.08-1.08-1.08Zm-43.67-11.19c-.6,0-1.08,.49-1.08,1.08s.49,1.08,1.08,1.08,1.08-.49,1.08-1.08-.49-1.08-1.08-1.08Zm17.47,0c-.6,0-1.08,.49-1.08,1.08s.49,1.08,1.08,1.08,1.08-.49,1.08-1.08-.49-1.08-1.08-1.08Zm17.47,0c-.6,0-1.08,.49-1.08,1.08s.49,1.08,1.08,1.08,1.08-.49,1.08-1.08-.49-1.08-1.08-1.08Zm17.47,0c-.6,0-1.08,.49-1.08,1.08s.49,1.08,1.08,1.08,1.08-.49,1.08-1.08-.49-1.08-1.08-1.08Zm-52.4,23.37c-.6,0-1.08,.49-1.08,1.08s.49,1.08,1.08,1.08,1.08-.49,1.08-1.08-.49-1.08-1.08-1.08Zm17.47,0c-.6,0-1.08,.49-1.08,1.08s.49,1.08,1.08,1.08,1.08-.49,1.08-1.08-.49-1.08-1.08-1.08Z"/>
  <g>
    <path class="cls-15" d="M854.04,533.5c7.15-1.62,14.21-3.62,21.27-5.64,7.06-2.02,14.12-4.03,21.13-6.23,3.96-1.24,7.93-2.46,11.84-3.84,.1-.04,.07-.22-.04-.19-7.14,1.62-14.22,3.59-21.27,5.56-7.07,1.98-14.13,4.03-21.16,6.14-3.97,1.2-7.93,2.46-11.84,3.84-.19,.07-.13,.41,.08,.36Z"/>
    <path class="cls-15" d="M854.22,518.23c-1,.11-1.99,.31-2.98,.5-.15,.03-.27,.18-.31,.32-1.1,3.72-1.88,7.57-2.65,11.38-.76,3.75-1.44,7.52-2.06,11.3-.34,2.04-.63,4.07-.86,6.12-1.21,2.5-2.01,5.13-2.22,7.92-.01,.14,.23,.17,.25,.03,.31-2.43,.93-4.85,1.89-7.12-.52,5-.59,10,.4,15,0,.03,.05,.02,.05-.01-1.26-7.4,.6-15.12,1.82-22.4,.61-3.65,1.3-7.28,2.01-10.92,.71-3.62,1.56-7.22,2.22-10.85,.85-.32,1.7-.64,2.52-1.02,.12-.06,.05-.26-.07-.24Z"/>
  </g>
  <g>
    <g>
      <path class="cls-30" d="M788.85,453.14c-.33,2.12-9.27,16.34-18.81,16.59-3.11,.08-4.28-16.86-4.28-16.86l-.37-1.23-5.2-17.23,19.61-14.71,2.85-1.97s1.11,4.81,2.44,10.81c.06,.28,.13,.56,.19,.85,.08,.34,.17,.66,.23,.97,.21,.89,.42,1.81,.61,2.72,.15,.7,.29,1.37,.42,2.11,.15,.74,.28,1.45,.42,2.19,1.3,7.28,2.03,14.86,1.9,15.76Z"/>
      <path class="cls-15" d="M788.67,449.92c-13.26,2.37-20.92-.75-24.89-3.55l-3.6-11.97,19.61-14.71,2.84-1.96s1.12,4.8,2.44,10.8c.06,.27,.13,.56,.19,.86,.08,.33,.18,.65,.24,.97,.21,.89,.41,1.8,.61,2.72,.14,.69,.29,1.37,.41,2.1,.16,.73,.29,1.45,.43,2.18,.84,4.67,1.43,9.46,1.72,12.54Z"/>
    </g>
    <g>
      <path class="cls-30" d="M798.31,406.15c5.97,31.02-11.94,38.1-18.63,39.38-6.07,1.16-26.9,4.34-36.04-25.9-9.14-30.24,3.4-42.82,17.15-46.21,13.75-3.39,31.56,1.71,37.52,32.73Z"/>
      <g>
        <path class="cls-15" d="M792.45,400.21c-.75,.02-1.44-.09-2.18-.15-.83-.07-1.51-.04-2.19-.58-.37-.29-.44-.98-.19-1.36,.58-.89,1.63-1.06,2.63-1.02,1.09,.04,1.93,.36,2.74,1.08,.79,.7,.16,2.01-.82,2.03Z"/>
        <path class="cls-15" d="M770.26,402.06c.73-.17,1.37-.46,2.07-.7,.79-.28,1.45-.42,1.97-1.12,.28-.37,.17-1.06-.17-1.36-.79-.71-1.84-.61-2.81-.32-1.05,.32-1.77,.84-2.38,1.75-.59,.88,.36,1.99,1.31,1.76Z"/>
        <g>
          <g>
            <path class="cls-15" d="M776.97,410.74c-.03-.08-.15,.13-.14,.21,.37,2.12,.45,4.61-1.38,5.59-.06,.03-.03,.14,.04,.12,2.3-.67,2.17-3.97,1.48-5.92Z"/>
            <path class="cls-15" d="M774.75,408.79c-3.46,.23-2.74,7.14,.47,6.92,3.16-.21,2.43-7.12-.47-6.92Z"/>
          </g>
          <path class="cls-15" d="M773.43,409.3c-.56,.45-1.08,1.21-1.8,1.35-.83,.17-1.54-.49-2.17-1.12-.06-.07-.12,0-.11,.09,.12,1.33,.77,2.63,2.21,2.68,1.31,.04,2.12-1.22,2.31-2.59,.04-.25-.22-.59-.44-.41Z"/>
        </g>
        <g>
          <g>
            <path class="cls-15" d="M789.4,408.58c0-.08,.18,.08,.19,.17,.18,2.14,.74,4.57,2.75,5.06,.06,.02,.07,.12,0,.12-2.4-.06-3.11-3.29-2.93-5.35Z"/>
            <path class="cls-15" d="M791.06,406.13c3.41-.65,4.46,6.21,1.31,6.82-3.11,.6-4.16-6.27-1.31-6.82Z"/>
          </g>
          <path class="cls-15" d="M792.56,406.36c.6,.28,1.24,.86,1.89,.8,.76-.07,1.2-.89,1.57-1.68,.04-.08,.1-.03,.12,.06,.24,1.31,.01,2.74-1.21,3.18-1.11,.41-2.13-.59-2.64-1.85-.1-.23,.03-.63,.27-.52Z"/>
        </g>
        <path class="cls-15" d="M779.45,427.37c.54,.47,1.1,1.13,1.88,1.15,.75,.02,1.61-.37,2.28-.68,.07-.03,.14,.04,.1,.1-.51,.86-1.65,1.44-2.66,1.33-.98-.11-1.51-.92-1.8-1.8-.04-.12,.12-.18,.2-.11Z"/>
        <path class="cls-15" d="M787.48,418.61s.81,3.14,.99,4.64c.02,.14-.34,.25-.85,.34-.02,.01-.04,.02-.06,0-2.61,.73-5.39,.12-7.26-1.86-.12-.14,.05-.31,.2-.23,2.15,1.23,4.39,1.35,6.75,1.11,.06-.43-1.57-5.33-1.34-5.38,.82-.17,2.5,.2,3.51,.38-1.5-6.59-4.05-12.88-5.45-19.47-.05-.24,.29-.35,.38-.14,3.14,6.41,5.03,13.95,6.76,20.72,.22,.84-3.01,.07-3.64-.11Z"/>
      </g>
      <path class="cls-15" d="M744.91,419.9c7.79-.9,8.15-25.07,8.16-28.04,.09,1.87,.6,11.77,1.39,12.11,.2,.08,1.06-.17,2.41-.66h.02c-.09-1.12-.09-2.34,0-3.56,.02-.55,.3,1.17,.77,3.28,.43-.16,.9-.34,1.41-.52-.23-2.12-.31-4.77,.15-7.57,.16-.95,.74,3.23,1.92,6.83,5.27-1.88,12.9-4.41,20.15-5.23,1.94-.23,3.62-.34,5.12-.38-.22-2.92-.8-6-.54-5.35,.8,1.85,1.32,3.73,1.65,5.32,.81-.02,1.56-.02,2.23,0-.13-4.14-2.61-10.56-1.87-9.6,2.83,3.7,4.21,7.7,4.78,9.83,2.85,.32,3.67,.81,3.69,.07,.03-1.33-2.49-12.73-12.14-20.47-10.49-8.41-30.14-9.18-39.99,5.85,0,0-8.57,6.62-9.24,16.23-.67,9.6,5.41,22.37,9.91,21.86Z"/>
      <g>
        <path class="cls-8" d="M773.41,422.63c-4.34,.14-8.4-2.67-9.65-7.03-1.48-5.16,1.5-10.56,6.66-12.04,5.16-1.49,10.56,1.5,12.04,6.65h0c1.48,5.15-1.5,10.56-6.65,12.04-.8,.23-1.6,.35-2.39,.38Zm-.57-18.15c-.69,.02-1.38,.13-2.07,.33-4.47,1.29-7.05,5.97-5.77,10.43,1.29,4.46,5.97,7.06,10.43,5.76,4.47-1.29,7.05-5.97,5.77-10.43-1.09-3.78-4.6-6.21-8.36-6.09Z"/>
        <path class="cls-8" d="M795.48,419.22c-3.72,.12-7.22-3.59-7.97-8.61-.38-2.53-.01-5.03,1.03-7.03,1.08-2.07,2.75-3.37,4.7-3.66,1.96-.3,3.93,.46,5.56,2.13,1.58,1.61,2.66,3.89,3.04,6.42,.79,5.31-1.78,10.1-5.73,10.69-.21,.03-.42,.05-.64,.06Zm-1.55-18.06c-.16,0-.33,.02-.49,.04-1.53,.23-2.86,1.28-3.74,2.97-.91,1.76-1.23,3.97-.9,6.24,.69,4.6,3.87,7.95,7.12,7.46,3.24-.48,5.32-4.62,4.63-9.21-.34-2.26-1.29-4.29-2.68-5.71-1.19-1.21-2.58-1.84-3.95-1.8Z"/>
        <path class="cls-8" d="M782.3,411.37l-.97-.86c1.28-1.44,4.41-3.6,7.13-1.43l-.81,1.02c-2.44-1.94-5.23,1.14-5.35,1.28Z"/>
        <path class="cls-8" d="M741.75,420.32l-1.23-.42c.2-.57,2-5.63,4.8-6.53,2.62-.83,18.15-1.86,18.9-1.9l.07,1.3c-5.01,.27-16.55,1.19-18.57,1.84-1.85,.59-3.49,4.32-3.96,5.71Z"/>
      </g>
      <g>
        <path class="cls-30" d="M750.02,420.27s-7.88-9.1-12.07-6.19c-4.2,2.91,2.44,16.59,7.86,17.99,5.43,1.4,6.82-3.6,6.82-3.6l-2.61-8.21Z"/>
        <path class="cls-15" d="M739.95,417.96c-.08,0-.09,.12-.01,.14,3.82,1.1,6.1,4.3,7.82,7.68-1.23-1.24-2.79-1.83-4.47-.35-.09,.08,.02,.22,.12,.19,1.47-.48,2.58-.33,3.72,.77,.81,.78,1.41,1.8,2.02,2.73,.21,.31,.78,.07,.61-.29-.01-.03-.03-.05-.04-.08-.39-4.68-4.7-10.84-9.77-10.79Z"/>
      </g>
      <g>
        <path class="cls-15" d="M743.5,379.16c-.13,2.31-11.11,7.87-18.99,1.96-7.76-5.82-4.59-17.63,6.18-16.47,6.8,.73,13.1,9.62,12.82,14.51Z"/>
        <path class="cls-15" d="M720.52,370.68c1.19-2.91,3.42-5.24,5.99-6.67,2.6-1.44,5.69-1.48,8.18,0,2.57,1.39,4.52,3.82,6.05,6.43,.75,1.33,1.38,2.73,1.88,4.18,.52,1.45,.91,2.96,.87,4.54,.43-1.54,.21-3.19-.05-4.76-.32-1.57-.81-3.12-1.5-4.58-1.37-2.9-3.44-5.67-6.41-7.32-1.48-.81-3.21-1.31-4.93-1.22-1.72,.09-3.38,.66-4.77,1.57-2.78,1.8-4.77,4.7-5.31,7.83Z"/>
      </g>
    </g>
  </g>
  <g>
    <path class="cls-30" d="M732.66,603.51c-.18,.04-.35,.09-.53,.13h-.01c.18-.06,.37-.09,.54-.13Z"/>
    <g>
      <path class="cls-10" d="M682.25,593.63c-.07,.38-.15,.75-.19,1.13,.01-.07,.01-.15,.03-.22,.04-.31,.1-.6,.16-.91Z"/>
      <path class="cls-10" d="M682.25,593.63c-.07,.38-.15,.75-.19,1.13,.01-.07,.01-.15,.03-.22,.04-.31,.1-.6,.16-.91Z"/>
      <path class="cls-10" d="M735.06,609.01h0c-.56,.15-1.1,.28-1.65,.4,.54-.13,1.1-.26,1.65-.4Z"/>
    </g>
  </g>
  <path class="cls-24" d="M682.25,593.63c-.07,.38-.15,.75-.19,1.13,.01-.07,.01-.15,.03-.22,.04-.31,.1-.6,.16-.91Z"/>
  <g>
    <path class="cls-1" d="M228.98,467.18c8.87,13.11,55.22,75.89,80.22,74.95,30.28-1.14,67.27-13.24,82.67-23.68,8.63-5.85-21.24-47.72-29.65-43.44-13.26,6.75-44.1,16.5-49.43,17.67-5.33,1.17-43.98-27.7-67.22-40.36-20.93-11.4-22.84,5.62-16.59,14.86Z"/>
    <g>
      <g>
        <path class="cls-1" d="M390.38,518.92c5.72-2.39,35.9-17.19,42.1-22.45,6.2-5.26,22.93-21.7,19.38-26.85-3.55-5.15-8.83-.73-8.83-.73,0,0,5.97-8.06,1.92-12.92-4.04-4.86-12.04,2.28-12.04,2.28,0,0,5.52-8.72,1.14-13.29-4.38-4.56-11.22,3.97-11.22,3.97,0,0,5.42-7.74,.23-9.98-6.24-2.69-14.63,12.71-21.91,18-1.65,1.2-35.23,21.99-35.23,21.99l24.44,39.98Z"/>
        <g>
          <path class="cls-15" d="M423.44,448.21c-6.19,11.31-10.86,15.19-21.96,21.35-.22,.12-.09,.47,.15,.36,11.42-5.04,17.97-9.06,22.37-21.44,.22-.61-.27-.81-.56-.27Z"/>
          <path class="cls-15" d="M433.39,457.34c-7.46,11.19-12.48,15.43-23.63,22.74-.16,.1,0,.38,.17,.29,11.54-6.25,17.98-10.41,23.97-22.57,.27-.55-.16-.98-.51-.46Z"/>
          <path class="cls-15" d="M442.45,469.24c-8,10.31-13.31,15.2-25.05,20.91-.28,.13-.11,.55,.18,.44,12.53-4.65,19.2-10.71,25.15-21.08,.41-.71,.22-.93-.29-.28Z"/>
        </g>
      </g>
      <g>
        <path class="cls-1" d="M353.72,482.93s5.76-15.09,9.76-21.17c4-6.07,27.21-23.22,31.2-18.42,5.15,6.2-6.3,18.74-12.72,24.15,0,0,11.93,14.34,5.65,25.12-6.27,10.78-33.9-9.69-33.9-9.69Z"/>
        <path class="cls-15" d="M395.54,445.52c.62,9.04-8.26,15.6-14.09,21.31-.44,.43-.25,.94,.15,1.22,4.6,6.34,9.24,16.63,6.51,24.44-.08,.23,.23,.37,.34,.15,4.06-7.98,.32-18.46-5.16-25.08,6.07-5.76,14.68-12.73,12.32-22.05-.01-.05-.09-.05-.09,.01Z"/>
      </g>
    </g>
  </g>
  <path class="cls-28" d="M351.9,477.36l26.7,53.5s-58.52,22.65-81.3,9.92c-22.78-12.73-58-56.46-65.33-66.44-16.04-21.83-3.45-33.28,14.44-22.14,17.89,11.14,62.16,38.32,65,39.08,2.84,.77,40.49-13.91,40.49-13.91Z"/>
  <path class="cls-18" d="M292.27,537.6c-22.61-15.6-53.49-54-60.29-63.27-14.56-19.82-5.54-31.07,9.64-24.63l50.65,87.91Z"/>
  <path class="cls-22" d="M364.19,532.29c-3.4-5.88-6.48-11.95-9.54-18.02-3.07-6.08-6.14-12.15-9.06-18.31-1.65-3.48-3.32-6.95-4.84-10.48-.04-.09,.1-.18,.16-.09,3.39,5.87,6.5,11.93,9.6,17.97,3.11,6.06,6.15,12.15,9.14,18.27,1.69,3.46,3.31,6.95,4.84,10.48,.08,.17-.19,.35-.29,.18Z"/>
  <path class="cls-28" d="M281.88,571.02c-16.57,10.48-36.22,16.56-57.28,16.56-25.06,0-48.12-8.59-66.38-23.01,5.86-30.48,20.27-82.5,50.11-116.78,8.33-9.58,31.04-6.77,33.68-2.93,17.81,25.88,33.62,93.39,39.87,126.16Z"/>
  <g>
    <polygon class="cls-27" points="257.57 593.2 323.13 608.58 357.28 518.71 291.73 503.33 257.57 593.2"/>
    <polygon class="cls-17" points="260.79 593.96 326.35 609.34 360.5 519.47 294.95 504.09 260.79 593.96"/>
    <path class="cls-8" d="M320.21,554.67c-1.13,3.45-4.91,5.58-8.43,4.75-3.52-.83-5.46-4.29-4.32-7.74,1.13-3.45,4.91-5.58,8.43-4.75,3.52,.83,5.46,4.29,4.32,7.74Z"/>
  </g>
  <g>
    <path class="cls-1" d="M196.52,460.08c-18.96,26.39-59.74,86.67-47.7,100.59,19.78,22.9,68.07,42.95,83.2,47.48,6.53,1.96,29.9-45.49,23.75-49.4-7.39-4.68-54.7-23.27-54.93-25.56-.25-2.52,8.6-34.98,11.51-60.6,3.61-31.8-7.92-23.54-15.83-12.53Z"/>
    <g>
      <path class="cls-1" d="M231.98,555.44s19.9-5.83,33.09-9.04c7.36-1.79,20.25-3.73,26.26-2.57,8.99,1.74,45.46,14.73,42.5,23.64-2.68,8.07-32.6-7.08-32.6-7.08,0,0,31.54,12.61,26.53,21.73-5.01,9.12-36.54-12.49-36.54-12.49,0,0,32.11,13.68,25.46,22.27-5.03,6.49-34.69-11.47-34.69-11.47,0,0,27.52,11.95,22.64,18.85-5.4,7.62-33.81-7.24-33.81-7.24-15.37,15.44-28.71,17.49-38.79,16.1-2.35-.32-.04-52.72-.04-52.72Z"/>
      <g>
        <path class="cls-15" d="M292.07,555.98c23.94,7.52,33.38,18.54,33.07,18.29-7.32-5.72-20.21-11.92-23.84-13.6-3.62-1.67-5.68-2.89-9.3-4.56-.09-.04-.02-.16,.07-.14Z"/>
        <path class="cls-15" d="M284.31,568.32c11.56,2.82,23.62,9.76,27.4,12.8,.3,.25,.13,.31-.22,.14-4.55-2.26-22.59-10.79-27.23-12.82-.07-.03-.02-.13,.05-.11Z"/>
        <path class="cls-15" d="M276.91,578.49c10.15,3.3,14.36,5.8,20.92,10.53,.31,.23,.04,.33-.31,.14-6.89-3.63-12.27-6.53-20.7-10.42-.13-.06-.07-.31,.09-.26Z"/>
      </g>
    </g>
  </g>
  <path class="cls-28" d="M241.22,551.42l-26.63,56.8s-63.49-34.21-68.29-50.3c-4.79-16.09,38.38-86.79,51.5-101.21,13.11-14.43,17.37-8.51,17,7.95-.37,16.46-13.3,67.75-12.99,68.71,.31,.96,39.41,18.06,39.41,18.06Z"/>
  <path class="cls-15" d="M206.53,509.13c.86-3.85,1.7-7.7,2.52-11.55,.42-2,.84-4.01,1.29-6.01,.21-.92,.41-1.84,.62-2.76,.1-.46,.25-.91,.33-1.38,.28-1.69,.03-.19,.46-1.83,.03-.1,.2-.08,.19,.03-.11,1.06,.11,.64-.1,1.44-.15,.6-.22,1.21-.31,1.82-.14,.93-.29,1.86-.44,2.79-.3,1.91-.65,3.81-1.01,5.71-.05,.25-.1,.5-.15,.75,.02-.07,.04-.14,.07-.21,.71-2.06,1.43-4.11,2.16-6.16,.03-.09,.17-.05,.14,.04-.49,2.13-1.05,4.21-1.73,6.29-.4,1.2-.86,2.37-1.34,3.53-.5,2.53-.99,5.07-1.52,7.6-1.65,7.82-3.36,15.69-5.63,23.36,3.32,1.52,6.72,2.88,10.04,4.41,3.33,1.53,6.64,3.11,9.95,4.69,3.31,1.57,6.63,3.13,9.91,4.76,1.57,.78,3.12,1.59,4.68,2.38,1.7,.86,3.3,1.92,5.01,2.74,.17,.08,.02,.34-.16,.26-1.78-.82-3.68-1.41-5.48-2.19-1.58-.69-3.17-1.36-4.74-2.06-3.35-1.5-6.67-3.06-10-4.61-3.32-1.55-6.65-3.1-9.95-4.69-3.3-1.59-6.51-3.34-9.8-4.93-.12-.06-.18-.15-.21-.24-.13-.1-.22-.24-.18-.44,1.64-7.88,3.64-15.69,5.4-23.54Z"/>
  <path class="cls-15" d="M214.74,573.83c1.98-4.11,10.03-20.52,12.34-24.44,.04-.06,.15-.02,.12,.05-1.47,4.17-8.94,20.59-10.92,24.72-3.94,8.22-7.74,16.58-12.57,24.33-.09,.14-.34,.06-.28-.11,3.21-8.42,7.39-16.44,11.3-24.55Z"/>
  <path class="cls-15" d="M168.89,580.13c1.45,.83,2.83,1.86,4.2,2.82,1.43,1,2.87,1.98,4.31,2.98,2.81,1.96,5.64,3.98,8.63,5.66,.17,.09,.01,.35-.16,.26-3.03-1.74-6.12-3.35-9.06-5.26-2.8-1.81-5.76-3.83-8.08-6.26-.1-.11,.03-.27,.16-.2Z"/>
  <g>
    <g>
      <g>
        <path class="cls-1" d="M239.19,465.47c-6.99,2.52-20.58-7.07-26.46-15.42-.4-.57-.19-7.11-.32-15.07-.1-4.83-.32-10.2-.87-15.09l31.51,3.97s-1.85,10.59-.83,19.11c.09,.71,.24,1.37,.44,1.98,.02,.09,.06,.2,.08,.33,1.05,3.74,3.21,17.75-3.55,20.19Z"/>
        <path class="cls-15" d="M242.21,442.96c.08,.62,.21,1.18,.37,1.72-15.44-.86-24.94-8.11-30.31-14.31-.13-3.49-.35-7.11-.73-10.48l31.5,3.97s-1.85,10.6-.83,19.1Z"/>
      </g>
      <g>
        <path class="cls-1" d="M200.92,386.21c-1.37,11.36,9.85,41.47,18.74,47.05,12.9,8.09,31.26,5.82,37.43-9.06,5.99-14.42-9.33-53.4-19.01-58.19-14.26-7.05-35.13,3.42-37.16,20.2Z"/>
        <g>
          <g>
            <path class="cls-15" d="M232.82,398.82c-.04-.07-.12,.16-.09,.24,.81,2.01,1.4,4.44-.19,5.79-.05,.04,0,.14,.06,.11,2.13-1.14,1.31-4.37,.22-6.14Z"/>
            <path class="cls-15" d="M230.23,397.37c-3.36,.95-1.21,7.6,1.9,6.72,3.06-.87,.91-7.52-1.9-6.72Z"/>
          </g>
          <g>
            <path class="cls-15" d="M245.21,394.41c-.01-.08,.19,.05,.22,.13,.6,2.08,1.64,4.36,3.72,4.44,.06,0,.09,.11,.02,.12-2.38,.42-3.72-2.63-3.96-4.69Z"/>
            <path class="cls-15" d="M246.35,391.67c3.23-1.32,5.64,5.24,2.65,6.46-2.95,1.21-5.35-5.35-2.65-6.46Z"/>
          </g>
          <path class="cls-15" d="M226.62,395.18c.83-.52,1.51-1.14,2.28-1.74,.87-.68,1.63-1.13,1.99-2.22,.19-.59-.23-1.39-.78-1.63-1.28-.56-2.55,0-3.63,.78-1.17,.84-1.86,1.78-2.23,3.17-.37,1.34,1.27,2.33,2.37,1.64Z"/>
          <path class="cls-15" d="M247.84,387.49c-.97,.15-1.89,.12-2.86,.17-1.1,.05-1.97,.21-2.95-.38-.53-.32-.73-1.2-.47-1.74,.61-1.26,1.94-1.66,3.26-1.78,1.43-.13,2.57,.14,3.76,.95,1.15,.78,.55,2.59-.73,2.79Z"/>
          <path class="cls-15" d="M237.61,418.09c.65,.32,1.36,.83,2.12,.65,.74-.17,1.47-.77,2.05-1.23,.06-.05,.15,0,.12,.08-.28,.96-1.24,1.82-2.25,1.96-.99,.14-1.71-.52-2.21-1.3-.07-.11,.07-.2,.17-.16Z"/>
          <path class="cls-15" d="M237.79,411.22c1.73,1.41,3.74,1.84,5.69,1.61,.87-.1,1.74-.35,2.56-.7,.16-.06,.32-.13,.46-.21,.14-.07,.27-.13,.43-.22,.23-.11,.3-.35,.26-.59v-.02c-.03-.07-.05-.13-.09-.2v-.02s-.07-.18-.07-.18c-.47-1.6-1.4-3.96-1.4-3.96,.67,.1,4.06,.48,3.74-.34-2.63-6.73-5.55-14.2-9.58-20.34-.12-.21-.45-.05-.36,.17,2.27,6.56,5.68,12.68,8.06,19.24-1.06-.05-2.81-.22-3.63,.07-.2,.14,1.89,4.53,2.04,5.27,0,0,.01,.03,.01,.08-2.55,1.2-4.82,1.05-7.99,.09-.19-.07-.31,.12-.13,.25Z"/>
          <g>
            <path class="cls-15" d="M244.87,411.9s-.9,2.31-2.66,3.54c-.65,.46-1.39,.77-2.26,.78-1.79,.02-2.25-1.5-2.3-2.89-.05-1.14,.2-2.21,.2-2.21,0,0,3.06,1.61,7.03,.78Z"/>
            <path class="cls-26" d="M242.22,415.44c-.65,.46-1.39,.77-2.26,.78-1.79,.02-2.25-1.5-2.3-2.89,1.84-.31,3.94,.42,4.57,2.11Z"/>
          </g>
        </g>
        <g>
          <path class="cls-15" d="M211.53,409.86c5.21-1.85,.96-14.67,.96-14.67,0,0,7.68-3.79,8.43-16.04,0,0,12.3,3.53,20.58-.58,12.97-6.44,7.46-24.13,1.29-26.27-8.74-3.04-19.52,8.18-19.52,8.18,0,0-21.15,.2-23.15,15.13,0,0-8.62,2.9-6.44,12.72,2.18,9.82,13.97,22.91,17.85,21.54Z"/>
          <path class="cls-15" d="M211.03,397.27c3.67-1.89,6.85-4.76,8.61-8.54,1.82-3.91,2.01-9.16-.34-12.88-.13-.2,.21-.39,.33-.18,2.28,4.24,3.36,8.97,1.58,13.62-1.63,4.26-5.45,7.71-10.03,8.37-.22,.03-.36-.27-.14-.38Z"/>
          <path class="cls-15" d="M191.35,382.88c1.71-4.19,5.67-5.92,9.78-6.95,.24-.06,.32,.33,.08,.37-4.14,.7-7.4,4.54-8.54,8.42-1.12,3.8,.52,7.72,2.37,11.02,3.55,6.35,9.33,11.33,16.25,13.66,.11,.04,.06,.21-.06,.18-7.74-2.27-14.46-7.63-18.1-14.87-1.78-3.53-3.36-7.96-1.79-11.83Z"/>
          <path class="cls-15" d="M222.92,361.28c1.04-3.34,2.92-6.08,5.85-7.93,3.38-2.13,7.77-2.86,11.69-2.13,3.33,.62,5.81,3.13,6.96,6.32,1.31,3.64,.59,7.63-.66,11.14-.04,.1-.19,.05-.16-.05,.9-3.24,1.3-6.73,.15-9.99-1.15-3.23-3.68-5.48-7.02-5.94-6.34-.87-14.44,1.91-16.46,8.69-.07,.23-.42,.12-.35-.11Z"/>
        </g>
        <g>
          <path class="cls-1" d="M212.08,410.39s-9-8.64-13.05-5.23c-4.05,3.4,4.1,16.89,9.84,17.82,5.74,.93,6.7-4.36,6.7-4.36l-3.48-8.22Z"/>
          <path class="cls-15" d="M201.46,408.97c-.09,0-.08,.13,0,.15,4.05,.77,6.71,3.86,8.8,7.18-1.39-1.17-3.06-1.62-4.65,.07-.08,.09,.04,.22,.14,.18,1.47-.63,2.63-.59,3.91,.44,.91,.72,1.63,1.73,2.35,2.62,.24,.3,.81,0,.61-.36-.01-.03-.03-.05-.05-.08-.85-4.79-5.89-10.74-11.11-10.2Z"/>
        </g>
      </g>
    </g>
    <g>
      <path class="cls-8" d="M242.64,444.61l-6.7,18.54-23.46-22.13-6.12,7.62s23.48,35.69,23.55,34.03l6.89-15.95,11.23,10.49-1.92-27.33-3.48-5.27Z"/>
      <path class="cls-15" d="M247.85,463.65c-.47-4.5-.81-9.05-1.49-13.52-.02-.16-.28-.22-.31-.03-.74,4.39,1.14,21.59,1.28,25.73-.02-.01-.03-.03-.05-.05-.47-.45-10.39-9.21-10.47-9.06-1.53,2.55-6.59,14.16-6.93,15.22-3.71-5.67-17.91-26.25-22.25-31.58-.12-.15-.36-.01-.26,.17,3.32,6.01,22.12,33.74,22.39,33.65,.19,.14,6.49-14.17,7.2-16.86,1.7,1.93,11.75,11.85,11.75,11.17,.05-4.54-.39-10.33-.86-14.84Z"/>
    </g>
  </g>
  <g>
    <path class="cls-13" d="M864.84,109.39c-5.17,14.96-26.45,88.7-40.66,92.83-23.16,6.74-40.81,4.57-59.25,5.02-10.42,.26-26.59-49.83-17.16-50.09,15.03-.42,49.16,2.21,54.62,1.95,5.45-.25,25.76-42.24,44.92-60.48,17.26-16.44,21.18,.22,17.54,10.76Z"/>
    <g>
      <path class="cls-13" d="M770.9,205.9c-.85,.33-12.88,4.9-20.17,6.23-5.44,.99-21.16,3.41-22.84-2.47-1.15-4.01,7.93-6.52,14.31-8.44,3.36-1.01,7.68-3.98,6.94-6.15-1.29-3.79-9.96-1.01-15.74,1.6-11.18,5.05-26.38,14.63-32.27,8.62-2.23-2.27,.98-5.67,5.49-8.86-7.15,3.52-14.67,6.24-17.24,3.81-1.48-1.38-1.38-3.07-.29-4.89-2.14,.46-3.96,.14-5.1-1.34-1.95-2.51-.54-5.77,2.21-8.98-.76-.16-1.41-.62-1.85-1.51-3.9-7.52,21.32-25.38,29.52-26.45,24.12-3.17,48.82,.42,48.82,.42,8.49,8.34,8.23,48.39,8.21,48.4Z"/>
      <g>
        <path class="cls-15" d="M738.51,180.67c-5.63,.3-11.31,1.81-16.33,4.43-6.37,3.32-10.81,7.53-16.29,11.66-.14,.11,.02,.34,.16,.23,2.61-1.96,13.35-9.24,16.1-10.87,5.04-2.97,10.52-4.86,16.36-5.35,.06,0,.05-.1-.01-.1Z"/>
        <path class="cls-15" d="M735.15,170.23c-6.36,1.05-12.88,2.11-18.92,4.45-6.61,2.56-12.07,7.27-17.42,11.8-3.21,2.72-6.37,5.5-9.46,8.37-.13,.12,.03,.35,.16,.23,5.44-4.69,11.02-9.21,16.74-13.56,5.38-4.09,11.21-7.04,17.74-8.79,3.68-.98,7.43-1.69,11.17-2.38,.07-.01,.06-.12-.01-.11Z"/>
        <path class="cls-15" d="M729.44,160.81c-6.14,.62-11.49,1.13-17.15,3.81-7.49,3.54-15.03,10.03-17.68,12.33-2.93,2.54-5.76,5.18-8.56,7.86-.11,.11,.07,.31,.19,.2,6.37-5.84,13.14-11.31,20.21-16.28,3.38-2.37,6.99-4.37,10.94-5.61,3.91-1.23,8.01-1.73,12.05-2.27,.03,0,.02-.04,0-.04Z"/>
      </g>
    </g>
  </g>
  <path class="cls-21" d="M804.3,149.47l37.3,45.16s21.58-59.55,25.96-85.92c4.56-27.48-4.55-35.68-27.81-7.06-22.92,28.2-35.44,47.81-35.44,47.81Z"/>
  <path class="cls-8" d="M839.56,106.35c-.5-.06-.88-.2-1.26-.44-.47-.32-.81-.76-.97-1.26-.29,.35-.58,.7-.84,1.05,.35,.5,.82,.9,1.37,1.1,.53,.24,1.2,.27,1.7,.18,.53-.12,1.03-.18,1.54-.32-.5-.15-1-.21-1.54-.3Zm-8.78,70.84c-.5-.06-.88-.18-1.26-.41-.71-.47-1.13-1.25-1.1-2.07-.03-1.29-.88-2.48-2.04-2.89-.55-.26-1.23-.23-1.7-.12-.53,.12-1.03,.18-1.57,.3,.53,.17,1.03,.23,1.57,.32,.53,.06,.91,.15,1.29,.38,.71,.44,1.16,1.22,1.16,2.01,0,1.25,.79,2.51,1.95,2.95,.53,.24,1.2,.24,1.7,.15,.53-.09,1.03-.15,1.57-.3-.53-.14-1.03-.2-1.57-.32Zm35.03-76.54c-.26,.53-.29,1.22-.2,1.72,.12,.5,.2,1,.32,1.54,.15-.53,.21-1.03,.32-1.54,.06-.53,.18-.91,.43-1.28,.44-.65,1.13-1.08,1.9-1.11,.05-.44,.06-.87,.08-1.28-1.2,.03-2.42,.81-2.84,1.95Zm-31.62,37.77c-.09-.53-.17-1.03-.32-1.54-.12,.5-.18,1-.32,1.54-.06,.53-.15,.91-.37,1.29-.44,.71-1.23,1.19-2.01,1.16-1.23,0-2.53,.79-2.95,1.95-.23,.53-.26,1.2-.17,1.7,.09,.53,.17,1.03,.32,1.57,.15-.53,.21-1.03,.3-1.57,.08-.5,.2-.88,.44-1.26,.47-.71,1.23-1.13,2.08-1.1,1.25-.03,2.48-.88,2.89-2.04,.21-.53,.18-1.23,.09-1.7Zm15.41-17.69c-.41,.32-.76,.5-1.2,.59-.84,.17-1.66-.06-2.22-.68-.91-.88-2.39-1.13-3.48-.59-.56,.21-1,.71-1.29,1.13-.29,.44-.62,.85-.88,1.32,.47-.29,.88-.59,1.32-.88,.41-.35,.76-.53,1.19-.62,.82-.23,1.7,0,2.27,.56,.85,.91,2.3,1.22,3.42,.71,.56-.21,1.03-.65,1.35-1.1,.29-.44,.59-.85,.85-1.32-.47,.29-.88,.61-1.32,.88Zm2.83,36.26c-.91-.88-2.39-1.13-3.48-.59-.56,.21-1,.71-1.29,1.13-.27,.44-.62,.85-.88,1.32,.47-.29,.88-.61,1.32-.88,.41-.35,.76-.53,1.19-.62,.82-.23,1.7,0,2.27,.56,.58,.62,1.43,.96,2.27,.96l.37-1.14c-.67,.02-1.29-.23-1.75-.73Zm-42.8-4.23c-.41,.35-.75,.5-1.19,.59-.3,.06-.62,.08-.91,.02l.87,1.05c.12-.03,.23-.08,.35-.12,.56-.21,1.03-.65,1.35-1.1,.29-.44,.59-.85,.85-1.32-.47,.29-.88,.59-1.32,.88Z"/>
  <path class="cls-15" d="M842.72,181.21c-.82-1.23-1.81-2.36-2.74-3.51-.95-1.18-1.9-2.37-2.85-3.56-1.92-2.41-3.89-4.78-5.86-7.15-3.95-4.72-7.87-9.46-11.9-14.12-1.11-1.28-2.22-2.56-3.36-3.81-1.2-1.32-2.49-2.55-3.69-3.86-.07-.08-.19,.03-.12,.12,.94,1.2,1.78,2.48,2.72,3.68,.96,1.23,1.94,2.46,2.93,3.67,1.95,2.38,3.92,4.75,5.91,7.09,3.92,4.62,7.82,9.26,11.84,13.8,1.12,1.27,2.25,2.52,3.38,3.79,1.17,1.32,2.3,2.74,3.59,3.95,.07,.06,.19-.02,.13-.1Z"/>
  <path class="cls-18" d="M867.56,108.71c-4.38,26.37-25.96,85.93-25.96,85.93l-23.47-28.43,44.3-82.42c5.98,.37,7.66,9.69,5.13,24.92Z"/>
  <path class="cls-21" d="M940.77,229.92c-18.02,13.77-40.55,21.92-64.98,21.92-22.58,0-43.51-6.96-60.79-18.9,7.78-40.25,26.93-126.65,37.25-140.12,2.84-3.7,12.22-4.73,20.19-3.74,2.21,.27,4.32,.7,6.15,1.26,.03,.02,.11,.03,.21,.05,1.85,.61,3.43,1.35,4.51,2.21,16.59,13.24,44.76,95.97,57.46,137.31Z"/>
  <path class="cls-8" d="M932,229.93c-.41,.32-.79,.5-1.19,.59-.85,.17-1.67-.09-2.27-.68-.91-.88-2.36-1.13-3.45-.59-.56,.21-1.03,.71-1.29,1.13-.3,.44-.62,.85-.88,1.32,.47-.29,.88-.59,1.32-.88,.41-.35,.76-.53,1.2-.65,.81-.2,1.69,.03,2.22,.59,.85,.88,2.33,1.22,3.45,.71,.56-.21,1.03-.68,1.32-1.1,.29-.44,.62-.85,.88-1.32-.47,.29-.88,.61-1.32,.88Zm-65.64,16.25c-.41,.32-.79,.5-1.23,.59-.82,.15-1.66-.09-2.22-.68-.91-.91-2.39-1.17-3.5-.61-.53,.23-1,.73-1.28,1.14-.29,.41-.59,.81-.88,1.28,.47-.24,.88-.56,1.32-.87,.44-.32,.78-.5,1.19-.64,.82-.18,1.7,.03,2.27,.61,.84,.87,2.33,1.22,3.42,.71,.56-.21,1.06-.68,1.35-1.1,.27-.44,.59-.85,.84-1.32-.44,.26-.84,.56-1.28,.88Zm23.3-37.62c-.41,.32-.79,.5-1.23,.59-.82,.15-1.66-.09-2.22-.68-.91-.91-2.39-1.17-3.5-.61-.53,.23-1,.73-1.28,1.14-.29,.41-.59,.81-.88,1.28,.47-.24,.88-.56,1.32-.87,.44-.32,.78-.5,1.19-.64,.82-.18,1.7,.03,2.27,.61,.84,.87,2.33,1.22,3.42,.71,.56-.21,1.06-.68,1.35-1.1,.27-.44,.59-.85,.84-1.32-.44,.26-.84,.56-1.28,.88Zm-62.02,4.08c-.41,.35-.79,.53-1.2,.59-.84,.18-1.66-.06-2.25-.65-.91-.91-2.36-1.17-3.45-.64-.56,.26-1.03,.76-1.29,1.14-.23,.3-.44,.61-.64,.91-.02,.09-.03,.18-.06,.27,.4-.21,.76-.49,1.14-.75,.41-.35,.76-.53,1.19-.64,.82-.18,1.7,.03,2.24,.61,.85,.87,2.33,1.22,3.45,.71,.56-.21,1.03-.68,1.32-1.1,.27-.44,.62-.85,.88-1.32-.47,.26-.88,.56-1.32,.85Zm28.2-55.55c-.41,.35-.76,.5-1.2,.59-.84,.17-1.66-.06-2.22-.68-.91-.88-2.39-1.13-3.48-.59-.56,.21-1,.71-1.29,1.13-.27,.44-.62,.85-.88,1.32,.47-.29,.88-.61,1.32-.88,.41-.35,.76-.53,1.19-.62,.82-.23,1.7,0,2.27,.56,.85,.91,2.3,1.22,3.42,.71,.56-.21,1.03-.65,1.35-1.1,.27-.44,.59-.85,.85-1.32-.47,.29-.88,.59-1.32,.88Zm-6.25-36.35c-.41,.32-.76,.5-1.2,.59-.84,.17-1.66-.06-2.22-.68-.91-.88-2.39-1.13-3.48-.59-.56,.21-1,.71-1.29,1.13-.11,.17-.23,.33-.35,.5-.06,.18-.11,.38-.17,.58,.33-.21,.64-.43,.96-.64,.41-.35,.76-.53,1.19-.62,.82-.23,1.7,0,2.27,.56,.85,.91,2.3,1.22,3.42,.71,.56-.21,1.03-.65,1.35-1.1,.29-.44,.59-.85,.85-1.32-.47,.29-.88,.61-1.32,.88Zm47.88-1.37c-.41,.32-.76,.5-1.19,.59-.85,.17-1.67-.06-2.24-.68-.91-.88-2.39-1.13-3.48-.59-.56,.21-1,.71-1.29,1.13-.27,.44-.62,.85-.88,1.32,.47-.29,.88-.59,1.32-.88,.41-.35,.76-.53,1.2-.62,.81-.23,1.69,0,2.25,.56,.85,.91,2.3,1.22,3.42,.71,.56-.21,1.03-.65,1.35-1.1,.29-.44,.59-.85,.85-1.32-.47,.29-.88,.61-1.32,.88Zm-62.49,120.81c-.12-.53-.18-1.03-.32-1.54-.15,.5-.21,1-.3,1.54-.06,.53-.17,.91-.41,1.29-.4,.65-1.05,1.1-1.76,1.14,.53,.24,1.06,.49,1.6,.7,.49-.37,.88-.87,1.08-1.43,.21-.53,.21-1.23,.12-1.7Zm65.97-91.63c-.12-.5-.18-1-.3-1.54-.17,.53-.23,1.03-.32,1.54-.06,.58-.18,.94-.41,1.32-.44,.73-1.19,1.17-2.01,1.17-1.23-.05-2.48,.78-2.92,1.95-.26,.53-.29,1.19-.15,1.69,.09,.53,.15,1.03,.27,1.54,.17-.5,.23-1,.32-1.54,.06-.5,.21-.88,.44-1.26,.47-.71,1.22-1.13,2.07-1.1,1.29-.03,2.48-.88,2.89-2.04,.21-.56,.18-1.23,.12-1.73Zm-45.94,38.2c-.09-.53-.15-1.03-.3-1.54-.14,.5-.2,1-.32,1.54-.06,.53-.15,.91-.38,1.29-.44,.71-1.22,1.19-2.01,1.16-1.22,0-2.51,.79-2.95,1.95-.21,.53-.26,1.19-.15,1.69,.09,.53,.15,1.03,.3,1.58,.17-.55,.23-1.05,.32-1.58,.06-.5,.18-.87,.44-1.25,.47-.73,1.22-1.14,2.07-1.1,1.26-.05,2.48-.88,2.89-2.05,.21-.53,.18-1.22,.09-1.69Zm16.72-90.48c-.09-.55-.17-1.05-.29-1.55-.15,.5-.21,1-.3,1.55-.08,.53-.2,.9-.41,1.28-.44,.73-1.23,1.2-2.01,1.17-1.23,0-2.48,.78-2.92,1.95-.26,.53-.29,1.22-.2,1.72,.12,.5,.2,1,.32,1.54,.15-.53,.21-1.03,.32-1.54,.06-.53,.18-.91,.43-1.28,.47-.7,1.23-1.14,2.08-1.11,1.28,0,2.48-.88,2.89-2.04,.21-.53,.18-1.22,.09-1.69Zm47.88,78.44c-.44,.35-.79,.53-1.2,.67-.82,.18-1.69-.03-2.27-.61-.84-.87-2.31-1.22-3.42-.71-.56,.21-1.06,.65-1.34,1.1-.29,.44-.61,.85-.88,1.32,.47-.29,.88-.59,1.32-.88,.4-.32,.78-.5,1.19-.59,.85-.15,1.66,.09,2.27,.68,.91,.88,2.36,1.14,3.48,.61,.53-.23,1-.73,1.29-1.14,.27-.44,.59-.85,.84-1.31-.44,.27-.84,.59-1.28,.87Zm6.34,32.38c-.5-.08-.91-.2-1.26-.44-.71-.47-1.13-1.23-1.1-2.08-.03-1.28-.88-2.48-2.04-2.89-.58-.21-1.23-.18-1.73-.09s-1,.17-1.54,.29c.53,.15,1.03,.21,1.54,.3,.56,.08,.94,.2,1.32,.41,.71,.44,1.16,1.2,1.16,2.01-.03,1.23,.79,2.49,1.92,2.92,.56,.26,1.23,.29,1.73,.2,.53-.12,1.03-.2,1.54-.32-.5-.15-1-.21-1.54-.3Zm-95.19-29.89c-.5-.06-.88-.18-1.26-.41-.71-.47-1.13-1.25-1.1-2.07-.02-.64-.23-1.25-.58-1.76-.21,.87-.41,1.72-.61,2.59,.26,.94,.94,1.78,1.84,2.13,.53,.24,1.2,.24,1.7,.15,.53-.09,1.03-.15,1.57-.3-.53-.14-1.03-.2-1.57-.32Zm52.48,3.13c-.5-.06-.88-.2-1.26-.41-.71-.47-1.13-1.26-1.1-2.07-.03-1.29-.88-2.48-2.04-2.89-.53-.26-1.23-.23-1.7-.12-.53,.12-1.03,.18-1.57,.3,.53,.17,1.03,.23,1.57,.32,.55,.06,.91,.15,1.29,.38,.73,.44,1.16,1.22,1.16,2.01,0,1.25,.79,2.51,1.95,2.95,.55,.24,1.2,.24,1.7,.15,.53-.09,1.03-.15,1.57-.32-.53-.12-1.03-.18-1.57-.3Zm-25.46,41.95c-.53-.08-.91-.23-1.29-.44-.68-.47-1.13-1.23-1.1-2.08,0-1.28-.88-2.48-2.04-2.87-.53-.23-1.23-.23-1.7-.14-.53,.14-1.03,.2-1.54,.32,.5,.15,1,.21,1.54,.32,.53,.06,.91,.15,1.29,.4,.71,.44,1.19,1.2,1.19,2.02-.03,1.22,.76,2.48,1.92,2.92,.53,.24,1.23,.24,1.73,.15s1-.15,1.54-.32c-.53-.12-1.03-.18-1.54-.27Zm37.97,16.05c-.55-.08-.91-.2-1.29-.44-.7-.47-1.13-1.23-1.1-2.08,0-1.28-.88-2.48-2.05-2.89-.53-.21-1.22-.18-1.69-.09-.5,.09-1.03,.17-1.54,.29,.5,.15,1.03,.21,1.54,.3,.53,.08,.91,.2,1.29,.41,.71,.44,1.19,1.2,1.19,2.01-.03,1.23,.76,2.49,1.92,2.92,.53,.26,1.22,.29,1.73,.2,.5-.12,1-.2,1.54-.32-.53-.15-1.03-.21-1.54-.3Zm-22.77-99.19c-.5-.08-.88-.2-1.26-.44-.71-.47-1.13-1.23-1.1-2.08-.03-1.25-.88-2.48-2.04-2.89-.58-.21-1.23-.18-1.7-.09-.53,.09-1.03,.17-1.57,.32,.53,.12,1.03,.18,1.57,.29,.53,.06,.91,.18,1.29,.4,.71,.44,1.16,1.23,1.16,2.02,0,1.22,.79,2.51,1.95,2.92,.53,.24,1.2,.27,1.7,.18,.53-.12,1.03-.18,1.54-.32-.5-.15-1-.21-1.54-.3Z"/>
  <path class="cls-13" d="M902.63,109.56c29.32,47.58,56.02,100.43,46.25,113.92-7.88,10.89-79.33,40.07-103.15,41.9-7.57,.58-26.33-55.12-13.8-59.63,3.56-1.28,61.65-12.38,62-13.73,1.12-4.31-6.69-33.36-13.88-66.46-9.26-42.59,10.18-36.14,22.59-16Z"/>
  <path class="cls-13" d="M803.6,215.59c3.54-1.28,5.64-4.09-.71-6.2-6.43-2.15-33.3-5.07-31.47-14.38,1.82-9.35,39.22-2.85,50.1-.26,18.27,4.35,26.43,18.73,26.43,18.73-17.37,1.03-30.66,1.86-44.34,2.12Z"/>
  <path class="cls-15" d="M783.45,190.13c3.6-.33,7.21-.33,10.81-.21,3.61,.1,7.21,.44,10.79,.89,7.15,.96,14.28,2.54,20.96,5.28-1.78-.34-3.5-.84-5.28-1.13-1.75-.4-3.51-.72-5.27-1.03-3.53-.58-7.06-1.19-10.61-1.62-3.55-.48-7.11-.86-10.67-1.23-1.78-.19-3.57-.35-5.36-.49-1.79-.19-3.58-.3-5.38-.46Z"/>
  <g>
    <rect class="cls-16" x="786.95" y="148.8" width="5.54" height="123.72" transform="translate(577.13 999.87) rotate(-89.86)"/>
    <polygon class="cls-15" points="727.87 207.74 727.86 213.28 811.95 213.49 807.73 207.94 727.87 207.74"/>
  </g>
  <polygon class="cls-16" points="802.38 213.47 681.8 213.17 671.96 131.26 792.54 131.55 802.38 213.47"/>
  <path class="cls-8" d="M744.51,172.38c.06,4.05-3.17,7.33-7.23,7.32-4.05-.01-7.39-3.3-7.45-7.36-.06-4.05,3.18-7.33,7.23-7.32,4.05,0,7.39,3.3,7.45,7.36Z"/>
  <g>
    <path class="cls-13" d="M845.59,265.37c-21.27,1.21-51.81-1.93-71.67-15.66-3.9-2.69-4.79-6.2-4.79-6.2-9.01-6-8.88-12.05-8.88-12.05-6.68-8.16-5.7-14.33-5.7-14.33,0,0-10.5-7.16-7.23-14.22,3.64-7.93,17.68,3.67,29.3,5.33,26.62,3.8,66.05,5.64,73.84,5.97l-4.87,51.16Z"/>
    <path class="cls-15" d="M801.69,231.78c-7.81-1.28-15.52-2.33-23.12-4.65-8.34-2.55-15.93-6.41-23.76-10.14-.24-.12-.43,.21-.21,.36,13.1,9,31.18,14.39,47.04,14.79,.38,.01,.45-.29,.05-.36Z"/>
    <path class="cls-15" d="M801.73,248.19c-7.53-1.66-20.75-4.67-41.38-17-.07-.04-.16,.06-.09,.12,12.32,9.78,25.92,15.16,41.38,17.24,.48,.07,.58-.25,.08-.36Z"/>
    <path class="cls-15" d="M801.58,257c-12.7-3.32-20.29-7.01-32.4-13.56-.07-.04-.15,.07-.08,.12,12.99,8.89,18.7,10.64,32.43,13.89,.47,.11,.55-.32,.05-.45Z"/>
  </g>
  <path class="cls-21" d="M889.03,178.56l58.55,1.54s-30.73-55.39-47.74-76.01c-17.72-21.49-29.89-20-23.59,16.34,6.21,35.8,12.78,58.13,12.78,58.13Z"/>
  <path class="cls-8" d="M932.68,154.19c-.26-.05-.52-.08-.78-.14-.53-.06-.91-.21-1.29-.43-.68-.47-1.13-1.23-1.1-2.08,0-1.28-.88-2.48-2.04-2.89-.53-.21-1.23-.21-1.7-.12-.53,.12-1.03,.18-1.54,.32,.5,.15,1,.21,1.54,.3,.55,.06,.91,.17,1.29,.41,.73,.44,1.2,1.2,1.2,2.01-.03,1.23,.75,2.48,1.92,2.92,.53,.26,1.22,.26,1.72,.17,.3-.06,.62-.11,.94-.18,.2-.03,.4-.08,.59-.14-.26-.06-.52-.11-.76-.15Zm-13.05,20.5c-.44,.35-.79,.53-1.2,.67-.82,.18-1.69-.03-2.27-.61-.84-.87-2.31-1.22-3.42-.71-.56,.21-1.06,.65-1.34,1.1-.29,.44-.61,.85-.88,1.32,.47-.29,.88-.59,1.32-.88,.4-.32,.78-.5,1.19-.59,.85-.15,1.66,.09,2.27,.68,.91,.88,2.36,1.14,3.48,.61,.53-.23,1-.73,1.29-1.14,.27-.44,.59-.85,.84-1.31-.44,.27-.84,.59-1.28,.87Zm-3.62-47.66c-.27,.27-.49,.59-.62,.94-.21,.53-.24,1.2-.15,1.7,.09,.53,.15,1.03,.3,1.57,.17-.53,.23-1.03,.32-1.57,.06-.5,.18-.88,.44-1.26,.11-.15,.21-.29,.35-.41-.21-.32-.43-.65-.64-.97Zm-15.04,21.49c-.12-.5-.18-1-.3-1.54-.17,.53-.23,1.03-.32,1.54-.06,.58-.18,.94-.41,1.32-.44,.73-1.19,1.17-2.01,1.17-1.23-.05-2.48,.78-2.92,1.95-.26,.53-.29,1.19-.15,1.69,.09,.53,.15,1.03,.27,1.54,.17-.5,.23-1,.32-1.54,.06-.5,.21-.88,.44-1.26,.47-.71,1.22-1.13,2.07-1.1,1.29-.03,2.48-.88,2.89-2.04,.21-.56,.18-1.23,.12-1.73Zm-3.48-29.17c-.41,.32-.76,.5-1.19,.59-.85,.17-1.67-.06-2.24-.68-.91-.88-2.39-1.13-3.48-.59-.56,.21-1,.71-1.29,1.13-.27,.44-.62,.85-.88,1.32,.47-.29,.88-.59,1.32-.88,.41-.35,.76-.53,1.2-.62,.81-.23,1.69,0,2.25,.56,.85,.91,2.3,1.22,3.42,.71,.56-.21,1.03-.65,1.35-1.1,.29-.44,.59-.85,.85-1.32-.47,.29-.88,.61-1.32,.88Z"/>
  <g>
    <path class="cls-15" d="M938.2,170.44c-1.46-.19-2.97-.18-4.45-.24-1.52-.06-3.04-.13-4.56-.19-3.08-.13-6.16-.21-9.24-.27-6.15-.13-12.31-.28-18.46-.3-1.69,0-3.39,0-5.08,.03-1.78,.04-3.56,.21-5.33,.24-.11,0-.1,.16,0,.17,1.52,.08,3.04,.28,4.57,.37,1.56,.09,3.13,.15,4.69,.2,3.08,.09,6.16,.16,9.23,.2,6.06,.08,12.12,.18,18.19,.14,1.69-.01,3.38-.04,5.08-.06,1.77-.01,3.58,.07,5.34-.11,.09,0,.11-.15,.01-.17Z"/>
    <path class="cls-15" d="M928.17,148.65c-2.09-3.54-4.07-7.14-6.11-10.7-2.32-4.05-4.5-8.17-6.75-12.25-.06-.1,.12-.2,.18-.1,2.67,4.29,11.69,18.6,13.15,21.03,4.27,7.1,8.54,14.22,12.75,21.36,2.36,4,4.98,8.65,7.31,12.67,.17,.29-4.58-.05-7.08-.3-.13-.01-.29-.42-.14-.42,2.34,.07,5.49-.2,5.8-.17-4.3-6.72-8.5-13.51-12.65-20.33-2.18-3.58-4.33-7.17-6.46-10.78Z"/>
    <path class="cls-15" d="M881.83,151.22c-1.19-1.94-2.08-4.07-2.44-6.32,0-.04,.06-.06,.07-.02,.6,1.94,1.32,3.83,2.23,5.64-.16-.81-.33-1.63-.49-2.44-.58-2.94-1.17-5.88-1.61-8.84,0-.05,.07-.07,.08-.02,1.36,5.05,2.49,10.17,3.73,15.24,1.26,5.15,2.49,10.31,3.72,15.47,.67,2.81,1.35,5.63,1.96,8.45,.95,.1,1.7,.09,2.54,.19,.23,.03,.24,.41,0,.42-1.07,.04-3.15-.01-3.18-.13-2.71-9.07-4.73-18.37-6.59-27.66Z"/>
  </g>
  <g>
    <g>
      <g>
        <path class="cls-13" d="M856.65,113.49c7.34,1.16,18.89-10.79,23.11-20.09,.29-.64-1.14-7.02-2.5-14.86-.81-4.76-1.6-10.08-1.97-14.99l-30.21,9.79s3.8,10.06,4.39,18.62c.04,.72,.02,1.39-.06,2.03,0,.09-.02,.21-.02,.34-.34,3.87,.16,18.04,7.26,19.17Z"/>
        <path class="cls-15" d="M873.17,64.25c-.41,6.56-3.07,28.29-20.6,30-1.14,.12-2.21,.14-3.18,.07,0-.13,.02-.23,.02-.33,.09-.65,.11-1.32,.07-2.04-.59-8.55-4.38-18.61-4.38-18.61l28.08-9.09Z"/>
      </g>
      <g>
        <path class="cls-13" d="M870.53,23.54c5.78,9.87,7.49,41.96,1.55,50.62-8.61,12.55-26.35,17.78-37.94,6.6-11.23-10.84-12.71-52.7-5.74-60.95,10.27-12.14,33.59-10.86,42.13,3.72Z"/>
        <g>
          <g>
            <path class="cls-15" d="M845.8,49.87c.01-.08,.18,.09,.18,.18,.06,2.16,.49,4.63,2.48,5.24,.06,.02,.06,.13-.01,.12-2.41-.2-2.94-3.48-2.65-5.54Z"/>
            <path class="cls-15" d="M847.59,47.5c3.46-.47,4.14,6.49,.93,6.92-3.16,.42-3.83-6.53-.93-6.92Z"/>
          </g>
          <g>
            <path class="cls-15" d="M832.97,50.67c-.02-.08-.16,.12-.15,.21,.28,2.15,.23,4.65-1.64,5.56-.06,.03-.04,.14,.03,.12,2.35-.57,2.37-3.89,1.76-5.88Z"/>
            <path class="cls-15" d="M830.82,48.61c-3.49,.07-3.09,7.05,.15,6.98,3.18-.07,2.78-7.04-.15-6.98Z"/>
          </g>
          <path class="cls-15" d="M850.03,44.05c-.97-.15-1.84-.44-2.79-.69-1.07-.28-1.94-.39-2.71-1.24-.41-.46-.35-1.36,.06-1.8,.95-1.03,2.34-1.01,3.64-.73,1.41,.3,2.41,.9,3.31,2.02,.87,1.09-.24,2.64-1.52,2.45Z"/>
          <path class="cls-15" d="M827.79,45.37c.95-.25,1.78-.64,2.69-.99,1.03-.39,1.89-.59,2.56-1.53,.36-.5,.2-1.39-.26-1.79-1.06-.92-2.44-.75-3.7-.33-1.37,.45-2.3,1.15-3.07,2.37-.75,1.17,.53,2.6,1.78,2.27Z"/>
          <path class="cls-15" d="M849.36,69.37c-.47,.55-.91,1.3-1.69,1.44-.74,.14-1.66-.12-2.37-.32-.07-.02-.13,.06-.08,.12,.64,.77,1.87,1.18,2.85,.9,.96-.27,1.36-1.16,1.51-2.07,.02-.13-.15-.16-.22-.08Z"/>
          <path class="cls-15" d="M846.47,63.14c-1.02,1.99-2.7,3.18-4.58,3.74-.84,.25-1.74,.37-2.63,.38-.17,.01-.35,.01-.51,0-.16,0-.3,0-.48-.03-.26-.01-.41-.21-.48-.44v-.02c0-.08-.01-.14,0-.22v-.02s-.02-.19-.02-.19c-.21-1.65-.29-4.19-.29-4.19-.58,.36-3.53,2.05-3.57,1.18-.27-7.22-.57-15.24,.69-22.48,.03-.24,.4-.22,.4,.02,.53,6.92-.16,13.9,.27,20.86,.95-.47,2.49-1.32,3.36-1.39,.24,.05,.08,4.91,.23,5.64,0,0,0,.03,.02,.08,2.82,.09,4.84-.96,7.36-3.1,.15-.14,.33,0,.22,.17Z"/>
        </g>
        <g>
          <path class="cls-15" d="M833.29,27.73c2.97,2.97,7.27,4.3,11.39,3.32,4.01-.95,7.84-4.04,9.01-8.08,.03-.12,.22-.07,.19,.05-1.26,4.32-4.42,8.02-8.96,8.98-4.26,.9-9.03-.75-11.84-4.07-.12-.15,.08-.35,.22-.21Z"/>
          <path class="cls-15" d="M843,.69c4.92-1.81,10.67,.12,14.03,4,2.04,2.36,3.17,5.13,3.84,8.14,.03,.12-.16,.17-.19,.05-1.29-4.68-4.7-9.23-9.33-10.99-4.44-1.69-9.27-.83-12.47,2.79-1.67,1.89-2.7,4.34-2.8,6.87-.01,.28-.43,.27-.44-.01-.12-4.74,2.91-9.2,7.36-10.84Z"/>
          <path class="cls-15" d="M806.12,15.76c.82-3.35,2.9-6.33,5.69-8.34,3.9-2.82,8.55-2.78,13.16-2.64,.12,0,.12,.2,0,.19-3.93-.1-7.92,.02-11.38,2.11-2.82,1.71-5.09,4.38-6.17,7.5-2.25,6.48,.86,14.1,7.08,17.05,3.52,1.67,7.74,1.8,11.35,.34,.14-.06,.26,.15,.12,.21-6.59,2.86-14.76,.35-18.3-5.98-1.75-3.13-2.4-6.95-1.55-10.45Z"/>
          <path class="cls-15" d="M872,25.08s-1.44-9.73-4.24-12.5c-2.8-2.77-8.47-2.96-8.47-2.96,0,0-4.01-7.99-11.96-7.83-7.13,.14-11.36,6.82-11.36,6.82,0,0-10.68-8.86-21.39-2.33-10.17,6.2-7.37,22.29,3.39,26.54,7.56,2.99,16.96-4.22,16.96-4.22,.96,.06,11.15,5.19,17.86-4.07,0,0,7.09,4.59,10.6,.62,0,0,5.32,1.97,8.63-.09Z"/>
        </g>
        <path class="cls-14" d="M875.76,50.74c-1.99-1.18-6.28-9.08-8.22-12.36-1.77-2.98-3.04-15.6-3.57-21.89,2.63,1.83,4.88,4.19,6.56,7.06,3.03,5.16,4.94,16.41,5.23,27.2Z"/>
        <g>
          <path class="cls-13" d="M869.93,50.17s4.82-11.51,9.89-10c5.07,1.51,2.96,17.13-1.93,20.26-4.89,3.14-7.88-1.34-7.88-1.34l-.08-8.93Z"/>
          <path class="cls-15" d="M879.11,44.63c.08-.03,.13,.09,.06,.14-3.4,2.32-4.62,6.21-5.21,10.09,.81-1.62,2.16-2.71,4.29-1.79,.11,.05,.05,.22-.06,.22-1.6,0-2.64,.51-3.41,1.96-.54,1.03-.8,2.23-1.11,3.34-.1,.37-.74,.32-.7-.09,0-.03,0-.06,.01-.09-1.13-4.74,1.13-12.2,6.13-13.78Z"/>
        </g>
      </g>
    </g>
    <g>
      <path class="cls-16" d="M849.36,93.65l10.05,16.96,18.9-26.13,7.43,6.34s-16.39,39.45-16.78,37.84l-9.75-14.38-9.07,12.4-3.22-27.2,2.43-5.83Z"/>
      <path class="cls-15" d="M847.8,113.33c-.38-4.51-.89-9.04-1.06-13.56,0-.16,.23-.27,.3-.09,1.55,4.18,2.91,21.43,3.55,25.52,.01-.02,.03-.04,.04-.05,.38-.53,8.48-10.99,8.6-10.86,1.98,2.22,9.12,12.68,9.65,13.65,2.59-6.26,12.68-29.14,15.95-35.19,.09-.17,.36-.08,.29,.11-2.14,6.52-15.42,37.28-15.7,37.24-.16,.17-9.02-12.71-10.23-15.22-1.31,2.21-9.32,13.83-9.46,13.17-.9-4.45-1.55-10.23-1.93-14.74Z"/>
    </g>
  </g>
  <g>
    <path class="cls-15" d="M104.03,173.46c10.75,11.62,28.34,15.17,43.51,15.11,15.47-.06,32.69-2.71,46.13-10.83,5.89-3.55,11.19-8.49,14.33-14.67,3.39-6.63,3.38-13.35-1.15-19.04-3.65-4.58-11.12-7.52-11.45-11.93-.32-4.5,3.02-8.14,3.72-12.44,1.18-7.36-3.09-12.51-8.44-16.86-12.66-10.34-10.46-25.27-18.73-38.63-4.71-7.6-17.47-21.33-38.04-13.24-7.82,3.08-12.79,10.8-15.52,18.62-3.2,9.21,.34,20.77-3.74,29.69-3.49,7.6-9.28,9.18-12.57,17.13-1.42,3.45-1.95,7.39,2.12,15.01,1.47,2.76,3.13,7,2.19,10.47-1.3,4.8-6.66,7.34-8.13,12.35-2.02,6.9,1.01,14.11,5.75,19.24Z"/>
    <path class="cls-15" d="M203.45,165.26c7.13-1.69,9.52-11.96,4.59-16.77-3.13-3.05-7.59-4.25-10.72-7.28-5.15-4.99-1.23-10.1,.98-15.52,4.79-11.74-3.39-18.85-11.96-25.3-6.5-4.89-8.18-10.9-9.14-18.71-.01-.12,.19-.15,.21-.03,.98,5.73,2.18,11.34,6.49,15.58,3.51,3.44,8.01,5.64,11.43,9.23,5.73,6.01,6.86,12.89,3.66,20.45-.92,2.16-2.78,4.69-3.04,7.01-.63,5.47,3.59,7.96,7.59,10.35,3.07,1.83,6.48,3.86,7.84,7.38,2.06,5.33-2.25,13.06-7.81,14.05-.28,.05-.42-.37-.13-.43Z"/>
    <path class="cls-15" d="M199.91,171.05c4.23-3.02,8.86-5.82,11.12-10.74,3.35-7.28-1.84-12.2-6.69-16.83-2.09-1.99-3.85-4-3.97-7-.18-4.51,2.8-8.51,3.01-13.01,.5-10.73-10.36-16.4-16.17-23.81-5.93-7.57-8.35-16.77-10.97-25.84-.06-.19,.24-.28,.3-.09,3.42,11.58,7.67,22.37,16.58,30.84,6.21,5.9,12.83,12.31,10.84,21.66-.49,2.3-1.65,4.44-2.1,6.73-.88,4.55,.53,7.35,3.69,10.33,3.04,2.87,6.52,5.76,7.37,10.08,1.65,8.38-6.29,14.6-12.6,18.33-.42,.25-.79-.36-.4-.64Z"/>
    <path class="cls-15" d="M96.14,151.72c3.17-5.42,8.66-8.43,6.56-15.64-1.44-4.96-4.49-8.78-3.93-14.22,.47-4.5,3-8.15,6.08-11.34,3.91-4.05,8.32-7.42,10.99-12.49,2.91-5.54,3.91-11.84,4.97-17.92,.02-.12,.23-.09,.21,.03-.96,8.24-2.27,16.71-7.84,23.27-2.91,3.42-6.56,6.13-9.44,9.59-5.17,6.22-4.58,12.51-1.54,19.48,1.4,3.2,2.67,6.43,1.46,9.91-1.21,3.47-4.2,5.82-6.18,8.82-8.39,12.72,7.34,26.63,19.47,27.8,.54,.05,.55,.89,0,.85-9.05-.6-19.19-7.97-21.93-16.66-1.2-3.81-.93-7.98,1.11-11.47Z"/>
    <path class="cls-15" d="M97.09,158.06c-.37-5.35,2.67-8.59,4.87-13,3.45-6.94-1.29-13.07-2.4-19.98-.77-4.82,.82-9.09,3.48-12.89,3.58-5.11,8.4-8.95,11.2-14.7,2.95-6.06,3.95-12.98,3.06-19.79-.02-.13,.17-.12,.19,0,1.53,9.46-.59,18.67-6.31,26.02-3.63,4.67-8.73,8.67-10.46,14.67-1.83,6.36,1.75,11.71,3.12,17.76,.89,3.92,.28,7.19-1.67,10.54-1.41,2.43-3.2,4.69-3.86,7.53-.89,3.84,.29,7.93,2.12,11.35,5.79,10.8,18.14,16.82,29.46,17.65,.4,.03,.42,.68,.02,.65-10.08-.63-20.03-5.2-26.93-13.17-3.03-3.49-5.56-7.92-5.89-12.66Z"/>
  </g>
  <g>
    <path class="cls-12" d="M140.76,149.92c8.44,34.32,28.88,87.63,46.94,87.35,16.49-.26,53.27-29.5,68.67-39.08,15.5-9.64-19.15-47.33-27.98-41.22-13.69,9.47-34.17,26.36-37.63,25.25-4.31-1.38-9.8-11.99-34.4-43.28-10.06-12.8-19.19-3.63-15.6,10.98Z"/>
    <g>
      <path class="cls-12" d="M244.96,142.42c7.26-2.57,15.39-6.09,23.46-5.94,8.07,.15,14.77,10.81,14.77,13.86s-3.05,22.08-11.12,22.08c-8.07,0-3.2-14.62-3.5-16.29-.3-1.68-.61-3.82-2.13-3.66s-28.17,12.8-28.17,12.8l6.69-22.84Z"/>
      <g>
        <path class="cls-12" d="M245.48,143.54c.46,0,22.08-8.53,30.15-8.37,8.07,.15,14.77,10.81,14.77,13.86,0,3.05-3.05,22.08-11.12,22.08-8.07,0-3.2-14.62-3.5-16.29-.3-1.67-.61-3.82-2.13-3.66-1.52,.16-28.17,12.8-28.17,12.8v-20.4Z"/>
        <path class="cls-15" d="M276.54,170.07c-1-1.28-1.17-3.2-1.34-4.77-.19-1.72-.05-3.46,.29-5.15,.3-1.47,.93-2.93,.98-4.44,.05-1.4-.46-3.05-1.13-4.27-.62-1.13-1.81-.74-2.83-.39-1.5,.53-2.96,1.28-4.39,1.98-1.54,.76-3.07,1.56-4.6,2.35-1.57,.81-3.23,1.57-4.69,2.58-.11,.07-.04,.27,.1,.22,1.41-.49,2.74-1.21,4.09-1.84,1.53-.72,3.07-1.43,4.62-2.12,1.44-.64,2.86-1.36,4.31-1.98,.51-.22,1.54-.77,2.13-.64,.62,.14,.92,1.65,1.06,2.14,.43,1.55,.15,2.86-.28,4.36-.41,1.45-.72,2.92-.83,4.42-.11,1.38-.06,2.87,.34,4.21,.38,1.29,1.26,2.33,1.92,3.47,.09,.16,.36,0,.24-.15Z"/>
      </g>
      <g>
        <path class="cls-12" d="M219.88,164.72s22.37-20.38,27.02-24.43c9.34-8.12,48.68-24.19,54.16-24.77,5.48-.58,7.46,10.66-19.24,22.33-14.07,6.15-16.58,14.21-16.31,18.68,.27,4.47,4.53,12.79,12.04,12.59,7.51-.2,12.38-11.17,19.29-12.38,6.9-1.22,2.34,11.43-2.53,18.74-4.87,7.31-13.71,13.34-20.21,15.77-6.5,2.44-26.6,11.1-26.6,11.1l-27.62-37.63Z"/>
        <path class="cls-15" d="M286.88,163.84c-2.83,2.19-6.03,5.03-9.76,5.17-3.85,.14-6.35-2.35-8.14-5.49-1.8-3.16-2.85-6.77-1.97-10.39,.79-3.26,2.73-6.14,5.15-8.43,2.99-2.83,6.53-4.93,10.18-6.77,.16-.08,.02-.32-.15-.24-3.46,1.55-14.21,5.95-16.36,15.44-.88,3.88,.29,7.34,2.09,10.59,1.66,2.99,4.09,5.87,7.73,6.17,4.44,.36,8.26-3.25,11.45-5.94,.14-.12-.07-.22-.22-.1Z"/>
      </g>
    </g>
  </g>
  <path class="cls-9" d="M219.88,161.87l33.46,51.93s-53.08,29.74-68.1,24.94c-15.02-4.79-37.7-47.84-47.04-85.62-9.34-37.78,13.85-23.31,22.85-11.63,9,11.67,28.53,38.66,29.6,38.31,1.07-.35,29.24-17.93,29.24-17.93Z"/>
  <g>
    <path class="cls-29" d="M238.09,221.78c-3.29,1.67-6.92,3.42-10.72,5.17l-29-51.77c3.08-1.86,6.64-4.08,9.99-6.15,9.14,16.19,20.25,35.86,29.73,52.75Z"/>
    <path class="cls-29" d="M223.25,228.83c-1.15,.51-2.33,1.03-3.5,1.52l-28.55-50.83c.64-.36,1.75-1.03,3.18-1.88,8.99,15.89,19.69,34.85,28.87,51.19Z"/>
  </g>
  <path class="cls-15" d="M215.92,231.94c-12.09,4.93-23.96,8.52-30.16,6.96-.19-.04-.36-.11-.53-.15-15.01-4.81-37.69-47.84-47.05-85.62-1.67-6.73-2.29-11.81-2.16-15.53,0-.19,.02-.36,.02-.56,.02-.3,.04-.6,.09-.9,0-.13,.02-.24,.04-.36,.02-.28,.06-.56,.11-.81l79.64,96.96Z"/>
  <path class="cls-15" d="M234.65,208.7c-1.06-1.84-2.13-3.68-3.21-5.51-2.16-3.67-15.12-25.41-20.23-32.02-.14-.18-.4,.02-.31,.21,3.57,7.6,17,28.95,19.24,32.47,1.14,1.8,2.29,3.6,3.46,5.38,1.17,1.8,2.55,3.45,3.72,5.25,.11,.18,.41,.04,.3-.15-1.06-1.83-1.9-3.8-2.95-5.64Z"/>
  <path class="cls-9" d="M176.32,211.35l5.58,38.27c-16.67,10.66-36.46,16.84-57.7,16.84-19.87,0-38.48-5.4-54.45-14.83,5.62-29.22,19.18-85.76,44.09-114.5,4.14-4.78,18.24-17.75,35.99-2.95,8.67,7.22,29.45,37.79,32.09,50.46,2.61,12.7-5.61,26.7-5.61,26.7Z"/>
  <g>
    <path class="cls-15" d="M159.84,208.4c-6.12,.07-12.23,1.36-18.09,3.02-5.9,1.67-18.95,6.84-22.23,8.12-.08,.03-.05,.15,.04,.13,5.95-1.48,6.76-1.81,12.57-3.78,5.79-1.97,11.63-3.75,17.55-5.29,3.34-.87,6.75-1.39,10.17-1.83,.22-.03,.23-.36,0-.36Z"/>
    <path class="cls-15" d="M170.62,211.52c-6.35-.61-12.84,.12-19,1.69-.07,.02-.06,.14,.02,.13,3.15-.38,6.29-.74,9.45-1.01,3.17-.26,6.36-.43,9.54-.64,.11,0,.1-.16,0-.17Z"/>
  </g>
  <path class="cls-15" d="M177.17,171.62c-.84-3.13-2.02-6.12-3.5-9-.02-.04-.08,0-.06,.04,1.16,2.53,2.13,5.16,2.95,7.83-2.15-3.91-4.68-7.58-7.3-11.18-.04-.05-.12,0-.08,.05,7.43,12.35,14.85,26.66,11.31,41.5-.44,1.84-1.01,3.66-1.76,5.4-.77,1.76-1.62,3.74-2.79,5.27-.1,.12,.38,.62,.48,.5,1.12-1.28,1.97-2.75,2.85-4.24,.89-1.5,1.62-3.12,2.19-4.77,1.14-3.35,1.6-6.98,1.56-10.5-.09-7.34-2.45-14.43-5.84-20.89Z"/>
  <g>
    <path class="cls-12" d="M109.07,166.12c5.96,34.98,35.33,100.42,54.47,106.58,22.15,7.13,99.05-17.45,114.14-28.5,6.01-4.4-26.01-43.14-33.48-40.39-31.31,11.52-59.07,17.43-63.1,14.69-6.19-4.21-31.45-40.4-47.87-62.85-20.63-28.21-26.83-5.22-24.15,10.47Z"/>
    <g>
      <path class="cls-12" d="M275.69,245.25c3.42-1.22,26.98-18.32,33.92-26.34,4.43-5.12,12.06-13.98,18.11-28.08,6.99-16.27,10.27-28.19,8.59-33.52-1.95-6.2-2.51-7.2-18.8,19.81-9.21,15.28-18,17-25.62,16.86-31.24-.59-54.11,12.1-54.11,12.1,0,0,24.75,43.87,37.9,39.18Z"/>
      <g>
        <path class="cls-16" d="M348,137.09l-40.68,51.33c-1.13,1.4-3.33,2.13-4.91,1.61l-28.36-9.43c-1.58-.53-1.96-2.11-.85-3.52l40.68-51.33c1.14-1.42,3.33-2.13,4.91-1.61l28.36,9.43c1.58,.53,1.97,2.09,.85,3.52Z"/>
        <path class="cls-15" d="M344.61,132.72l-28.37-9.43c-1.58-.53-3.78,.19-4.91,1.61l-40.67,51.32c-1.12,1.42-.75,3,.83,3.52l28.37,9.43c1.59,.53,3.79-.2,4.91-1.61l40.67-51.32c1.13-1.42,.75-3-.84-3.52Zm-40.37,52.67c-1.07,1.35-3.09,2.06-4.51,1.59l-25.38-8.44c-1.42-.47-1.71-1.95-.64-3.3l37.88-47.79c2.18-2.75,3.44-2.5,4.86-2.03l5.08,1.69c.3,.1,.3,.47,.01,.84l-.13,.16c-.68,.86-.15,1.04,.51,1.26l11.76,3.91c.66,.22,1.19,.39,1.87-.46l.12-.16c.29-.37,.76-.58,1.06-.48l5.08,1.69c1.42,.47,2.28,1.22,.28,3.74l-37.88,47.79Z"/>
        <path class="cls-8" d="M330.26,130.77l-3.21-1.07c-.11-.04-.14-.14-.06-.24h0c.08-.1,.23-.14,.34-.11l3.21,1.07c.11,.04,.14,.14,.06,.24h0c-.08,.1-.23,.14-.34,.11Z"/>
        <line class="cls-23" x1="276.12" y1="172.2" x2="276.02" y2="172.17"/>
        <g>
          <path class="cls-8" d="M342.11,137.59l-37.88,47.79c-1.07,1.35-3.09,2.06-4.51,1.59l-25.38-8.44c-1.42-.47-1.71-1.95-.64-3.3l37.88-47.79c2.18-2.75,3.44-2.5,4.86-2.03l5.08,1.69c.3,.1,.3,.47,.01,.84l-.13,.16c-.68,.86-.15,1.04,.51,1.26l11.76,3.91c.66,.22,1.19,.39,1.87-.46l.12-.16c.29-.37,.76-.58,1.06-.48l5.08,1.69c1.42,.47,2.28,1.22,.28,3.74Z"/>
          <path class="cls-10" d="M342.11,137.59l-2.83,3.57-30.52-10.15,2.83-3.57c2.18-2.75,3.44-2.5,4.86-2.03l5.08,1.69c.3,.1,.3,.47,.01,.84l-.13,.16c-.68,.86-.15,1.04,.51,1.25l11.76,3.91c.66,.22,1.19,.39,1.87-.46l.12-.16c.29-.37,.76-.58,1.06-.48l5.08,1.69c1.42,.47,2.28,1.22,.28,3.74Z"/>
          <g>
            <polygon class="cls-8" points="313.24 130.29 312.92 129.25 314.41 128.81 314.45 128.99 313.22 129.35 313.48 130.21 313.24 130.29"/>
            <g>
              <path class="cls-8" d="M339.31,137.64c-.07,.09-.2,.13-.3,.1-.1-.03-.12-.13-.05-.21,.07-.09,.2-.13,.3-.1,.1,.03,.12,.13,.05,.21Z"/>
              <path class="cls-8" d="M338.87,138.2c-.07,.09-.2,.13-.3,.1-.1-.03-.12-.13-.05-.22,.07-.09,.2-.13,.3-.1,.1,.03,.12,.13,.05,.21Z"/>
              <path class="cls-8" d="M338.43,138.75c-.07,.09-.2,.13-.3,.1-.1-.03-.12-.13-.05-.21,.07-.09,.2-.13,.3-.1,.1,.03,.12,.13,.05,.21Z"/>
            </g>
          </g>
          <g>
            <g id="u5Zjqx">
              <g>
                <path class="cls-8" d="M319.81,127.88s-.06,.02-.08,.03c-.02,0-.03,.01-.05,.02-.04-.16-.15-.27-.34-.33-.18-.06-.39-.05-.61,.02,0-.01,0-.02,0-.03,0-.02,0-.04-.01-.06,0,0,0,0,0,0,0,0,0,0,0,0,0,0,0,0,0,0,.03,0,.07-.02,.1-.03,.07-.02,.14-.03,.21-.03,.08,0,.16,0,.23,0,.04,0,.07,.01,.1,.02,.01,0,.08,.03,.08,.03,.02,0,.04,.02,.06,.03,.06,.03,.1,.06,.15,.09,.03,.03,.06,.06,.08,.09,.02,.03,.04,.07,.06,.11,0,.02,.01,.04,.02,.06,0,0,0,0,0,0Z"/>
                <path class="cls-8" d="M318.78,127.8s-.02-.06-.02-.09c.15-.05,.29-.06,.43-.03,.2,.04,.32,.14,.37,.3-.04,.01-.09,.03-.13,.04-.03-.1-.1-.18-.23-.22-.12-.04-.26-.04-.41,.01Z"/>
                <path class="cls-8" d="M319.28,128.05s-.09,.03-.13,.04c-.01-.05-.05-.09-.12-.11-.06-.02-.13-.02-.21,0,0-.03-.02-.06-.02-.09,.21-.07,.44,0,.48,.16Z"/>
              </g>
              <path class="cls-8" d="M319.01,128.12s-.08,.05-.12,.04c-.04-.01-.05-.05-.02-.08,.03-.03,.08-.05,.12-.04,.04,.01,.05,.05,.02,.08Z"/>
            </g>
            <g>
              <path class="cls-8" d="M314.92,126.42c.08-.1,.23-.15,.34-.11,.11,.04,.14,.15,.06,.24-.08,.1-.23,.15-.34,.11-.11-.04-.14-.15-.06-.25Z"/>
              <path class="cls-8" d="M315.55,126.63c.08-.1,.23-.15,.34-.11,.11,.04,.14,.15,.06,.25s-.23,.15-.34,.11c-.11-.04-.14-.15-.06-.24Z"/>
              <path class="cls-8" d="M316.19,126.84c.08-.1,.23-.15,.34-.11,.11,.04,.14,.15,.06,.25-.08,.1-.23,.15-.34,.11s-.14-.15-.06-.24Z"/>
              <path class="cls-8" d="M316.83,127.06c.08-.1,.23-.15,.34-.11,.11,.04,.14,.15,.06,.25-.08,.1-.23,.15-.34,.11-.11-.04-.14-.15-.06-.25Z"/>
              <path class="cls-8" d="M317.46,127.27c.08-.1,.23-.15,.34-.11,.11,.04,.14,.15,.06,.25-.08,.1-.23,.15-.34,.11-.11-.04-.14-.15-.06-.25Z"/>
            </g>
            <g>
              <polygon class="cls-8" points="340.97 135.93 338.64 135.15 339.62 133.92 341.95 134.7 340.97 135.93"/>
              <polygon class="cls-8" points="340.84 134.83 339.78 134.48 339.43 134.92 340.49 135.27 340.84 134.83"/>
              <polygon class="cls-8" points="341.12 135.43 340.97 135.38 341.26 135.02 341.41 135.07 341.12 135.43"/>
            </g>
          </g>
          <g>
            <polygon class="cls-29" points="278.73 176.3 278.5 176.22 277.76 177.16 277.33 177.01 277.7 176.54 276.94 176.28 276.56 176.76 276.12 176.61 276.87 175.68 276.63 175.6 278.44 175 278.73 176.3"/>
            <g>
              <polygon class="cls-29" points="302.58 183.43 300.06 182.59 300.31 182.27 302.84 183.11 302.58 183.43"/>
              <polygon class="cls-29" points="301.96 184.21 299.43 183.37 299.68 183.05 302.21 183.9 301.96 184.21"/>
              <polygon class="cls-29" points="301.34 185 298.81 184.16 299.06 183.84 301.59 184.68 301.34 185"/>
            </g>
            <polygon class="cls-29" points="290.18 179.94 288.93 180.37 288.75 179.46 288.95 179.39 289.11 180.15 290.14 179.79 290.18 179.94"/>
            <path class="cls-29" d="M288.93,181.83c-.25,0-.5-.04-.73-.11-.55-.18-.95-.57-1.09-1.07-.16-.52-.02-1.11,.37-1.6,.67-.85,1.93-1.24,2.91-.92,.55,.18,.94,.57,1.09,1.07,.16,.53,.02,1.11-.37,1.6h0c-.51,.65-1.36,1.03-2.17,1.03Zm.68-2.27c-.38,0-.75,.17-.95,.43-.1,.12-.11,.21-.1,.22,.49,.19,1.08-.01,1.35-.35,.1-.12,.1-.21,.1-.22-.13-.05-.27-.07-.4-.07Z"/>
          </g>
          <g>
            <path class="cls-8" d="M323.04,132.93c.31-.39,.94-.58,1.39-.44,.2,.07,.33,.18,.4,.33,.02,.06-.02,.13-.1,.17-.08,.03-.17,.01-.2-.04-.04-.1-.14-.18-.28-.23-.15-.05-.34-.04-.52,0-.17,.06-.33,.15-.44,.29-.11,.13-.14,.28-.11,.4,.04,.12,.14,.22,.29,.28,.14,.05,.29,.05,.45,.01,.08-.02,.16,.02,.16,.08,0,.06-.06,.13-.15,.15-.22,.05-.44,.05-.64-.02-.45-.15-.57-.59-.26-.98Z"/>
            <path class="cls-8" d="M324.36,134.13l.92-1.16c.05-.06,.14-.09,.21-.07,.07,.02,.09,.09,.04,.15l-.38,.47,.58,.19,.38-.47c.05-.06,.14-.09,.21-.07,.07,.02,.09,.09,.04,.15l-.92,1.16c-.05,.06-.14,.09-.21,.07-.07-.02-.09-.09-.04-.15l.38-.47-.58-.19-.37,.47c-.05,.06-.14,.09-.21,.07-.07-.02-.09-.09-.04-.15Z"/>
            <path class="cls-8" d="M326.78,134.66l-.55-.18-.31,.22c-.05,.04-.12,.05-.17,.03-.02,0-.03-.01-.04-.02-.05-.04-.03-.12,.04-.17l1.42-1c.05-.04,.13-.05,.17-.03,.05,.02,.08,.06,.06,.11l-.42,1.33c-.02,.06-.1,.12-.19,.12-.01,0-.03,0-.05,0-.05-.02-.08-.06-.06-.11l.09-.29Zm.08-.25l.15-.48-.52,.36,.36,.12Z"/>
            <path class="cls-8" d="M328.83,134.28l-.36-.12-.83,1.05c-.05,.06-.14,.09-.21,.07-.07-.02-.09-.09-.04-.15l.83-1.05-.35-.12c-.07-.02-.08-.09-.04-.15,.05-.06,.14-.09,.21-.07l.96,.32c.07,.02,.09,.09,.04,.15-.05,.06-.14,.09-.21,.07Z"/>
          </g>
          <g>
            <g>
              <g>
                <polygon class="cls-22" points="296.29 152.07 318.12 159.33 322.89 153.3 301.07 146.04 301.07 146.04 296.29 152.07 296.29 152.07"/>
                <polygon class="cls-22" points="320.14 160 318.12 159.33 319.59 157.48 320.14 160"/>
              </g>
              <g>
                <polygon class="cls-8" points="320.73 154.04 301.4 147.62 301.49 147.5 320.82 153.93 320.73 154.04"/>
                <polygon class="cls-8" points="316.23 153.33 300.91 148.23 301 148.12 316.32 153.21 316.23 153.33"/>
                <polygon class="cls-8" points="317.67 155.37 299.93 149.47 300.02 149.36 317.76 155.26 317.67 155.37"/>
                <polygon class="cls-8" points="318.77 156.52 299.44 150.09 299.53 149.97 318.86 156.4 318.77 156.52"/>
                <polygon class="cls-8" points="318.28 157.13 298.95 150.71 299.04 150.59 318.37 157.02 318.28 157.13"/>
                <polygon class="cls-8" points="312.44 155.97 298.46 151.32 298.55 151.21 312.53 155.86 312.44 155.97"/>
              </g>
            </g>
            <g>
              <g>
                <polygon class="cls-22" points="285.02 166.3 306.85 173.56 311.62 167.53 289.79 160.27 289.79 160.27 285.02 166.3 285.02 166.3"/>
                <polygon class="cls-22" points="308.87 174.23 306.85 173.56 308.31 171.7 308.87 174.23"/>
              </g>
              <g>
                <polygon class="cls-8" points="309.45 168.27 290.13 161.84 290.22 161.73 309.54 168.16 309.45 168.27"/>
                <polygon class="cls-8" points="304.95 167.55 289.64 162.46 289.73 162.35 305.04 167.44 304.95 167.55"/>
                <polygon class="cls-8" points="306.39 169.6 288.66 163.7 288.75 163.58 306.48 169.48 306.39 169.6"/>
                <polygon class="cls-8" points="307.49 170.74 288.17 164.32 288.26 164.2 307.58 170.63 307.49 170.74"/>
                <polygon class="cls-8" points="307 171.36 287.68 164.93 287.77 164.82 307.09 171.25 307 171.36"/>
                <polygon class="cls-8" points="301.16 170.2 287.19 165.55 287.28 165.44 301.25 170.09 301.16 170.2"/>
              </g>
            </g>
            <g>
              <g>
                <polygon class="cls-10" points="329.65 148 307.83 140.74 311.85 135.65 333.68 142.91 329.65 148"/>
                <polygon class="cls-10" points="305.8 140.07 307.83 140.74 309.29 138.89 305.8 140.07"/>
              </g>
              <g>
                <polygon class="cls-8" points="328.39 142.49 312.29 137.13 312.39 137.02 328.48 142.37 328.39 142.49"/>
                <polygon class="cls-8" points="331.13 144.18 311.8 137.75 311.9 137.64 331.22 144.06 331.13 144.18"/>
                <polygon class="cls-8" points="330.64 144.8 311.31 138.37 311.41 138.25 330.73 144.68 330.64 144.8"/>
                <polygon class="cls-8" points="328.62 144.91 310.82 138.99 310.92 138.87 328.71 144.79 328.62 144.91"/>
                <polygon class="cls-8" points="329.66 146.03 310.33 139.6 310.43 139.49 329.75 145.92 329.66 146.03"/>
                <polygon class="cls-8" points="324.13 144.97 309.85 140.22 309.94 140.11 324.22 144.86 324.13 144.97"/>
              </g>
            </g>
            <g>
              <g>
                <polygon class="cls-10" points="326.01 152.59 304.19 145.33 307.17 141.56 329 148.82 326.01 152.59"/>
                <polygon class="cls-10" points="302.16 144.66 304.19 145.33 305.65 143.48 302.16 144.66"/>
              </g>
              <g>
                <polygon class="cls-8" points="326.91 149.45 307.61 143.04 307.71 142.92 327 149.34 326.91 149.45"/>
                <polygon class="cls-8" points="323 148.94 307.12 143.66 307.22 143.54 323.09 148.82 323 148.94"/>
                <polygon class="cls-8" points="324.11 150.09 306.63 144.27 306.73 144.16 324.2 149.97 324.11 150.09"/>
                <polygon class="cls-8" points="319.62 149.38 306.14 144.89 306.24 144.78 319.72 149.26 319.62 149.38"/>
              </g>
            </g>
            <g>
              <g>
                <polygon class="cls-24" points="314.76 166.79 292.93 159.53 297.14 154.22 318.97 161.48 314.76 166.79"/>
                <polygon class="cls-24" points="290.91 158.86 292.93 159.53 294.4 157.68 290.91 158.86"/>
              </g>
              <g>
                <polygon class="cls-8" points="314.38 163.6 296.13 157.53 296.22 157.41 314.47 163.48 314.38 163.6"/>
                <polygon class="cls-8" points="312.41 163.72 295.64 158.15 295.73 158.03 312.5 163.61 312.41 163.72"/>
                <polygon class="cls-8" points="314.31 162.01 297.11 156.29 297.2 156.18 314.4 161.9 314.31 162.01"/>
                <polygon class="cls-8" points="316.69 162.02 297.6 155.67 297.69 155.56 316.78 161.91 316.69 162.02"/>
                <polygon class="cls-8" points="312.51 164.54 295.15 158.76 295.24 158.65 312.6 164.42 312.51 164.54"/>
              </g>
            </g>
            <g>
              <g>
                <polygon class="cls-10" points="304.12 180.22 282.29 172.96 285.8 168.54 307.62 175.8 304.12 180.22"/>
                <polygon class="cls-10" points="280.27 172.29 282.29 172.96 283.76 171.11 280.27 172.29"/>
              </g>
              <g>
                <polygon class="cls-8" points="305.6 176.4 286.27 169.97 286.36 169.86 305.69 176.29 305.6 176.4"/>
                <polygon class="cls-8" points="305.11 177.02 285.78 170.59 285.87 170.48 305.2 176.9 305.11 177.02"/>
                <polygon class="cls-8" points="303.09 177.13 285.29 171.21 285.38 171.1 303.18 177.01 303.09 177.13"/>
                <polygon class="cls-8" points="304.13 178.26 284.8 171.83 284.89 171.71 304.22 178.14 304.13 178.26"/>
                <polygon class="cls-8" points="298.59 177.2 284.31 172.45 284.4 172.33 298.68 177.08 298.59 177.2"/>
              </g>
            </g>
          </g>
        </g>
      </g>
      <path class="cls-12" d="M295.7,193.85c-7.87,.12,17.71-15.85,18.1-24.8,.39-8.96-8.34-6.14-15.22-1.08-23.88,17.55-41.91,16.69-54.02,33.47-12.11,16.77,51.14-7.58,51.14-7.58Z"/>
      <path class="cls-15" d="M271.91,182.93c-5.1,1.43-10.11,3.09-14.71,5.77-4.28,2.49-7.62,6.08-10.64,9.95-.13,.17,.1,.4,.24,.23,6.45-7.93,16.01-11.9,25.18-15.73,.14-.06,.08-.27-.07-.22Z"/>
    </g>
  </g>
  <path class="cls-9" d="M182.77,216.34c6.12,1.66,48.75-10.03,48.75-10.03l23.96,57.93s-74.23,17.28-91.56,11.28c-17.33-6-44.31-64.87-53.03-99.08-8.2-32.16,2.73-53.15,25.69-19.83,0,0,43,58.88,46.19,59.74Z"/>
  <g>
    <path class="cls-29" d="M241.91,267.21c-4.78,.98-10.51,2.14-16.7,3.31l-21.8-57.17c5.57-1.24,11.4-2.67,16.27-3.91,6.71,17.41,14.86,38.55,22.23,57.77Z"/>
    <path class="cls-29" d="M218.72,271.67c-1.77,.32-3.57,.64-5.38,.94l-21.74-56.89c1.62-.28,3.37-.6,5.21-.96,6.6,17.06,14.61,37.84,21.91,56.91Z"/>
  </g>
  <g>
    <path class="cls-15" d="M163,273.73c-14.52-7.44-32.43-46.35-35.87-53.99-2.21-4.89-4.22-9.86-6.2-14.84-3.96-9.98-7.6-20.07-11.07-30.23-.06-.17-.31-.1-.27,.08,1.91,7.84,4.21,15.6,6.86,23.25-1.76-2.84-3.32-5.82-4.74-8.85-.07-.14-.31-.03-.26,.12,1.4,3.64,3.31,7.03,5.52,10.23,2.72,7.68,5.8,15.22,9.23,22.59,.99,2.12,21.7,49.79,37.93,54.22,5.64,1.54,24.95,.15,29.04-.79,.18-.04,.22-.26,.02-.26-5.57-.13-25.01,1.13-30.2-1.52Z"/>
    <path class="cls-15" d="M239.44,257.22c-.72-2-1.45-4-2.19-5.99-1.48-3.99-10.42-27.67-14.29-35.08-.1-.2-.4-.05-.35,.16,2.18,8.11,11.65,31.49,13.23,35.35,.81,1.97,1.63,3.94,2.46,5.91,.84,1.98,1.91,3.85,2.73,5.82,.08,.19,.39,.11,.32-.1-.72-1.99-1.2-4.07-1.91-6.07Z"/>
    <path class="cls-15" d="M231.53,206.41c-3.53,.16-35.44,7.57-42.48,9.16-1.66,.37-3.49,.99-5.21,.72-1.83-.29-3.03-1.81-4.18-3.13-2.28-2.62-27.23-35.6-29.05-37.22-.68-.61-1.22-.73-.58,.31,1.11,1.79,25.37,34.35,27.57,36.91,2.05,2.38,3.97,4.88,7.41,4.74,1.51-.06,44.54-9.71,46.65-10.59,.45-.19,.41-.92-.14-.9Z"/>
  </g>
  <g>
    <g>
      <path class="cls-12" d="M129.88,132.53c.12,2.14,7.62,17.18,17.08,18.37,3.08,.38,5.92-16.36,5.92-16.36l.49-1.19,6.87-16.64-18.07-16.57-2.64-2.24s-1.58,4.68-3.49,10.52c-.09,.27-.18,.54-.27,.83-.12,.33-.23,.64-.33,.95-.3,.87-.6,1.76-.87,2.65-.22,.68-.43,1.34-.63,2.05-.22,.72-.42,1.42-.64,2.13-2.01,7.11-3.48,14.59-3.44,15.49Z"/>
      <path class="cls-15" d="M136.06,108.42c2.57,14.64,12.6,22.16,17.32,24.93l6.87-16.64-18.07-16.57-2.64-2.24s-1.58,4.68-3.49,10.52Z"/>
    </g>
    <g>
      <path class="cls-12" d="M189.01,90.26c.39,31.59-18.49,35.39-25.3,35.46-6.18,.07-27.25-.48-30.9-31.86-3.65-31.38,10.91-41.55,25.05-42.45,14.13-.91,30.76,7.26,31.15,38.85Z"/>
      <g>
        <path class="cls-15" d="M184,83.82c-.74-.13-1.39-.37-2.11-.57-.81-.23-1.47-.33-2.04-.99-.3-.36-.24-1.04,.08-1.37,.74-.76,1.8-.73,2.78-.49,1.06,.26,1.82,.73,2.48,1.59,.64,.84-.23,2-1.2,1.83Z"/>
        <path class="cls-15" d="M162.9,83.62c.75-.04,1.43-.21,2.16-.33,.83-.13,1.5-.16,2.14-.75,.34-.32,.36-1.01,.08-1.37-.65-.84-1.7-.93-2.7-.81-1.09,.13-1.89,.51-2.65,1.3-.73,.76,0,2.02,.98,1.96Z"/>
        <g>
          <g>
            <path class="cls-15" d="M166.75,91.37c-.01-.08-.17,.1-.17,.18,0,2.15-.37,4.62-2.34,5.26-.06,.02-.06,.13,.01,.12,2.38-.25,2.84-3.53,2.5-5.57Z"/>
            <path class="cls-15" d="M164.9,89.06c-3.45-.38-3.96,6.54-.76,6.9,3.14,.35,3.65-6.58,.76-6.9Z"/>
          </g>
          <path class="cls-15" d="M163.52,89.33c-.63,.35-1.28,1-2.01,1.01-.85,.02-1.43-.75-1.93-1.49-.05-.08-.12-.02-.12,.07-.12,1.33,.29,2.72,1.7,3.03,1.28,.28,2.3-.83,2.73-2.14,.08-.24-.11-.62-.36-.48Z"/>
        </g>
        <g>
          <g>
            <path class="cls-15" d="M179.39,91.44c.02-.08,.16,.11,.15,.2-.24,2.14-.16,4.63,1.72,5.5,.06,.03,.04,.13-.03,.12-2.34-.53-2.42-3.83-1.84-5.82Z"/>
            <path class="cls-15" d="M181.49,89.36c3.47,.02,3.18,6.96-.04,6.94-3.16-.02-2.87-6.95,.04-6.94Z"/>
          </g>
          <path class="cls-15" d="M182.91,89.87c.53,.39,1.05,1.08,1.7,1.15,.76,.08,1.35-.65,1.86-1.34,.05-.07,.11-.01,.1,.08-.02,1.33-.52,2.69-1.8,2.89-1.17,.18-1.98-.99-2.24-2.32-.05-.25,.15-.61,.37-.45Z"/>
        </g>
        <path class="cls-15" d="M165.74,108.18c.45,.56,.88,1.31,1.65,1.47,.74,.15,1.65-.08,2.36-.26,.07-.02,.13,.06,.08,.12-.65,.75-1.88,1.13-2.85,.84-.95-.28-1.33-1.18-1.45-2.09-.02-.13,.15-.15,.22-.07Z"/>
        <path class="cls-15" d="M175.19,100.98s.25,3.23,.15,4.75c-.01,.14-.38,.19-.9,.18-.02,0-.04,.02-.06,0-2.7,.25-5.33-.84-6.82-3.12-.1-.15,.11-.3,.24-.2,1.9,1.59,4.08,2.1,6.45,2.29,.13-.41-.61-5.52-.36-5.53,.83-.02,2.43,.64,3.39,.99-.32-6.75-1.71-13.4-1.92-20.12,0-.24,.34-.29,.4-.07,1.96,6.86,2.49,14.62,2.99,21.59,.07,.87-2.97-.46-3.56-.75Z"/>
        <g>
          <path class="cls-15" d="M174.27,105.33s-1.55,1.97-3.61,2.63c-.76,.25-1.57,.33-2.41,.08-1.73-.51-1.73-2.11-1.37-3.47,.29-1.12,.84-2.07,.84-2.07,0,0,2.48,2.45,6.55,2.82Z"/>
          <path class="cls-26" d="M170.67,107.96c-.76,.25-1.57,.33-2.41,.08-1.73-.51-1.73-2.11-1.37-3.47,1.86,.24,3.67,1.56,3.78,3.38Z"/>
        </g>
      </g>
      <path class="cls-15" d="M132.11,92.61c5.24,.97,7.64-9.98,7.64-9.98,0,0,10.74,1.17,15.93-13.89,0,0-1,7.17-6.11,12.27,0,0,19.15,0,28.82-14.99,0,0-4.04,7.74-7.33,10.29,0,0,8.18-1.37,12.74-7.41,0,0,2.34,9.5,4.63,12.3,0,0,2.75-33.22-28.33-32.97,0,0-19.36-.77-27.88,13.71-8.52,14.48-.09,30.68-.09,30.68Z"/>
      <g>
        <path class="cls-12" d="M136.89,94.28s-6.14-10.35-10.79-8.23c-4.64,2.12-.53,16.76,4.56,19.1,5.09,2.34,7.35-2.33,7.35-2.33l-1.12-8.54Z"/>
        <path class="cls-15" d="M127.38,90.22c-.08-.01-.11,.1-.04,.14,3.56,1.76,5.24,5.31,6.33,8.94-.99-1.44-2.42-2.3-4.34-1.13-.1,.06-.02,.22,.08,.2,1.53-.21,2.59,.13,3.52,1.41,.66,.91,1.07,2.02,1.51,3.05,.15,.34,.75,.21,.66-.18,0-.03-.02-.06-.02-.09,.44-4.68-2.71-11.5-7.7-12.35Z"/>
      </g>
    </g>
  </g>
  <g>
    <g>
      <path class="cls-8" d="M500,246.56c-.86,0-1.55-.69-1.55-1.55v-7.64c0-.86,.69-1.55,1.55-1.55s1.55,.69,1.55,1.55v7.64c0,.86-.69,1.55-1.55,1.55Z"/>
      <path class="cls-8" d="M535.67,261.34c-.4,0-.79-.15-1.09-.45-.6-.6-.6-1.58,0-2.19l5.41-5.4c.6-.6,1.58-.6,2.19,0,.6,.6,.6,1.58,0,2.19l-5.41,5.41c-.3,.3-.7,.45-1.09,.45Z"/>
      <path class="cls-8" d="M458.92,338.09c-.4,0-.79-.15-1.09-.45-.6-.6-.6-1.58,0-2.19l5.4-5.41c.6-.6,1.58-.6,2.19,0,.6,.6,.6,1.58,0,2.19l-5.41,5.4c-.3,.3-.7,.45-1.09,.45Z"/>
      <path class="cls-8" d="M558.09,297.01h-7.64c-.86,0-1.55-.69-1.55-1.55s.69-1.55,1.55-1.55h7.64c.85,0,1.55,.69,1.55,1.55s-.69,1.55-1.55,1.55Z"/>
      <path class="cls-8" d="M449.55,297.01h-7.64c-.86,0-1.55-.69-1.55-1.55s.69-1.55,1.55-1.55h7.64c.86,0,1.55,.69,1.55,1.55s-.69,1.55-1.55,1.55Z"/>
      <path class="cls-8" d="M541.08,338.09c-.4,0-.79-.15-1.09-.45l-5.41-5.4c-.6-.6-.6-1.58,0-2.19,.6-.6,1.58-.6,2.19,0l5.41,5.41c.6,.6,.6,1.58,0,2.19-.3,.3-.7,.45-1.09,.45Z"/>
      <path class="cls-8" d="M464.33,261.34c-.4,0-.79-.15-1.09-.45l-5.4-5.41c-.6-.6-.6-1.58,0-2.19,.6-.6,1.58-.6,2.19,0l5.41,5.4c.6,.6,.6,1.58,0,2.19-.3,.3-.7,.45-1.09,.45Z"/>
      <path class="cls-8" d="M519.48,250.47c-.2,0-.4-.04-.6-.12-.79-.33-1.16-1.24-.83-2.03l2.95-7.05c.33-.79,1.24-1.16,2.03-.83,.79,.33,1.16,1.24,.83,2.03l-2.95,7.05c-.25,.59-.82,.95-1.43,.95Z"/>
      <path class="cls-8" d="M546.68,277.88c-.61,0-1.19-.36-1.43-.96-.32-.79,.05-1.69,.85-2.02l7.07-2.9c.79-.32,1.69,.05,2.02,.85,.32,.79-.05,1.7-.85,2.02l-7.07,2.9c-.19,.08-.39,.12-.59,.12Z"/>
      <path class="cls-8" d="M446.24,319.04c-.61,0-1.19-.36-1.43-.96-.32-.79,.05-1.7,.85-2.02l7.07-2.9c.79-.32,1.69,.05,2.02,.85,.32,.79-.05,1.7-.85,2.02l-7.07,2.9c-.19,.08-.39,.12-.59,.12Z"/>
      <path class="cls-8" d="M553.59,319.45c-.2,0-.4-.04-.6-.12l-7.05-2.95c-.79-.33-1.16-1.24-.83-2.03,.33-.79,1.24-1.16,2.03-.83l7.05,2.95c.79,.33,1.16,1.24,.83,2.03-.25,.59-.82,.95-1.43,.95Z"/>
      <path class="cls-8" d="M453.46,277.53c-.2,0-.4-.04-.6-.12l-7.05-2.95c-.79-.33-1.16-1.24-.83-2.03,.33-.79,1.24-1.16,2.03-.83l7.05,2.95c.79,.33,1.16,1.24,.83,2.03-.25,.59-.82,.95-1.43,.95Z"/>
      <path class="cls-8" d="M480.87,250.33c-.61,0-1.19-.36-1.43-.96l-2.9-7.07c-.32-.79,.05-1.69,.85-2.02,.79-.32,1.7,.05,2.02,.85l2.9,7.07c.32,.79-.05,1.69-.85,2.02-.19,.08-.39,.12-.59,.12Z"/>
    </g>
    <g>
      <path class="cls-8" d="M513.56,369.11h-26.15c-1.48,0-2.67-1.2-2.67-2.67h0c0-1.48,1.2-2.67,2.67-2.67h26.15c1.48,0,2.67,1.2,2.67,2.67h0c0,1.48-1.2,2.67-2.67,2.67Z"/>
      <path class="cls-8" d="M513.56,377.5h-26.15c-1.48,0-2.67-1.2-2.67-2.67h0c0-1.48,1.2-2.67,2.67-2.67h26.15c1.48,0,2.67,1.2,2.67,2.67h0c0,1.48-1.2,2.67-2.67,2.67Z"/>
      <path class="cls-8" d="M494.14,380.66c-.65,0-1.14,.59-1.02,1.23,.64,3.44,3.66,6.05,7.29,6.05s6.64-2.61,7.29-6.05c.12-.64-.37-1.23-1.02-1.23h-12.54Z"/>
      <path class="cls-8" d="M510.79,360.4h-20.99c-3.64,0-6.7-2.84-6.97-6.47-.89-11.84-5.72-19.34-10.83-27.28-5.58-8.66-11.34-17.61-11.34-32.09,0-19.55,13.98-36,33.25-39.12,4.5-.73,9.25-.67,13.73,.16,18.72,3.5,32.31,19.88,32.31,38.96,0,14.48-5.77,23.43-11.34,32.09-5.11,7.94-9.94,15.44-10.83,27.28-.27,3.63-3.34,6.47-6.97,6.47Zm-10.5-100.31c-1.87,0-3.74,.15-5.56,.44-16.76,2.71-28.92,17.02-28.92,34.03,0,12.96,5.11,20.9,10.52,29.3,5.24,8.13,10.65,16.54,11.64,29.68,.07,.95,.87,1.7,1.83,1.7h20.99c.97,0,1.75-.73,1.83-1.7,.99-13.14,6.4-21.55,11.64-29.68,5.41-8.4,10.52-16.34,10.52-29.3,0-16.59-11.82-30.84-28.1-33.88-2.09-.39-4.24-.59-6.4-.59Z"/>
      <path class="cls-8" d="M481.09,319.4c-.8,0-1.58-.37-2.09-1.06-14.32-19.67-3.76-38.14-3.31-38.91,.72-1.23,2.3-1.64,3.53-.92,1.23,.72,1.64,2.3,.92,3.53-.4,.68-9.25,16.4,3.03,33.27,.84,1.15,.59,2.77-.57,3.6-.46,.33-.99,.49-1.52,.49Z"/>
    </g>
  </g>
  <path class="cls-8" d="M512.06,580.82c-3.03,0-5.71,1.5-7.36,3.79l-17.14-11.06c.53-1.15,.83-2.42,.83-3.77,0-1.27-.27-2.49-.74-3.59l17.45-10.72c1.66,1.99,4.16,3.26,6.96,3.26,5.01,0,9.06-4.06,9.06-9.06s-4.06-9.06-9.06-9.06-9.06,4.06-9.06,9.06c0,1.27,.27,2.49,.74,3.59l-17.45,10.72c-1.66-1.99-4.16-3.26-6.96-3.26-5.01,0-9.06,4.06-9.06,9.06s4.06,9.06,9.06,9.06c2.72,0,5.16-1.21,6.82-3.11l17.35,11.2c-.32,.93-.5,1.92-.5,2.96,0,5.01,4.06,9.06,9.06,9.06s9.06-4.06,9.06-9.06-4.06-9.06-9.06-9.06Z"/>
</svg>