<?xml version="1.0" encoding="UTF-8"?>
<svg id="Layer_1" data-name="Layer 1" xmlns="http://www.w3.org/2000/svg" viewBox="0 0 1000 641.24">
  <defs>
    <style>
      .cls-1 {
        fill: #fff;
      }

      .cls-2 {
        fill: #b6deda;
      }

      .cls-3 {
        fill: #ffc800;
      }

      .cls-4 {
        fill: #2b454e;
      }

      .cls-5 {
        fill: #42595d;
      }

      .cls-6 {
        fill: #c8c8c8;
      }

      .cls-7 {
        fill: #5572bd;
      }

      .cls-8 {
        opacity: .1;
      }

      .cls-9 {
        fill: #375a64;
      }

      .cls-10 {
        fill: #e9b63c;
      }

      .cls-11 {
        fill: #dcdcdc;
      }

      .cls-12 {
        fill: #a8a8a8;
      }

      .cls-13 {
        fill: #d85f66;
      }

      .cls-14 {
        fill: #d55456;
      }

      .cls-15 {
        fill: #ececec;
      }

      .cls-16 {
        fill: #1a2e35;
      }
    </style>
  </defs>
  <g>
    <path class="cls-15" d="M109.08,441.89c-15.31,.28-37.62,.87-52.74,.87,0,0-.86,0-.86,0,0,0,0-.87,0-.87l-.1-22.28s0-.98,0-.98c0,0,.98,0,.98,0,15.78,.07,37.72,.15,53.27,.45-.04,6.75-.42,16-.54,22.81h0Zm0,0c-.19-6.52-.39-15.89-.53-22.28,0,0,.53,.53,.53,.53-15.25,.27-37.26,.4-52.74,.44,0,0,.97-.97,.97-.97l-.1,22.28s-.87-.87-.87-.87c14.91,.03,37.62,.56,52.74,.87h0Z"/>
    <path class="cls-15" d="M79.66,469.99c-15.31,.28-37.62,.87-52.74,.87,0,0-.86,0-.86,0,0,0,0-.87,0-.87l-.1-22.28s0-.98,0-.98c0,0,.98,0,.98,0,15.78,.07,37.72,.15,53.27,.45-.04,6.75-.42,16-.54,22.81h0Zm0,0c-.19-6.52-.39-15.89-.53-22.28,0,0,.53,.53,.53,.53-15.25,.27-37.26,.4-52.74,.44,0,0,.97-.97,.97-.97l-.1,22.28-.87-.87c14.91,.03,37.62,.56,52.74,.87h0Z"/>
    <rect class="cls-15" x="85.76" y="447.7" width="52.74" height="22.28"/>
    <path class="cls-15" d="M925.29,136.43c-15.31,.28-37.62,.87-52.74,.87,0,0-.86,0-.86,0,0,0,0-.87,0-.87l-.1-22.28v-.98s.97,0,.97,0c15.78,.07,37.72,.14,53.27,.45-.04,6.75-.42,16-.54,22.81h0Zm0,0c-.19-6.52-.39-15.89-.53-22.28,0,0,.53,.53,.53,.53-15.25,.27-37.26,.4-52.74,.44,0,0,.97-.97,.97-.97l-.1,22.28-.87-.87c14.91,.03,37.62,.56,52.74,.87h0Z"/>
    <rect class="cls-15" x="843.13" y="142.24" width="52.74" height="22.28"/>
    <path class="cls-15" d="M954.71,164.53c-15.31,.28-37.62,.87-52.74,.87,0,0-.86,0-.86,0v-.87s-.11-22.28-.11-22.28v-.98s.97,0,.97,0c15.78,.07,37.72,.14,53.27,.45-.04,6.75-.42,16-.54,22.81h0Zm0,0c-.19-6.52-.39-15.89-.53-22.28,0,0,.53,.53,.53,.53-15.25,.27-37.26,.4-52.74,.44,0,0,.97-.97,.97-.97,0,0-.1,22.28-.1,22.28,0,0-.87-.87-.87-.87,14.91,.03,37.62,.56,52.74,.87h0Z"/>
    <rect class="cls-15" x="905.46" y="447.7" width="52.74" height="22.28"/>
    <rect class="cls-15" x="845.78" y="266.39" width="52.74" height="22.28"/>
    <rect class="cls-15" x="429.76" y="406.78" width="52.74" height="22.28"/>
  </g>
  <g>
    <g>
      <rect class="cls-11" x="110.31" y="83.93" width="70.15" height="70.14" transform="translate(264.39 -26.38) rotate(90)"/>
      <rect class="cls-1" x="121.19" y="94.81" width="48.39" height="48.39" transform="translate(264.39 -26.38) rotate(90)"/>
      <polygon class="cls-15" points="169.58 94.81 121.19 94.81 121.19 143.2 169.58 94.81"/>
      <rect class="cls-6" x="103.46" y="83.93" width="6.86" height="70.15" transform="translate(213.77 238.01) rotate(180)"/>
    </g>
    <g>
      <rect class="cls-11" x="197.15" y="83.93" width="70.15" height="70.14" transform="translate(351.23 -113.21) rotate(90)"/>
      <rect class="cls-1" x="208.02" y="94.81" width="48.39" height="48.39" transform="translate(351.23 -113.21) rotate(90)"/>
      <polygon class="cls-15" points="242.21 94.81 208.02 94.81 208.02 128.99 242.21 94.81"/>
      <rect class="cls-6" x="190.29" y="83.93" width="6.86" height="70.15" transform="translate(387.44 238.01) rotate(180)"/>
    </g>
    <g>
      <rect class="cls-11" x="142.96" y="138.22" width="91.67" height="156.98" transform="translate(405.51 27.91) rotate(90)"/>
      <rect class="cls-1" x="154.3" y="149.68" width="69" height="134.06" transform="translate(405.51 27.91) rotate(90)"/>
      <polygon class="cls-15" points="209.65 182.21 121.77 182.21 121.77 227.44 209.65 182.21"/>
      <rect class="cls-6" x="103.46" y="170.87" width="6.86" height="91.67" transform="translate(213.77 433.42) rotate(180)"/>
    </g>
  </g>
  <g>
    <g>
      <rect class="cls-1" x="201.87" y=".39" width="680.45" height="375.09"/>
      <path class="cls-16" d="M882.32,375.48c-.11,.1-680.61,.14-680.75,.22-.22,0-.07-375.23-.23-375.31,0,0,0-.38,0-.38,0,0,.52,0,.52,0,.09-.07,680.57,.27,680.67,.22,.15,.09-.33,375.13-.22,375.25h0Zm0,0c.07,.08-.53-375.78,0-374.94,0,0-680.45,.22-680.45,.22,0,0,.52-.38,.52-.38-.08-.1,.19,376.03-.52,374.88,0,0,680.45,.21,680.45,.21h0Z"/>
    </g>
    <rect class="cls-4" x="201.87" y=".15" width="680.45" height="18.75"/>
    <path class="cls-14" d="M218.11,9.53c0,2.25-1.83,4.08-4.08,4.08s-4.08-1.82-4.08-4.08,1.83-4.08,4.08-4.08,4.08,1.82,4.08,4.08Z"/>
    <path class="cls-10" d="M234.75,9.53c0,2.25-1.83,4.08-4.08,4.08s-4.08-1.82-4.08-4.08,1.82-4.08,4.08-4.08,4.08,1.82,4.08,4.08Z"/>
    <path class="cls-2" d="M251.4,9.53c0,2.25-1.82,4.08-4.08,4.08s-4.08-1.82-4.08-4.08,1.82-4.08,4.08-4.08,4.08,1.82,4.08,4.08Z"/>
    <g>
      <rect class="cls-9" x="675.69" y="139.09" width="147.16" height="141.38" transform="translate(1498.55 419.56) rotate(180)"/>
      <polygon class="cls-16" points="724.24 232.04 822.86 232.04 773.55 182.52 724.24 232.04"/>
      <polygon class="cls-4" points="675.69 232.09 763.15 232.09 719.42 199.84 675.69 232.09"/>
      <rect class="cls-4" x="675.69" y="232.04" width="147.16" height="48.43"/>
      <path class="cls-1" d="M717.01,174.05c0,6.96-5.64,12.6-12.6,12.6s-12.6-5.64-12.6-12.6,5.64-12.6,12.6-12.6,12.6,5.64,12.6,12.6Z"/>
    </g>
    <path class="cls-6" d="M595.02,140.22c16.09-1.07,32.24-1.08,48.33,0-16.09,1.08-32.24,1.07-48.33,0h0Z"/>
    <path class="cls-6" d="M482.67,140.22c32.31-1.03,67.88-1.04,100.2,0-32.31,1.04-67.88,1.03-100.2,0h0Z"/>
    <path class="cls-6" d="M409.32,140.22c19.72-1.05,39.49-1.06,59.21,0-19.72,1.06-39.49,1.05-59.21,0h0Z"/>
    <path class="cls-6" d="M309.97,140.22c26.71-1.05,53.47-1.06,80.18,0-26.71,1.06-53.47,1.05-80.18,0h0Z"/>
    <path class="cls-6" d="M606.63,160.25c12.22-1.07,24.51-1.08,36.73,0-12.22,1.08-24.51,1.07-36.73,0h0Z"/>
    <path class="cls-6" d="M529.2,160.25c21.93-1.05,43.9-1.06,65.83,0-21.93,1.06-43.9,1.05-65.83,0h0Z"/>
    <path class="cls-6" d="M436.38,160.25c26.07-1.05,52.18-1.06,78.25,0-26.07,1.06-52.18,1.05-78.25,0h0Z"/>
    <path class="cls-6" d="M309.97,160.25c35.79-1.03,75.17-1.04,110.95,0-35.79,1.04-75.17,1.03-110.95,0h0Z"/>
    <path class="cls-6" d="M602.45,180.29c13.61-1.07,27.3-1.08,40.91,0-13.61,1.08-27.3,1.07-40.91,0h0Z"/>
    <path class="cls-6" d="M545.94,180.29c14.31-1.07,28.7-1.08,43.01,0-14.31,1.08-28.7,1.07-43.01,0h0Z"/>
    <path class="cls-6" d="M459.24,180.29c26-1.05,52.04-1.06,78.04,0-26,1.06-52.04,1.05-78.04,0h0Z"/>
    <path class="cls-6" d="M391.16,180.29c19.78-1.05,39.61-1.06,59.38,0-19.78,1.06-39.61,1.05-59.38,0h0Z"/>
    <path class="cls-6" d="M259.85,180.29c37.8-1.03,79.4-1.04,117.21,0-37.8,1.04-79.4,1.03-117.21,0h0Z"/>
    <path class="cls-6" d="M428.17,200.33c16.69-1.07,33.45-1.08,50.14,0-16.69,1.08-33.44,1.07-50.14,0h0Z"/>
    <path class="cls-6" d="M342.05,200.33c24.92-1.05,49.89-1.06,74.82,0-24.92,1.06-49.89,1.05-74.82,0h0Z"/>
    <path class="cls-6" d="M259.85,200.33c23.66-1.05,47.36-1.06,71.01,0-23.66,1.06-47.36,1.05-71.01,0h0Z"/>
    <path class="cls-6" d="M595.02,240.4c16.09-1.07,32.24-1.08,48.33,0-16.09,1.08-32.24,1.07-48.33,0h0Z"/>
    <path class="cls-6" d="M498.57,240.4c28.27-1.05,56.58-1.06,84.85,0-28.27,1.06-56.58,1.05-84.85,0h0Z"/>
    <path class="cls-6" d="M413.04,240.4c23.82-1.05,47.68-1.06,71.5,0-23.82,1.06-47.68,1.05-71.5,0h0Z"/>
    <path class="cls-6" d="M358.07,240.4c13.96-1.07,28-1.08,41.96,0-13.96,1.08-28,1.07-41.96,0h0Z"/>
    <path class="cls-6" d="M259.85,240.4c28.42-1.05,56.87-1.06,85.29,0-28.42,1.06-56.87,1.05-85.29,0h0Z"/>
    <path class="cls-6" d="M604.56,260.43c12.91-1.07,25.89-1.08,38.8,0-12.91,1.08-25.89,1.07-38.8,0h0Z"/>
    <path class="cls-6" d="M527.87,260.43c20.97-1.05,41.99-1.06,62.97,0-20.97,1.06-41.99,1.05-62.97,0h0Z"/>
    <path class="cls-6" d="M451.6,260.43c21.88-1.05,43.82-1.06,65.7,0-21.88,1.06-43.81,1.05-65.7,0h0Z"/>
    <path class="cls-6" d="M393.92,260.43c14.98-1.07,30.03-1.08,45.01,0-14.98,1.08-30.03,1.07-45.01,0h0Z"/>
    <path class="cls-6" d="M318.45,260.43c21.45-1.05,42.94-1.06,64.38,0-21.45,1.06-42.94,1.05-64.38,0h0Z"/>
    <path class="cls-6" d="M259.85,260.43c16.69-1.07,33.43-1.08,50.12,0-16.69,1.08-33.43,1.07-50.12,0h0Z"/>
    <path class="cls-6" d="M464.76,280.47c18.55-1.05,37.15-1.06,55.7,0-18.55,1.06-37.15,1.05-55.7,0h0Z"/>
    <path class="cls-6" d="M420.85,280.47c11.37-1.07,22.84-1.08,34.21,0-11.37,1.08-22.84,1.07-34.21,0h0Z"/>
    <path class="cls-6" d="M352.44,280.47c18.66-1.05,37.37-1.06,56.03,0-18.66,1.06-37.37,1.05-56.03,0h0Z"/>
    <path class="cls-6" d="M259.85,280.47c26.87-1.05,53.78-1.06,80.65,0-26.87,1.06-53.78,1.05-80.65,0h0Z"/>
    <g>
      <path class="cls-6" d="M676.09,96.34c61.09-1.02,85.64-1.03,146.72,0-61.09,1.03-146.72,0-146.72,0Z"/>
      <path class="cls-6" d="M259.81,96.34c61.09-1.02,85.64-1.03,146.72,0-61.09,1.03-85.64,1.02-146.72,0h0Z"/>
    </g>
    <rect class="cls-15" x="261.87" y="125.36" width="34.89" height="34.89"/>
    <rect class="cls-3" x="201.87" y="18.9" width="680.45" height="37.59"/>
    <rect class="cls-15" x="459.24" y="308.01" width="172.52" height="48.67"/>
    <rect class="cls-3" x="455.06" y="303.82" width="172.52" height="48.67"/>
    <g>
      <path class="cls-1" d="M498.8,329.57h-2.94v5.18c0,.72-.6,1.31-1.34,1.31s-1.31-.6-1.31-1.31v-14.08c0-.74,.6-1.31,1.31-1.31h4.27c2.84,0,5.13,2.29,5.13,5.13s-2.29,5.08-5.13,5.08Zm-2.94-2.65h2.94c1.38,0,2.46-1.1,2.48-2.43-.02-1.38-1.1-2.48-2.48-2.48h-2.94v4.92Z"/>
      <path class="cls-1" d="M514.05,336.06c-3.84,0-6.9-3.1-6.9-6.9v-8.5c0-.74,.57-1.31,1.31-1.31s1.34,.57,1.34,1.31v8.5c0,2.34,1.91,4.25,4.25,4.25s4.25-1.91,4.25-4.25v-8.5c0-.74,.6-1.31,1.34-1.31s1.31,.57,1.31,1.31v8.5c0,3.79-3.08,6.9-6.9,6.9Z"/>
      <path class="cls-1" d="M526.55,334.75v-14.08c0-.74,.6-1.31,1.31-1.31h3.39c2.51,0,4.54,2.03,4.54,4.54,0,1.03-.33,1.96-.91,2.72,1.43,.91,2.41,2.5,2.41,4.32,0,2.84-2.29,5.13-5.11,5.13h-4.23s-.02-.02-.02-.02c-.05,0-.05,.02-.07,.02-.72,0-1.31-.6-1.31-1.31Zm2.65-8.93h2.05c1.05,0,1.89-.88,1.89-1.93s-.84-1.89-1.89-1.89h-2.05v3.82Zm0,7.59h2.98c1.36-.02,2.46-1.1,2.46-2.48s-1.1-2.43-2.46-2.46h-2.98v4.94Z"/>
      <path class="cls-1" d="M540.72,334.75v-14.08c0-.72,.57-1.31,1.31-1.31s1.34,.6,1.34,1.31v12.75h6.47c.69,0,1.31,.6,1.31,1.34s-.62,1.31-1.31,1.31h-7.81c-.74,0-1.31-.6-1.31-1.31Z"/>
      <path class="cls-1" d="M554.44,320.66c0-.74,.57-1.31,1.31-1.31s1.34,.57,1.34,1.31v14.08c0,.74-.62,1.31-1.34,1.31s-1.31-.57-1.31-1.31v-14.08Z"/>
      <path class="cls-1" d="M561.02,331.91c.43-.53,1.22-.6,1.74-.17,1.05,.86,2.86,1.86,4.56,1.84,1.19,0,2.27-.36,2.98-.88,.72-.53,1.03-1.12,1.03-1.72,0-.31-.07-.53-.21-.76-.14-.24-.36-.48-.72-.72-.69-.45-1.86-.86-3.27-1.12h-.05c-1.12-.21-2.17-.5-3.08-.93-.91-.43-1.7-1.03-2.22-1.86-.36-.57-.55-1.24-.55-1.96,0-1.43,.81-2.67,1.91-3.48,1.12-.81,2.58-1.27,4.13-1.27,2.29,0,3.99,1.12,5.2,1.91,.55,.38,.72,1.15,.33,1.69-.36,.57-1.12,.74-1.7,.36-1.22-.81-2.39-1.53-3.84-1.53-1.07,0-2.03,.33-2.67,.81-.64,.48-.91,1-.91,1.51,0,.29,.05,.48,.17,.67,.12,.19,.33,.4,.64,.62,.62,.43,1.7,.81,2.98,1.05h.05c1.22,.24,2.34,.55,3.29,1,.98,.48,1.84,1.1,2.39,1.98,.36,.57,.57,1.29,.57,2.03,0,1.53-.86,2.84-2.05,3.7-1.17,.86-2.72,1.36-4.42,1.36-2.58-.02-4.75-1.31-6.11-2.39-.52-.43-.6-1.22-.19-1.74Z"/>
      <path class="cls-1" d="M577.46,334.75v-14.08c0-.74,.57-1.31,1.31-1.31s1.34,.57,1.34,1.31v5.73h6.18v-5.73c0-.74,.57-1.31,1.31-1.31s1.34,.57,1.34,1.31v14.08c0,.74-.6,1.31-1.34,1.31s-1.31-.57-1.31-1.31v-5.73h-6.18v5.73c0,.74-.59,1.31-1.34,1.31s-1.31-.57-1.31-1.31Z"/>
    </g>
  </g>
  <path class="cls-16" d="M381.28,263.53c6.54-3.8,10.83-11.07,10.29-18.75-.53-7.55-5.64-14.12-12.49-17.03,6.72-4.53,11.06-12.08,8.47-20.53-2.68-8.74-11.26-12.97-19.94-11.67-.06,0-.06,.12,0,.12,8.03-.32,16.15,3.83,18.52,11.92,2.02,6.93-.77,12.65-5.46,16.93,2.75-5.33,3.88-11.56,1.82-17.33-2.27-6.33-8.26-11.05-14.96-11.29,.45-7.64-1.72-15.95-7.83-20.96-5.14-4.23-12.52-5.38-18.39-2.28-1.04-7.52-6.58-14.25-14.07-16.16-7.03-1.8-14.54,.83-19.25,6.17-2.4-11.21-15.88-16.27-25.11-9.21-1.52-3.84-5.42-6.25-9.59-6.44-4.81-.24-9.08,2.43-12.55,5.59-3.53-2.38-8.15-3.14-12.17-1.38-5.36,2.35-7.81,8.15-6.47,13.57-7.59,.88-15.71,2.9-20.94,8.81-4.3,4.87-6.18,12.15-3.19,18.07-13.37,3.39-20.75,17.57-15.85,30.51-4.95,2.88-7.79,8.41-7.75,14.15,.04,5.79,1.64,9.53,2.56,11.24-4.24,2.94-6,8.44-4.52,13.39,1.46,4.87,5.19,7.84,9.55,9.8,.71,1.08,1.2,2.24,1.44,3.81,1.11,7.08,5.26,12.92,11.7,16.04-1.46,8.32,5.45,16.48,13.88,16.43,1.14,8.53,9.77,14.83,18.23,13.4,1.62,6.58,5.95,12.3,12.05,15.38,4.67,2.36,10.9,2.99,14.93-.58,1.33,3.9,6.3,5.2,10.15,4.12,1.46-.41,2.85-1.07,4.18-1.79,1.58-.86,3.36-2.38,5.18-2.63,1.88-.28,3.71,.93,5.43,1.45,1.24,.37,2.53,.6,3.82,.71,9.78,.75,19.32-5.98,21.8-15.4,6.68,1.98,13.14-2.05,17.41-7.12,1.4-1.67,2.48-3.49,3.56-5.36,1-1.73,1.98-3.19,3.85-4.13,1.13-.57,2.38-.88,3.52-1.44,3.86-1.92,5.55-5.69,6.8-9.57,18.07,4.57,29.13-15.34,21.39-30.54Zm-186.55-.9c-2.4-5.07-1.29-10.53,2.49-14.54,.21,.34,.36,.56,.36,.56,0,0-.83,1.55-1.15,2.35-.57,1.46-.91,3.01-1.03,4.58-.26,3.26,.45,6.61,2.06,9.45,.72,1.28,1.65,2.39,2.65,3.45,.14,.14,.23,.27,.36,.4-2.36-1.58-4.42-3.48-5.73-6.25Zm57.38-108.92c-4.91,1.41-8.6,5.87-8.86,10.95-.13,.01-.27,.04-.41,.05-.46-5.25,.56-10.16,6.19-12.51,3.93-1.64,7.52-.64,10.6,1.46-.02,.02-.04,.04-.06,.05-2.4-.66-4.94-.74-7.46,0Zm108.04,139.58c.02-.06,.04-.12,.06-.18,12.45-.25,21.65-10.35,21.79-21.9,.74,12.76-6.01,24.22-21.84,22.08Z"/>
  <path class="cls-14" d="M292.74,389.39c16.92,71.92,51.63,158.06,66.31,171.99,18.57,17.62,141.32,39.97,147.43,40.6,15.12,1.44,44.51-97.97,28.42-100.2-24.51-3.41-113.56-7.77-118.93-13.22-5.57-5.7-43.39-52.88-82.32-106.21-26.87-36.85-51.41-37.58-40.91,7.05Z"/>
  <path class="cls-14" d="M498.15,597.05c1.63,.81,24.74,12.28,39.02,16.34,10.65,3.03,41.54,10.91,46.04-.48,3.08-7.77-14.55-14.54-26.9-19.61-6.51-2.67-14.55-9.42-12.65-13.61,3.31-7.32,20.06-.08,31.09,6.25,21.32,12.24,49.76,34.32,62.69,23.46,4.88-4.1-.86-11.5-9.23-18.73,13.58,8.41,28.04,15.29,33.65,10.95,3.22-2.47,3.35-5.85,1.53-9.69,4.18,1.34,7.88,1.05,10.43-1.68,4.37-4.63,2.19-11.41-2.66-18.35,1.54-.17,2.92-.96,3.98-2.65,9.24-14.25-37.59-54.77-53.74-58.49-47.49-11.02-97.45-8.65-97.45-8.65-18.55,14.99-25.83,94.91-25.79,94.95Z"/>
  <g>
    <path class="cls-16" d="M567.66,553.02c11.18,1.69,22.2,5.81,31.7,12.01,12.07,7.87,20.09,17.12,30.23,26.42,.27,.24-.1,.67-.37,.42-4.83-4.42-24.84-21.03-30.01-24.8-9.47-6.91-20.03-11.74-31.59-13.85-.12-.02-.08-.21,.04-.19Z"/>
    <path class="cls-16" d="M576.39,532.84c12.48,3.34,25.27,6.72,36.88,12.55,12.7,6.38,22.66,16.85,32.46,26.92,5.88,6.05,11.64,12.22,17.24,18.53,.23,.26-.12,.69-.37,.42-9.94-10.4-20.19-20.52-30.75-30.3-9.93-9.2-20.99-16.22-33.68-20.97-7.15-2.68-14.49-4.81-21.81-6.93-.14-.04-.09-.26,.05-.22Z"/>
    <path class="cls-16" d="M589.61,515.17c12.12,2.42,22.7,4.49,33.46,10.92,14.24,8.52,28.03,22.92,32.86,28.02,5.34,5.64,10.49,11.45,15.55,17.35,.21,.24-.21,.6-.42,.37-11.56-12.88-24.01-25.11-37.14-36.39-6.27-5.39-13.09-10.08-20.73-13.32-7.55-3.21-15.64-5-23.6-6.87-.05-.01-.04-.09,.02-.08Z"/>
  </g>
  <path class="cls-7" d="M514.15,496.01l-36.97,119.35s-101.98-28.52-120.7-48.49c-18.72-19.97-53.62-123.41-63.99-173.58-10.37-50.17,15.03-49.06,38.54-17.52,23.51,31.54,82.03,107.98,85.29,109.63,3.26,1.65,97.83,10.62,97.83,10.62Z"/>
  <path class="cls-16" d="M465.32,561.08c4.19-13.32,8.48-26.62,12.18-40.11,2.1-7.66,4.24-15.32,6.26-23,.08-.29-.41-.47-.51-.18-4.74,13.2-9.45,26.46-13.58,39.88-4.11,13.36-8.33,26.68-12.26,40.09-2.24,7.63-4.24,15.29-6.01,23.06-.04,.15,.21,.24,.27,.09,5.18-13.05,9.43-26.41,13.65-39.83Z"/>
  <path class="cls-8" d="M425.74,599.26c-1.51-.52-3.01-1.04-4.52-1.56-8.5-2.98-17.17-6.19-25.33-9.47-1.06-.41-2.09-.83-3.11-1.26-1.64-.67-3.28-1.36-4.86-2.04-.81-.33-1.58-.69-2.38-1.02-.28-.13-.57-.24-.85-.37-.83-.37-1.64-.74-2.45-1.12-3.24-1.47-6.32-2.94-9.18-4.43-.66-.34-1.34-.69-1.98-1.04-5.22-2.79-9.57-5.55-12.61-8.19-.36-.32-.72-.64-1.04-.95-.36-.32-.66-.64-.95-.94-18.73-19.97-53.62-123.4-63.99-173.58-.12-.58-.23-1.16-.35-1.73-.02-.13-.04-.24-.06-.38-.7-3.81-1.32-8.53-1.84-13.64v-.06c-1.55-24.99,10.26-29.13,24.93-18.23,37,78.04,93.49,206.92,110.56,240Z"/>
  <g>
    <polygon class="cls-11" points="86.92 638.05 334.5 638.05 285.14 350.89 100 350.89 86.92 638.05"/>
    <polygon class="cls-12" points="86.92 638.05 108.63 638.05 120.81 350.89 100 350.89 86.92 638.05"/>
  </g>
  <path class="cls-3" d="M382.61,638.05H127.34c-1.13-5.08,39.02-228.76,125.11-291.72,19.1-13.97,52.98-4.99,62.41,8.6,47.37,68.27,67.74,283.12,67.74,283.12Z"/>
  <path class="cls-7" d="M246.8,348s22.54,99,24.86,107.54c2.32,8.54,10.66,182.5,10.66,182.5H125.03s35.39-221.85,121.77-290.04Z"/>
  <path class="cls-7" d="M314.86,354.93s9.85,75.81,11.03,80.28c1.18,4.47,33.42,202.84,33.42,202.84h24.51s-21.37-229.36-68.96-283.12Z"/>
  <path class="cls-13" d="M296.39,395.71c-15.35,1.13-37.13-25.54-44.22-45.47-.48-1.37,12.78-50.78,14.39-60.84,.32-2.07,60.66,25.44,60.66,25.44,0,0-9.58,20.1-12.28,37.66-.21,1.47-3.71,42.11-18.55,43.21Z"/>
  <path class="cls-16" d="M327.23,314.85s-9.59,20.1-12.28,37.65c-.02,.18-.1,.97-.25,2.22-10.78-2.04-39.81-11.17-51.06-52.07v-.02c1.42-5.92,2.53-10.76,2.92-13.23,.33-2.06,60.68,25.45,60.68,25.45Z"/>
  <path class="cls-13" d="M273.35,212.47c-11.49,20.72-13.43,87.25-.71,104.89,18.44,25.57,55.44,35.53,78.88,11.8,22.72-23,23.72-109.75,8.88-126.47-21.86-24.64-70.08-20.83-87.05,9.78Z"/>
  <g>
    <g>
      <path class="cls-16" d="M327.63,268.02c-.03-.17-.36,.2-.36,.38-.08,4.48-.92,9.61-5.04,10.9-.13,.04-.13,.27,.03,.25,4.98-.46,6.03-7.27,5.38-11.53Z"/>
      <path class="cls-16" d="M323.86,263.15c-7.17-.9-8.44,13.52-1.79,14.35,6.54,.82,7.81-13.6,1.79-14.35Z"/>
    </g>
    <g>
      <path class="cls-16" d="M353,270.63c.05-.17,.33,.24,.31,.42-.53,4.45-.4,9.64,3.51,11.48,.12,.06,.09,.28-.06,.25-4.87-1.13-4.98-8.02-3.77-12.15Z"/>
      <path class="cls-16" d="M357.4,266.31c7.23,.09,6.53,14.54-.17,14.46-6.59-.08-5.89-14.53,.17-14.46Z"/>
    </g>
    <path class="cls-16" d="M319.06,258.97c2,.36,3.9,.37,5.92,.52,2.27,.17,4.07,.55,6.14-.62,1.11-.63,1.59-2.44,1.08-3.58-1.18-2.65-3.91-3.55-6.64-3.88-2.96-.35-5.33,.14-7.84,1.73-2.43,1.55-1.3,5.34,1.34,5.82Z"/>
    <path class="cls-16" d="M363.61,259.54c-1.97-.5-3.7-1.29-5.6-1.99-2.14-.79-3.93-1.19-5.32-3.12-.75-1.03-.43-2.88,.5-3.7,2.18-1.92,5.04-1.6,7.65-.76,2.84,.91,4.79,2.34,6.41,4.84,1.57,2.42-1.04,5.39-3.64,4.73Z"/>
    <path class="cls-16" d="M318,308.44c.98,1.14,1.92,2.67,3.53,2.95,1.54,.27,3.43-.27,4.9-.7,.14-.04,.28,.12,.17,.25-1.31,1.61-3.84,2.47-5.88,1.93-1.99-.53-2.84-2.37-3.17-4.26-.05-.26,.3-.33,.45-.16Z"/>
    <path class="cls-16" d="M323.87,295.48c2.16,4.1,5.65,6.54,9.56,7.66,1.74,.51,3.6,.74,5.45,.73,.36,.02,.72,.02,1.06-.03,.33-.01,.63-.02,.99-.06,.53-.03,.85-.44,.98-.92v-.03c.01-.16,.02-.3,0-.46v-.03s.03-.39,.03-.39c.4-3.43,.52-8.69,.52-8.69,1.2,.74,7.35,4.18,7.41,2.38,.42-14.95,.88-31.57-1.86-46.54-.07-.5-.82-.45-.83,.04-.97,14.35,.59,28.78-.15,43.21-1.98-.96-5.18-2.69-6.99-2.81-.5,.1-.06,10.17-.36,11.69,0,0,0,.07-.04,.16-5.84,.23-10.04-1.9-15.31-6.27-.31-.28-.69-.01-.45,.36Z"/>
  </g>
  <path class="cls-16" d="M373.06,230.16c-1.08-5.45-3.47-6.92-3.47-6.92,0,0,1.02-6.11-3.55-14.79-4.79-9.09-11.24-11.14-11.24-11.14,0,0-4.62-6.75-16.92-10.85-2.82-.94-11.62-2.38-14.5-1.75-3.33,.73-6.41-1.33-9.66-1.87-3-.51-6.12-.4-9.1,.29-2.46,.56-4.87,1.52-7.09,2.86-1.29,.79-2.46,1.72-3.65,2.68-1.98,1.57-3.69,1.97-6.09,2.26-5.13,.65-9.73,3.38-12.98,7.87-1.89,2.6-3,5.51-3.65,8.71-.78,3.87-5.41,5.06-7.57,8.18-3.5,5.04-3.15,11.77,.35,16.42-5.99,2.86-9.31,10.72-7.45,17.58,1.44,5.31,5.77,8.22,10.3,10.14,.85,.36,1.73,.62,2.61,.8,9.43,2.95,20.59-5.69,18.83-17.07,0-.03,.02-.05,.03-.09,0,0,7.52-.54,14.69-6.93,4.39-3.91,6.57-9.83,7.57-15.78,10.98,9.02,28.97,4.39,33.5-10.03,2.88,4.1,11.85,11.63,16.65,10.95-.14,13.52,8.26,19.81,10.71,20.1,.35,.04,2.96-5.36,1.72-11.62Zm-93.37,28.03c3.24-2.34,6-5.93,8.33-14.07,.34,6.5-3.37,11.52-8.33,14.07Zm44.84-34.71c7.26-.8,14.11-5.26,18.25-12.55-3.65,8.69-10.61,12.41-18.25,12.55Z"/>
  <path class="cls-13" d="M276.68,266.35s-10.54-23.59-20.97-20.22c-10.43,3.37-5.29,35.61,4.99,41.86,10.28,6.25,16.26-3.15,16.26-3.15l-.28-18.49Z"/>
  <path class="cls-16" d="M257.41,255.34c-.17-.05-.26,.19-.11,.29,7.16,4.64,9.87,12.63,11.29,20.64-1.76-3.32-4.6-5.5-8.98-3.49-.23,.11-.1,.46,.13,.46,3.31-.07,5.5,.92,7.16,3.88,1.17,2.1,1.78,4.58,2.47,6.87,.23,.76,1.56,.63,1.44-.22,0-.06-.02-.13-.03-.19,2.1-9.86-2.93-25.2-13.37-28.24Z"/>
  <g>
    <path class="cls-15" d="M314.69,354.72l-16.13,32.49-43.31-50.77-11.58,17.4s39.34,73.44,39.78,70.23l16.19-29.77,19.97,22.33,1.07-53.41-5.97-8.51Z"/>
    <path class="cls-16" d="M321.62,390.27c-.12-8.82,0-17.71-.52-26.52-.02-.31-.5-.48-.59-.11-2.2,8.4-1.57,42.14-2.02,50.2-.03-.03-.06-.07-.09-.1-.83-.96-18.56-19.71-18.76-19.43-3.42,4.68-15.29,26.35-16.12,28.34-6.22-11.66-32.79-57.75-40.3-68.87-.22-.32-.71-.09-.54,.28,5.39,12.25,39.66,73.03,40.2,72.9,.35,.3,15.08-26.39,16.94-31.48,2.96,4.04,20.74,25.07,20.87,23.76,.89-8.8,1.05-20.14,.94-28.98Z"/>
  </g>
  <path class="cls-2" d="M507.69,639.02h-140.83c-12.02,0,5.37-34.22,49.23-47.35,43.86-13.13,105.43,34.51,91.6,47.35Z"/>
  <g>
    <path class="cls-16" d="M452.42,639.02c.5-11.63,5.48-23.38,14.17-31.26,2.83-2.74,6.36-4.63,9.87-6.19-.78,.58-1.57,1.14-2.36,1.68-.62,.38-1.74,1.26-2.27,1.75-10.45,8.43-16.35,21.16-19.41,34.02h0Z"/>
    <path class="cls-16" d="M469.11,606.45c13.9,4.75,36.91,16.25,38.58,32.56-.49-2.13-1.35-4.13-2.51-5.92-8.65-12.5-23.12-19.39-36.07-26.64h0Z"/>
  </g>
  <path class="cls-13" d="M216.63,376.72c-46.01,64.79-112.66,180.79-81.94,201.45,50.5,33.96,189.43,43.06,221.18,43.84,13.7,.34,32.39-90.79,22.26-101.38-10.13-10.59-155.56-4.89-157.42-13.67-1.06-4.98,16.73-50.89,25.74-105.97,10.39-63.51-16.84-42.52-29.81-24.26Z"/>
  <path class="cls-13" d="M353.73,515.59s41.48-4.27,68.74-5.79c15.21-.85,41.41,.03,52.87,4.51,17.14,6.71,84.52,45.73,75.41,62.27-8.25,14.97-61.88-25.9-61.88-25.9,0,0,57.77,36.46,44.53,52.66-13.24,16.2-67.7-38.03-67.7-38.03,0,0,58.51,38.79,42.21,53.34-12.32,11-64.41-35.35-64.41-35.35,0,0,50.06,33.69,37.88,45.54-13.46,13.1-64.23-26.66-64.23-26.66-36.03,24.92-63.38,22.04-82.6,17.68-4.65-1.06,19.18-104.28,19.18-104.28Z"/>
  <g>
    <path class="cls-16" d="M469.69,536.79c6.94,4.04,13.99,8.08,20.55,12.72,6.56,4.64,12.96,9.51,19.06,14.74,14.95,12.83,22.31,23.2,21.79,22.61-12.4-13.98-35.62-30.95-42.18-35.6-6.54-4.63-12.86-9.59-19.4-14.23-.17-.12,.02-.34,.19-.24Z"/>
    <path class="cls-16" d="M452.51,560.17c8.64,5.54,17.42,10.72,25.82,16.64,8.36,5.89,19.79,14.55,27.72,21,.61,.5,.15,1.58-.48,1.11-8.18-6.13-20.25-14.42-28.5-20.46-8.22-6.01-16.27-12.39-24.71-18.1-.13-.09,.02-.28,.15-.2Z"/>
    <path class="cls-16" d="M434.15,577.58c13.64,7.79,25.82,18.08,37.53,28.47,.58,.52-.04,.66-.67,.17-12.3-9.7-21.87-17.39-37.13-28.16-.24-.17-.01-.64,.27-.47Z"/>
  </g>
  <path class="cls-16" d="M502.88,528.77c10.78,6.26,58.24,33.95,48.36,48.58-3.08,4.81-9.58,3.86-14.06,2.05-9.01-3.48-17.24-8.29-25.91-12.41,0,0,.97-1.59,.97-1.59,5.46,4.32,10.56,9.01,15.15,14.25,6.44,6.91,15.2,21.74,2.26,26.86-3.6,1.01-7.22,.06-10.45-1.12-6.51-2.54-12.28-6.4-17.99-10.24,0,0,.24-.28,.24-.28,1.98,2.23,3.89,4.55,5.4,7.11-1.87-2.9-4.3-5.41-6.66-7.91,6.2,3.9,12.5,7.89,19.35,10.36,3.16,1.1,6.64,1.87,9.74,.91,7.34-2.64,6.37-10.86,2.81-16.4-6.7-11.17-17.64-19.51-27.81-27.38,6.61,3.17,14.2,6.76,20.65,10.11,6.3,2.67,19.65,12.04,24.93,4.66,8.32-12.9-37.15-41.17-46.98-47.57h0Z"/>
  <path class="cls-7" d="M353.8,510.16l-38.96,117.59s-177.49-22.6-190.72-54.66c-13.23-32.06,39.79-129.22,83.69-188.93,43.18-58.73,46.84-19.03,38.81,23.99-8.03,43.03-23.14,93.16-20.59,96.55,2.55,3.4,127.78,5.46,127.78,5.46Z"/>
  <g>
    <path class="cls-16" d="M293.15,611.01c1.38-3.37,2.71-6.75,4.02-10.15,2.66-6.88,5.29-13.76,7.91-20.66,5.2-13.7,10-27.53,14.65-41.43,2.64-7.89,5.57-15.73,7.86-23.72,.11-.39-.43-.58-.59-.21-3.02,6.72-5.52,13.69-8.24,20.53-2.73,6.86-5.5,13.68-8.11,20.58-5.16,13.71-10.09,27.5-14.86,41.35-1.34,3.88-2.83,7.75-4,11.69-.6,2.02-1.35,3.99-1.92,6.02-.57,2.04-.99,4.11-1.62,6.13-.07,.22,.25,.34,.34,.12,1.45-3.45,3.14-6.79,4.57-10.26Z"/>
    <g>
      <path class="cls-16" d="M317.93,619.66l-2.76,8.21-.09,.26s-.3-.03-.3-.03c-33.5-3.12-66.79-8.27-99.67-15.46-24.56-5.67-49.43-11.82-72.07-23.25-7.21-4.04-15.3-8.52-18.93-16.31,4.32,7.31,12.35,11.16,19.74,14.66,23.01,10.03,47.67,15.58,72.1,21.13,32.77,7.13,65.83,12.95,98.93,18.51,0,0-.38,.23-.38,.23,0,0,3.44-7.95,3.44-7.95h0Z"/>
      <g>
        <path class="cls-16" d="M352.28,514.75l1.32-4.65c-16.12,1.25-35.29,.66-52.43,.77-24.73-.62-49.74,.05-74.27-3.69-.97-.26-2.09-.66-2.58-1.75-.33-1.13-.21-1.93-.18-2.57,4.27-26.72,11.95-52.52,19.22-78.49,0,0-10.67,51.51-10.67,51.51-1.74,9.35-4.21,18.92-4.91,28.17,0-.02,0,.05-.02-.03-.03-.1-.07-.2-.13-.29-.1-.18-.37-.35-.3-.31,15.25,2.72,31.98,2.38,47.66,3.3,25.56,.97,53.7,2,79.12,3.26,0,0-.1,.26-.1,.26,0,0-1.72,4.52-1.72,4.52h0Z"/>
        <path class="cls-16" d="M246.27,434.96c-2.06,6.07-5.05,11.87-9.5,16.54,2.78-5.79,5.65-11.37,9.5-16.54h0Z"/>
      </g>
    </g>
  </g>
  <g>
    <g>
      <g>
        <rect class="cls-9" x="518.35" y="624.43" width="14.18" height="9.26"/>
        <rect class="cls-9" x="536.74" y="623.82" width="14.18" height="9.26"/>
        <rect class="cls-9" x="555.13" y="623.21" width="14.18" height="9.26"/>
        <rect class="cls-9" x="573.52" y="622.6" width="14.18" height="9.26"/>
        <rect class="cls-9" x="591.91" y="621.99" width="14.18" height="9.26"/>
        <rect class="cls-9" x="610.3" y="621.37" width="14.18" height="9.26"/>
        <rect class="cls-9" x="628.69" y="620.76" width="14.18" height="9.26"/>
        <rect class="cls-9" x="647.08" y="620.15" width="14.18" height="9.26"/>
        <rect class="cls-9" x="665.47" y="619.54" width="14.18" height="9.26"/>
      </g>
      <polygon class="cls-4" points="683.12 639.02 514.88 639.02 514.88 627.75 683.12 623.06 683.12 639.02"/>
    </g>
    <g>
      <g>
        <polygon class="cls-9" points="838.12 585.01 560.38 585.01 604.55 378.24 882.29 378.24 838.12 585.01"/>
        <polygon class="cls-4" points="848.4 585.01 570.65 585.01 614.82 378.24 892.57 378.24 848.4 585.01"/>
        <path class="cls-16" d="M755.61,469.65c-1.5,9.48-10.41,17.17-19.89,17.17s-15.95-7.69-14.45-17.17c1.5-9.48,10.41-17.17,19.89-17.17s15.95,7.69,14.45,17.17Z"/>
      </g>
      <g>
        <polygon class="cls-9" points="769.84 639.02 633.24 639.02 633.24 628.41 769.84 623.99 769.84 639.02"/>
        <polygon class="cls-9" points="806.98 639 733.64 639 689.47 523.14 762.81 523.14 806.98 639"/>
        <polygon class="cls-16" points="819.06 639 745.71 639 701.54 523.14 774.89 523.14 819.06 639"/>
      </g>
    </g>
  </g>
  <g>
    <path class="cls-16" d="M881.83,483.87c25.41,24.88,29.68,63.37,24.32,97.09-.14,.76-1.32,.56-1.32-.16,0-7.68,.23-15.28,.21-22.86-.14-.35-.26-.67-.39-1.02-6.63-4.82-12.73-10.27-16.51-17.74-4.24-8.35-5.91-17.76-9.16-26.48-.3-.83,.59-.59,1.17-.16,15.46,11.4,20.39,23.67,24.82,40.07-.21-8.51-.86-17.02-2.69-25.53-3.34-15.56-9.95-30.98-21.12-42.53-.42-.44,.23-1.11,.67-.67Z"/>
    <g>
      <path class="cls-3" d="M877.06,486.78c-4.37,.15-7.11,7.14-10.52,9.17-1.8,1.08-3.56,1.02-4.82-.76-3.38-4.71,1.26-10.53,5.61-13.78-3.12,1.28-5.7,3.53-9.06,4.17-2.03,.37-3.62-.38-4.09-2.45-1.48-6.43,6.58-9.28,12.11-9.42-2.68-1.86-10.36-6.93-6.28-9.42,4.14-2.5,13.15,4.74,16.09,7.13,4.32,3.51,9.48,8.75,9.67,14.23,.25,6.4-5.34,2.46-8.71,1.12Z"/>
      <path class="cls-8" d="M877.06,486.78c-4.37,.15-7.11,7.14-10.52,9.17-1.8,1.08-3.56,1.02-4.82-.76-3.38-4.71,1.26-10.53,5.61-13.78-3.12,1.28-5.7,3.53-9.06,4.17-2.03,.37-3.62-.38-4.09-2.45-1.48-6.43,6.58-9.28,12.11-9.42-2.68-1.86-10.36-6.93-6.28-9.42,4.14-2.5,13.15,4.74,16.09,7.13,4.32,3.51,9.48,8.75,9.67,14.23,.25,6.4-5.34,2.46-8.71,1.12Z"/>
      <path class="cls-3" d="M878.32,487.85c-5.59-2.54-16.33,1.12-17.24-1-1.85-4.31,6.73-7.26,11.36-7.83-4.27-1.16-12.44-3-12.19-7.11,.31-5.02,12.54-.7,18.73,4.04,7.8,5.98,7.75,11.75,6.46,12.91-1.77,1.58-6.19-.59-7.12-1.01Z"/>
    </g>
  </g>
  <g>
    <path class="cls-16" d="M939.71,481.41c-26.34,23.9-32.07,62.2-28,96.09,.11,.77,1.3,.61,1.33-.11,.29-7.67,.35-15.28,.66-22.85,.15-.34,.28-.66,.43-1,6.81-4.57,13.11-9.78,17.17-17.1,4.56-8.18,6.58-17.52,10.16-26.11,.33-.82-.57-.61-1.16-.2-15.88,10.8-21.27,22.88-26.33,39.09,.53-8.5,1.5-16.97,3.66-25.41,3.93-15.42,11.12-30.58,22.73-41.69,.43-.42-.19-1.12-.65-.7Z"/>
    <g>
      <path class="cls-3" d="M944.37,484.49c4.36,.31,6.84,7.4,10.16,9.57,1.76,1.15,3.52,1.15,4.85-.57,3.55-4.58-.85-10.57-5.08-13.98,3.06,1.4,5.56,3.75,8.89,4.51,2.02,.45,3.63-.24,4.18-2.29,1.72-6.36-6.22-9.53-11.74-9.87,2.75-1.76,10.62-6.53,6.64-9.17-4.04-2.66-13.32,4.24-16.35,6.51-4.45,3.34-9.8,8.38-10.2,13.85-.5,6.39,5.25,2.66,8.66,1.45Z"/>
      <path class="cls-8" d="M944.37,484.49c4.36,.31,6.84,7.4,10.16,9.57,1.76,1.15,3.52,1.15,4.85-.57,3.55-4.58-.85-10.57-5.08-13.98,3.06,1.4,5.56,3.75,8.89,4.51,2.02,.45,3.63-.24,4.18-2.29,1.72-6.36-6.22-9.53-11.74-9.87,2.75-1.76,10.62-6.53,6.64-9.17-4.04-2.66-13.32,4.24-16.35,6.51-4.45,3.34-9.8,8.38-10.2,13.85-.5,6.39,5.25,2.66,8.66,1.45Z"/>
      <path class="cls-3" d="M943.07,485.52c5.68-2.33,16.27,1.74,17.27-.34,2.01-4.23-6.45-7.51-11.06-8.26,4.31-.99,12.54-2.52,12.45-6.64-.12-5.03-12.5-1.18-18.87,3.33-8.02,5.68-8.19,11.45-6.94,12.65,1.71,1.65,6.21-.35,7.15-.73Z"/>
    </g>
  </g>
  <g>
    <path class="cls-16" d="M912.77,544.52c-1.95,12.59-4.36,25.61-8.18,37.78-.37,1.11-2.01,.82-1.84-.37,1.73-11.64,4.88-23.07,6.61-34.72,1.76-11.78,2.7-23.73,2.02-35.64-1.11-19.62-6.44-40.49-19.24-55.84-.28-.36,.32-.88,.61-.54,25.63,29.89,21.55,66.53,21.53,69.81,3.63-12.37,7.37-26.56,21.09-39.15,.59-.54,1.05-.28,.96,.64-2.45,22.95-8.83,34.93-22.14,47.2-.38,3.64-.85,7.26-1.42,10.83Z"/>
    <g>
      <path class="cls-3" d="M891.92,459.17c-4.61-2.05-10.97,3.82-15.53,4.22-2.42,.22-4.2-.73-4.62-3.22-1.13-6.59,6.6-10.29,12.76-11.47-3.88-.24-7.69,.8-11.5-.23-2.3-.64-3.56-2.22-3.01-4.6,1.7-7.41,11.5-6.32,17.3-3.68-1.84-3.28-7.26-12.41-1.78-12.94,5.55-.51,11.26,11.54,13.11,15.5,2.72,5.81,5.43,13.84,2.87,19.63-2.96,6.77-6.78-.13-9.6-3.22Z"/>
      <path class="cls-8" d="M891.92,459.17c-4.61-2.05-10.97,3.82-15.53,4.22-2.42,.22-4.2-.73-4.62-3.22-1.13-6.59,6.6-10.29,12.76-11.47-3.88-.24-7.69,.8-11.5-.23-2.3-.64-3.56-2.22-3.01-4.6,1.7-7.41,11.5-6.32,17.3-3.68-1.84-3.28-7.26-12.41-1.78-12.94,5.55-.51,11.26,11.54,13.11,15.5,2.72,5.81,5.43,13.84,2.87,19.63-2.96,6.77-6.78-.13-9.6-3.22Z"/>
      <path class="cls-3" d="M892.69,460.93c-4.52-5.45-17.5-7.06-17.39-9.72,.25-5.4,10.64-4.14,15.73-2.41-3.84-3.35-11.4-9.37-9.07-13.51,2.85-5.06,13.36,5.58,17.4,13.62,5.08,10.13,2.12,16.09,.2,16.64-2.63,.75-6.13-3.73-6.88-4.63Z"/>
    </g>
  </g>
  <path class="cls-2" d="M929.64,551.43l11.3,86.37h-68.79c1.42-7.65,14.22-86.47,14.22-86.47l43.27,.1Z"/>
  <g>
    <rect class="cls-6" x="418.66" y="83.2" width="5.37" height="23.22"/>
    <polygon class="cls-6" points="448.85 97.29 437.31 83.2 432.86 83.2 432.86 106.42 438.17 106.42 438.17 92.33 449.75 106.42 454.16 106.42 454.16 83.2 448.85 83.2 448.85 97.29"/>
    <polygon class="cls-6" points="478.97 97.29 467.43 83.2 462.98 83.2 462.98 106.42 468.29 106.42 468.29 92.33 479.87 106.42 484.28 106.42 484.28 83.2 478.97 83.2 478.97 97.29"/>
    <path class="cls-6" d="M513.42,86.22c-1.14-1.08-2.48-1.92-4.01-2.52-1.54-.6-3.22-.9-5.06-.9s-3.49,.3-5.04,.9c-1.55,.6-2.9,1.44-4.05,2.52-1.15,1.08-2.04,2.36-2.67,3.81-.63,1.46-.95,3.05-.95,4.78s.31,3.32,.95,4.78c.63,1.46,1.51,2.73,2.65,3.82,1.14,1.08,2.49,1.92,4.05,2.52,1.56,.6,3.26,.9,5.09,.9s3.49-.3,5.03-.9c1.54-.6,2.87-1.43,4.01-2.5,1.14-1.07,2.03-2.35,2.67-3.82,.64-1.47,.96-3.07,.96-4.79s-.32-3.35-.96-4.79c-.64-1.45-1.53-2.72-2.67-3.8Zm-2.36,11.61c-.36,.91-.88,1.69-1.54,2.36-.66,.66-1.43,1.17-2.31,1.53-.87,.35-1.83,.53-2.87,.53s-2-.18-2.89-.53c-.88-.35-1.65-.86-2.31-1.53-.65-.66-1.16-1.45-1.53-2.37-.36-.92-.55-1.92-.55-3s.18-2.11,.55-3.02c.36-.91,.88-1.69,1.54-2.36s1.43-1.17,2.31-1.53c.87-.35,1.83-.53,2.87-.53s2,.18,2.89,.53c.88,.35,1.65,.86,2.31,1.53,.65,.66,1.16,1.45,1.53,2.36s.55,1.91,.55,3.02-.18,2.11-.55,3.02Z"/>
    <polygon class="cls-6" points="533.48 99.79 526.41 83.2 520.61 83.2 530.63 106.42 535.94 106.42 545.99 83.2 540.65 83.2 533.48 99.79"/>
    <path class="cls-6" d="M557.76,83.2l-10.35,23.22h5.51l2.07-4.98h10.76l2.06,4.98h5.64l-10.38-23.22h-5.31Zm-1.08,14.16l3.7-8.89,3.68,8.89h-7.38Z"/>
    <polygon class="cls-6" points="575.41 87.58 582.84 87.58 582.84 106.42 588.22 106.42 588.22 87.58 595.65 87.58 595.65 83.2 575.41 83.2 575.41 87.58"/>
    <rect class="cls-6" x="601.85" y="83.2" width="5.37" height="23.22"/>
    <path class="cls-6" d="M636.37,86.22c-1.14-1.08-2.48-1.92-4.01-2.52-1.54-.6-3.22-.9-5.06-.9s-3.49,.3-5.04,.9c-1.55,.6-2.9,1.44-4.05,2.52-1.15,1.08-2.04,2.36-2.67,3.81-.63,1.46-.95,3.05-.95,4.78s.31,3.32,.95,4.78c.63,1.46,1.51,2.73,2.65,3.82,1.14,1.08,2.49,1.92,4.05,2.52s3.26,.9,5.09,.9,3.49-.3,5.03-.9c1.54-.6,2.87-1.43,4.01-2.5,1.14-1.07,2.03-2.35,2.67-3.82,.64-1.47,.96-3.07,.96-4.79s-.32-3.35-.96-4.79c-.64-1.45-1.53-2.72-2.67-3.8Zm-2.36,11.61c-.36,.91-.88,1.69-1.54,2.36-.66,.66-1.43,1.17-2.31,1.53-.87,.35-1.83,.53-2.87,.53s-2-.18-2.89-.53c-.88-.35-1.65-.86-2.31-1.53-.65-.66-1.16-1.45-1.53-2.37-.36-.92-.55-1.92-.55-3s.18-2.11,.55-3.02c.36-.91,.88-1.69,1.54-2.36s1.43-1.17,2.31-1.53c.87-.35,1.83-.53,2.87-.53s2,.18,2.89,.53c.88,.35,1.65,.86,2.31,1.53s1.16,1.45,1.53,2.36c.36,.91,.55,1.91,.55,3.02s-.18,2.11-.55,3.02Z"/>
    <polygon class="cls-6" points="663.36 83.2 663.36 97.29 651.81 83.2 647.37 83.2 647.37 106.42 652.67 106.42 652.67 92.33 664.25 106.42 668.66 106.42 668.66 83.2 663.36 83.2"/>
  </g>
  <polygon class="cls-2" points="619.47 385.35 627.71 405.24 619.48 408.64 611.2 388.62 597.6 399.17 597.6 343.13 636.83 382.76 619.47 385.35"/>
  <g>
    <path class="cls-5" d="M597.7,337.02c-.39-.94-.48-1.88-.5-2.82,.01-.94,.1-1.88,.5-2.82,.4,.94,.48,1.88,.5,2.82-.02,.94-.11,1.88-.5,2.82Z"/>
    <path class="cls-5" d="M592.85,339.03c-.94-.39-1.67-.99-2.34-1.64-.65-.67-1.26-1.4-1.64-2.34,.94,.38,1.67,.99,2.34,1.64,.65,.68,1.25,1.4,1.64,2.34Z"/>
    <path class="cls-5" d="M590.84,343.88c-.94,.39-1.88,.48-2.82,.5-.94-.01-1.88-.1-2.82-.5,.94-.4,1.88-.48,2.82-.5,.94,.02,1.88,.11,2.82,.5Z"/>
    <path class="cls-5" d="M592.85,348.73c-.39,.94-.99,1.67-1.64,2.34-.67,.65-1.4,1.26-2.34,1.64,.38-.94,.99-1.67,1.64-2.34,.68-.65,1.4-1.25,2.34-1.64Z"/>
    <path class="cls-5" d="M604.56,343.88c.94-.39,1.88-.48,2.82-.5,.94,.01,1.88,.1,2.82,.5-.94,.4-1.88,.48-2.82,.5-.94-.02-1.88-.1-2.82-.5Z"/>
    <path class="cls-5" d="M602.55,339.03c.39-.94,.99-1.67,1.64-2.34,.67-.65,1.4-1.26,2.34-1.64-.38,.94-.99,1.67-1.64,2.34-.68,.65-1.4,1.25-2.34,1.64Z"/>
  </g>
  <rect class="cls-16" y="638.24" width="1000" height="3"/>
</svg>