<?xml version="1.0" encoding="UTF-8"?>
<svg xmlns="http://www.w3.org/2000/svg" xmlns:xlink="http://www.w3.org/1999/xlink" viewBox="0 0 1000 629.69">
  <defs>
    <style>
      .cls-1 {
        fill: #4348a3;
      }

      .cls-2 {
        fill: url(#linear-gradient-2);
      }

      .cls-3 {
        fill: #fff;
      }

      .cls-4 {
        fill: #f6768c;
      }

      .cls-5 {
        fill: #db895f;
      }

      .cls-6 {
        fill: #ffc043;
      }

      .cls-7 {
        fill: #b6deda;
      }

      .cls-8 {
        fill: #97cbff;
      }

      .cls-9 {
        isolation: isolate;
      }

      .cls-10 {
        fill: #fe9;
      }

      .cls-11 {
        fill: #3e5484;
      }

      .cls-12 {
        fill: #475577;
      }

      .cls-13 {
        fill: #1e2e59;
      }

      .cls-14 {
        fill: #515c5e;
      }

      .cls-15 {
        fill: #def0f9;
      }

      .cls-16 {
        fill: #ffde52;
      }

      .cls-17 {
        fill: #28364c;
      }

      .cls-18 {
        fill: #fdd305;
      }

      .cls-19 {
        fill: #011e3b;
      }

      .cls-20 {
        fill: #cde8f9;
      }

      .cls-21 {
        fill: #42595d;
      }

      .cls-22 {
        fill: #0c317a;
      }

      .cls-23 {
        fill: #ffcd5c;
        stroke: #ffc043;
        stroke-linecap: round;
        stroke-linejoin: round;
        stroke-width: 3px;
      }

      .cls-24 {
        fill: #eaf5f9;
      }

      .cls-25 {
        clip-path: url(#clippath);
      }

      .cls-26 {
        mix-blend-mode: multiply;
        opacity: .55;
      }

      .cls-27 {
        fill: #698f91;
      }

      .cls-28 {
        fill: #62412c;
      }

      .cls-29 {
        fill: none;
      }

      .cls-30 {
        fill: #ff9a30;
      }

      .cls-31 {
        fill: #526db5;
      }

      .cls-32 {
        fill: #d35771;
      }

      .cls-33 {
        fill: #d15d0f;
      }

      .cls-34 {
        fill: #277ef1;
      }

      .cls-35 {
        fill: #22252d;
      }

      .cls-36 {
        fill: #1b2331;
      }

      .cls-37 {
        fill: #edf4f9;
      }

      .cls-38 {
        fill: url(#linear-gradient-3);
      }

      .cls-39 {
        fill: url(#linear-gradient);
      }

      .cls-40 {
        fill: #d55456;
      }
    </style>
    <clipPath id="clippath">
      <circle class="cls-29" cx="322.76" cy="266.51" r="81.41" transform="translate(-93.91 306.28) rotate(-45)"/>
    </clipPath>
    <linearGradient id="linear-gradient" x1="238.22" y1="371.68" x2="371.05" y2="141.6" gradientTransform="translate(160.12 -98.71) rotate(25.25)" gradientUnits="userSpaceOnUse">
      <stop offset="0" stop-color="#f0faff" stop-opacity=".4"/>
      <stop offset="1" stop-color="#d2f0ff" stop-opacity=".7"/>
    </linearGradient>
    <linearGradient id="linear-gradient-2" x1="200.67" y1="332.42" x2="200.67" y2="131.23" gradientTransform="translate(253.02 -46.32) rotate(28.59)" gradientUnits="userSpaceOnUse">
      <stop offset="0" stop-color="#fff" stop-opacity=".2"/>
      <stop offset=".27" stop-color="#fff" stop-opacity=".21"/>
      <stop offset=".4" stop-color="#fff" stop-opacity=".24"/>
      <stop offset=".5" stop-color="#fff" stop-opacity=".29"/>
      <stop offset=".59" stop-color="#fff" stop-opacity=".36"/>
      <stop offset=".66" stop-color="#fff" stop-opacity=".46"/>
      <stop offset=".73" stop-color="#fff" stop-opacity=".57"/>
      <stop offset=".79" stop-color="#fff" stop-opacity=".7"/>
    </linearGradient>
    <linearGradient id="linear-gradient-3" x1="260.29" y1="332.42" x2="260.29" y2="131.23" xlink:href="#linear-gradient-2"/>
  </defs>
  <g class="cls-9">
    <g id="Layer_1" data-name="Layer 1">
      <g>
        <g>
          <path class="cls-8" d="M85.75,599.88c-2.47-2.93-60.6-72.16-63.26-110.18-1.23-17.53,4.85-32.31,16.26-39.53,9.93-6.29,22.23-5.93,34.61,1.03,37.8,21.23,65.6,142.82,66.77,147.99l-1.56,.35c-.28-1.26-28.81-126.06-65.99-146.95-11.85-6.65-23.56-7.03-32.97-1.07-10.91,6.9-16.71,21.14-15.52,38.07,2.62,37.5,62.28,108.55,62.88,109.26l-1.22,1.03Z"/>
          <path class="cls-8" d="M268.83,599.31l-1.6,.11c-.12-1.69-12.27-169.5-64.12-195.97-11.19-5.72-23.63-4.4-36.96,3.91-22.1,13.79-20.43,47.66-10.57,83.15,.16,.58,.32,1.17,.49,1.75-.65-.16-1.29-.3-1.92-.41-.16-.57-.32-1.14-.48-1.71-12.02-43.55-8.14-71.79,11.64-84.13,13.84-8.63,26.79-9.97,38.53-3.98,52.65,26.88,64.51,190.34,64.99,197.28Z"/>
          <path class="cls-8" d="M215.27,599.32l-1.6,.09c-.05-.85-5.37-85.54-49.37-104.4-2.82-1.21-5.57-2.13-8.23-2.75-.65-.16-1.29-.3-1.92-.41-8.17-1.54-15.31-.26-20.38,3.82-7.3,5.87-9.79,17.15-7.01,31.74,6.11,31.99,40.35,71.04,40.7,71.43l-1.2,1.05c-.35-.39-34.88-39.76-41.07-72.18-2.9-15.2-.21-27.02,7.58-33.28,5.28-4.25,12.59-5.69,20.9-4.29,.63,.1,1.27,.22,1.91,.37,3.02,.64,6.15,1.65,9.35,3.03,44.91,19.25,50.29,104.92,50.34,105.78Z"/>
          <path class="cls-8" d="M814.5,580.72c1.1-1.42,2.24-2.9,3.43-4.45-.72,1.83-1.4,3.58-2.04,5.25-1.13,1.46-2.22,2.86-3.25,4.17-6.8,8.66-11.24,13.94-11.43,14.17l-1.22-1.03c.22-.26,6-7.14,14.51-18.11Z"/>
          <path class="cls-8" d="M890.21,444.91c-.89,12.71-6.35,28.09-14.15,44.15-.44,.9-.89,1.8-1.34,2.7-.9,.58-1.79,1.19-2.68,1.82,.5-.98,1-1.97,1.48-2.94,8.31-16.7,14.17-32.72,15.09-45.84,1.68-23.96-6.55-44.11-22-53.9-13.37-8.46-29.98-7.93-46.77,1.5-8.99,5.05-17.61,14.39-25.74,26.42-.4,.58-.79,1.17-1.19,1.77-.18-.75-.37-1.48-.56-2.21,.38-.58,.77-1.15,1.16-1.71,8.05-11.59,16.6-20.63,25.55-25.66,17.33-9.74,34.52-10.25,48.4-1.46,15.96,10.11,24.47,30.8,22.75,55.36Z"/>
          <path class="cls-8" d="M795.74,456.94c-7.63,60.04-63.53,142.03-64.1,142.86l-1.31-.91c.56-.82,56.24-82.5,63.83-142.15,1.71-13.47,1.24-25.68-1.25-36.15-.18-.75-.37-1.48-.56-2.21-3.53-12.95-10.29-23.03-19.95-29.25-13.91-8.94-32.26-8.08-49.07,2.33-56.99,35.28-68.84,206.21-68.95,207.94l-1.59-.11c.11-1.73,12.01-173.48,69.7-209.18,17.35-10.75,36.33-11.61,50.78-2.32,9.67,6.22,16.53,16.17,20.24,28.88,.21,.71,.41,1.42,.59,2.15,2.85,10.96,3.46,23.86,1.64,38.12Z"/>
          <path class="cls-8" d="M925.29,522.82c-14.18,34.62-56.5,76.7-56.92,77.12l-1.13-1.14c.43-.42,42.51-42.26,56.57-76.59,5.45-13.3,4.46-24.49-2.78-31.49-8.53-8.25-24.47-9.52-38.76-3.1-2.57,1.16-5.09,2.55-7.55,4.14-.9,.58-1.79,1.19-2.68,1.82-25.38,18.21-44.09,57.4-54.11,82.69-.72,1.83-1.4,3.58-2.04,5.25-4.03,10.66-6.18,17.82-6.26,18.08l-1.54-.46c.07-.22,1.62-5.39,4.55-13.45,.57-1.55,1.19-3.21,1.86-4.97,9.76-25.69,30.3-71.22,59.02-90.08,.84-.55,1.68-1.08,2.54-1.58,1.82-1.09,3.68-2.05,5.56-2.9,14.87-6.68,31.53-5.28,40.52,3.41,7.74,7.49,8.86,19.3,3.15,33.25Z"/>
          <rect class="cls-14" x="60.6" y="598.57" width="865.06" height="1.6"/>
        </g>
        <g>
          <path class="cls-8" d="M459.41,252.63c-5.37,0-10.7-.6-15.88-1.77-5.41-1.23-10.71-3.11-15.74-5.59-.37-.18-.54-.62-.39-1l5.16-13.35c-3.99-2.15-7.72-4.8-11.1-7.88l-10.9,9.31c-.31,.27-.78,.25-1.08-.04-7.97-7.81-14.08-17.52-17.67-28.08-.13-.39,.05-.82,.43-.99l13.1-5.8c-1.31-4.38-2.08-8.88-2.3-13.41l-14.27-1.12c-.41-.03-.73-.37-.74-.79-.06-5.61,.54-11.19,1.77-16.61,1.23-5.41,3.11-10.71,5.59-15.74,.18-.37,.62-.54,1-.39l13.35,5.16c2.15-3.99,4.8-7.72,7.88-11.1l-9.31-10.9c-.27-.31-.25-.78,.04-1.08,7.81-7.97,17.52-14.08,28.08-17.67,.4-.14,.82,.05,.99,.43l5.8,13.1c4.38-1.31,8.89-2.08,13.41-2.3l1.12-14.27c.03-.41,.37-.73,.79-.74,5.61-.04,11.2,.54,16.61,1.77,5.41,1.23,10.71,3.11,15.74,5.59,.37,.18,.54,.62,.39,1l-5.16,13.35c3.99,2.15,7.72,4.8,11.1,7.88l10.89-9.31c.32-.27,.78-.25,1.08,.04,7.97,7.81,14.08,17.52,17.67,28.08,.13,.39-.05,.82-.43,.99l-13.1,5.8c1.31,4.38,2.08,8.88,2.3,13.41l14.27,1.12c.41,.03,.73,.37,.74,.79,.06,5.61-.54,11.2-1.77,16.61-1.23,5.41-3.11,10.71-5.59,15.74-.18,.37-.62,.54-1,.39l-13.35-5.16c-2.15,3.99-4.8,7.72-7.88,11.1l9.31,10.89c.27,.31,.25,.78-.04,1.08-7.81,7.97-17.52,14.08-28.08,17.67-.39,.13-.82-.05-.99-.43l-5.8-13.1c-4.38,1.31-8.88,2.08-13.41,2.3l-1.12,14.27c-.03,.41-.37,.73-.79,.74-.24,0-.49,0-.73,0Zm-30.26-8.48c4.72,2.27,9.68,4,14.73,5.15,5.05,1.15,10.26,1.73,15.51,1.73l1.12-14.24c.03-.41,.36-.72,.77-.74,4.86-.17,9.7-1,14.39-2.47,.39-.11,.8,.07,.97,.44l5.79,13.08c9.83-3.46,18.88-9.15,26.25-16.52l-9.29-10.87c-.27-.31-.25-.77,.02-1.06,3.35-3.59,6.19-7.59,8.45-11.9,.19-.36,.62-.52,1-.37l13.32,5.15c2.27-4.72,4-9.67,5.15-14.73,1.15-5.05,1.73-10.27,1.73-15.51l-14.24-1.12c-.41-.03-.72-.36-.74-.77-.17-4.86-1-9.7-2.47-14.39-.12-.39,.07-.8,.44-.97l13.08-5.79c-3.46-9.83-9.15-18.88-16.52-26.25l-10.87,9.29c-.31,.26-.77,.25-1.06-.02-3.59-3.35-7.59-6.19-11.9-8.45-.36-.19-.52-.62-.38-.99l5.15-13.32c-4.72-2.27-9.68-4-14.73-5.15-5.06-1.15-10.27-1.73-15.51-1.73l-1.12,14.24c-.03,.4-.36,.72-.77,.74-4.86,.17-9.7,1-14.39,2.47-.39,.12-.8-.07-.97-.44l-5.79-13.08c-9.83,3.46-18.88,9.15-26.25,16.52l9.29,10.88c.26,.31,.25,.77-.02,1.06-3.35,3.59-6.19,7.6-8.45,11.9-.19,.36-.62,.52-1,.37l-13.32-5.15c-2.27,4.72-4,9.67-5.15,14.73-1.15,5.06-1.73,10.27-1.73,15.51l14.24,1.12c.41,.03,.72,.36,.74,.77,.17,4.86,1,9.7,2.47,14.39,.12,.39-.07,.8-.44,.97l-13.08,5.78c3.46,9.83,9.15,18.88,16.52,26.25l10.88-9.29c.31-.26,.77-.25,1.06,.02,3.59,3.35,7.59,6.19,11.9,8.45,.36,.19,.52,.62,.38,1l-5.15,13.32Zm30.2-28.05c-2.55,0-5.13-.28-7.72-.87-18.7-4.25-30.45-22.93-26.19-41.62,4.26-18.7,22.92-30.45,41.62-26.19,18.7,4.25,30.45,22.93,26.19,41.62-3.67,16.11-18.04,27.06-33.9,27.06Zm0-67.96c-15.14,0-28.85,10.45-32.35,25.82-4.06,17.84,7.15,35.65,24.99,39.71,17.84,4.06,35.65-7.15,39.71-24.99,4.06-17.84-7.15-35.65-24.99-39.71-2.47-.56-4.93-.83-7.36-.83Z"/>
          <path class="cls-8" d="M273.81,227.25c-.38,0-.72-.27-.79-.66l-1.27-7.11c-2.2,.08-4.41-.07-6.6-.47l-2.26,6.87c-.13,.39-.52,.63-.94,.53-5.79-1.35-11.26-4.09-15.82-7.9-.32-.27-.38-.73-.14-1.07l4.13-5.93c-1.63-1.5-3.09-3.18-4.34-4.99l-6.45,3.25c-.37,.18-.82,.06-1.04-.29-1.58-2.54-2.86-5.25-3.79-8.06-.94-2.81-1.55-5.74-1.81-8.72-.04-.41,.25-.78,.65-.86l7.11-1.27c-.09-2.2,.07-4.41,.47-6.6l-6.87-2.26c-.39-.13-.62-.54-.53-.94,1.35-5.79,4.09-11.26,7.9-15.82,.27-.32,.73-.38,1.07-.14l5.93,4.13c1.51-1.63,3.18-3.09,4.99-4.34l-3.25-6.45c-.19-.37-.06-.82,.29-1.04,2.54-1.58,5.25-2.85,8.06-3.79,2.81-.94,5.74-1.55,8.72-1.81,.42-.04,.78,.25,.86,.65l1.27,7.11c2.2-.09,4.41,.07,6.6,.47l2.26-6.87c.13-.39,.53-.62,.94-.53,5.79,1.35,11.26,4.09,15.82,7.9,.32,.27,.38,.73,.14,1.07l-4.13,5.93c1.63,1.51,3.09,3.18,4.34,4.99l6.45-3.25c.37-.19,.82-.06,1.04,.29,1.58,2.54,2.86,5.25,3.79,8.06,.94,2.81,1.55,5.74,1.81,8.72,.04,.41-.25,.78-.65,.86l-7.11,1.27c.09,2.2-.07,4.41-.47,6.6l6.87,2.26c.39,.13,.62,.54,.53,.94-1.35,5.79-4.09,11.26-7.9,15.82-.27,.32-.73,.38-1.07,.14l-5.93-4.14c-1.5,1.63-3.18,3.09-4.99,4.34l3.25,6.45c.19,.37,.06,.82-.29,1.04-2.54,1.58-5.25,2.86-8.06,3.79-2.8,.94-5.74,1.54-8.72,1.81-.02,0-.05,0-.07,0Zm-1.4-9.4c.39,0,.72,.27,.79,.66l1.27,7.08c2.61-.28,5.17-.84,7.63-1.66,2.46-.82,4.84-1.91,7.09-3.25l-3.24-6.42c-.18-.36-.07-.8,.27-1.03,2.12-1.39,4.05-3.07,5.74-4.99,.27-.31,.72-.36,1.06-.13l5.9,4.11c3.27-4.06,5.65-8.84,6.94-13.88l-6.84-2.25c-.39-.13-.61-.52-.53-.92,.52-2.5,.7-5.05,.54-7.58-.03-.41,.26-.76,.66-.84l7.08-1.27c-.28-2.6-.84-5.16-1.66-7.63-.82-2.46-1.91-4.84-3.25-7.1l-6.42,3.24c-.36,.18-.8,.07-1.03-.27-1.39-2.12-3.07-4.05-4.99-5.74-.31-.27-.36-.72-.13-1.06l4.11-5.91c-4.06-3.26-8.83-5.65-13.88-6.94l-2.25,6.84c-.13,.39-.51,.62-.92,.53-2.5-.52-5.06-.7-7.58-.54-.38,.03-.77-.26-.84-.66l-1.26-7.08c-2.6,.28-5.17,.84-7.63,1.66-2.46,.82-4.84,1.91-7.1,3.25l3.24,6.42c.18,.36,.07,.8-.27,1.03-2.12,1.39-4.05,3.07-5.74,4.99-.27,.31-.72,.36-1.06,.13l-5.9-4.11c-3.26,4.06-5.65,8.83-6.94,13.88l6.84,2.25c.39,.13,.61,.52,.53,.92-.52,2.5-.7,5.05-.54,7.58,.03,.41-.26,.76-.66,.84l-7.08,1.27c.28,2.6,.84,5.16,1.66,7.63,.82,2.46,1.91,4.84,3.25,7.09l6.42-3.24c.36-.18,.81-.06,1.03,.27,1.39,2.12,3.07,4.05,4.99,5.74,.31,.27,.36,.72,.13,1.06l-4.11,5.9c4.06,3.26,8.83,5.65,13.88,6.94l2.25-6.84c.13-.39,.52-.62,.92-.53,2.51,.52,5.06,.71,7.58,.54,.02,0,.03,0,.05,0Zm-1.87-9.73c-2.87,0-5.71-.67-8.35-1.98-4.48-2.24-7.81-6.08-9.4-10.83s-1.22-9.82,1.01-14.3c2.24-4.48,6.08-7.81,10.83-9.4,4.74-1.59,9.82-1.23,14.3,1.01,4.48,2.24,7.81,6.08,9.4,10.83s1.22,9.82-1.01,14.3c-2.24,4.48-6.08,7.81-10.83,9.4h0c-1.95,.65-3.95,.97-5.95,.97Zm.04-35.88c-1.83,0-3.66,.3-5.44,.89-4.34,1.45-7.86,4.5-9.9,8.6-2.05,4.09-2.37,8.74-.92,13.08,1.45,4.34,4.5,7.86,8.59,9.9,4.09,2.05,8.74,2.37,13.08,.93h0c4.34-1.45,7.86-4.5,9.9-8.6,2.05-4.09,2.37-8.74,.92-13.08-1.45-4.34-4.5-7.86-8.59-9.9-2.41-1.21-5.02-1.81-7.64-1.81Z"/>
          <path class="cls-8" d="M343.13,177.86c-.39,0-.73-.29-.79-.68l-1.85-12.2c-3.9,.08-7.79-.29-11.61-1.14l-4.17,11.64c-.14,.39-.56,.6-.95,.5-9.4-2.46-18.21-7.15-25.49-13.58-.31-.27-.36-.74-.11-1.07l7.33-9.95c-2.84-2.71-5.33-5.73-7.42-9l-11.16,5.27c-.37,.17-.82,.04-1.03-.32-2.47-4.21-4.43-8.69-5.84-13.31-1.41-4.62-2.28-9.44-2.58-14.31-.02-.41,.27-.78,.68-.84l12.21-1.85c-.09-3.89,.29-7.79,1.14-11.61l-11.64-4.17c-.39-.14-.61-.55-.5-.95,2.46-9.4,7.15-18.21,13.58-25.49,.27-.31,.74-.36,1.07-.11l9.95,7.33c2.71-2.84,5.73-5.33,9-7.42l-5.27-11.16c-.18-.37-.04-.82,.32-1.03,4.21-2.47,8.69-4.43,13.31-5.84,4.62-1.41,9.44-2.28,14.31-2.58,.45-.01,.78,.27,.84,.68l1.85,12.2c3.89-.08,7.78,.29,11.61,1.14l4.17-11.64c.14-.39,.55-.61,.95-.5,9.4,2.46,18.21,7.15,25.49,13.58,.31,.27,.36,.74,.11,1.07l-7.33,9.95c2.84,2.71,5.33,5.73,7.42,9l11.16-5.27c.37-.17,.82-.04,1.03,.32,2.47,4.21,4.43,8.69,5.84,13.31,1.41,4.62,2.28,9.44,2.58,14.31,.02,.41-.27,.78-.68,.84l-12.2,1.85c.09,3.88-.29,7.78-1.14,11.61l11.64,4.17c.39,.14,.61,.55,.5,.95-2.45,9.4-7.15,18.21-13.58,25.49-.28,.31-.74,.36-1.07,.11l-9.95-7.33c-2.7,2.83-5.73,5.33-9,7.42l5.27,11.16c.18,.37,.04,.82-.32,1.03-4.21,2.47-8.69,4.43-13.31,5.84-4.62,1.41-9.44,2.28-14.31,2.58-.02,0-.03,0-.05,0Zm-1.96-14.5c.39,0,.73,.29,.79,.68l1.85,12.18c4.5-.33,8.94-1.16,13.21-2.46,4.27-1.3,8.42-3.09,12.34-5.33l-5.26-11.14c-.17-.37-.04-.81,.3-1.02,3.59-2.22,6.87-4.93,9.76-8.05,.28-.3,.73-.34,1.06-.1l9.93,7.31c5.86-6.8,10.19-14.93,12.56-23.58l-11.61-4.16c-.38-.14-.6-.54-.51-.93,.98-4.15,1.39-8.38,1.23-12.6-.02-.41,.28-.76,.68-.82l12.18-1.85c-.33-4.5-1.16-8.94-2.46-13.21-1.3-4.27-3.09-8.42-5.33-12.34l-11.14,5.26c-.37,.17-.81,.04-1.02-.3-2.22-3.58-4.93-6.87-8.05-9.77-.3-.28-.34-.73-.1-1.06l7.31-9.93c-6.8-5.86-14.92-10.19-23.58-12.56l-4.16,11.61c-.14,.38-.54,.6-.93,.51-4.15-.98-8.38-1.4-12.6-1.23-.39,.05-.76-.28-.82-.68l-1.85-12.18c-4.5,.33-8.94,1.16-13.22,2.46-4.27,1.3-8.42,3.09-12.34,5.33l5.26,11.14c.17,.37,.04,.81-.3,1.02-3.58,2.22-6.87,4.93-9.77,8.05-.27,.3-.73,.34-1.06,.1l-9.93-7.31c-5.86,6.8-10.19,14.92-12.56,23.58l11.61,4.16c.38,.14,.6,.54,.51,.93-.98,4.14-1.39,8.38-1.23,12.6,.01,.41-.28,.76-.68,.82l-12.18,1.85c.33,4.5,1.16,8.94,2.46,13.21,1.3,4.27,3.1,8.42,5.33,12.34l11.14-5.26c.37-.17,.81-.04,1.02,.3,2.22,3.58,4.93,6.87,8.05,9.77,.3,.28,.34,.73,.1,1.06l-7.31,9.93c6.8,5.86,14.92,10.19,23.58,12.56l4.16-11.61c.14-.38,.54-.6,.93-.51,4.15,.98,8.38,1.39,12.6,1.23,0,0,.02,0,.03,0Zm-1.82-17.11c-4.9,0-9.76-1.2-14.22-3.57-7.15-3.81-12.39-10.17-14.75-17.92-4.88-15.99,4.17-32.97,20.16-37.85,15.98-4.88,32.97,4.17,37.85,20.16,2.36,7.75,1.57,15.95-2.24,23.1-3.81,7.15-10.17,12.39-17.92,14.75h0c-2.92,.89-5.91,1.33-8.88,1.33Zm.02-59.07c-2.77,0-5.58,.4-8.36,1.25-15.15,4.62-23.72,20.71-19.1,35.86,2.24,7.34,7.2,13.37,13.97,16.98,6.77,3.61,14.54,4.36,21.88,2.12h0c7.34-2.24,13.37-7.2,16.98-13.97s4.36-14.54,2.12-21.88c-3.77-12.37-15.19-20.35-27.49-20.35Z"/>
          <path class="cls-8" d="M386.91,12.19c-3.32,0-6.03-2.7-6.03-6.03s2.7-6.03,6.03-6.03,6.03,2.7,6.03,6.03-2.7,6.03-6.03,6.03Zm0-10.46c-2.44,0-4.43,1.99-4.43,4.43s1.99,4.43,4.43,4.43,4.43-1.99,4.43-4.43-1.99-4.43-4.43-4.43Z"/>
          <path class="cls-8" d="M731.48,121.93c-3.32,0-6.03-2.7-6.03-6.03s2.7-6.03,6.03-6.03,6.03,2.7,6.03,6.03-2.7,6.03-6.03,6.03Zm0-10.46c-2.44,0-4.43,1.99-4.43,4.43s1.99,4.43,4.43,4.43,4.43-1.99,4.43-4.43-1.99-4.43-4.43-4.43Z"/>
          <path class="cls-8" d="M234.85,97.99c-3.32,0-6.03-2.7-6.03-6.03s2.7-6.03,6.03-6.03,6.03,2.7,6.03,6.03-2.7,6.03-6.03,6.03Zm0-10.46c-2.44,0-4.43,1.99-4.43,4.43s1.99,4.43,4.43,4.43,4.43-1.99,4.43-4.43-1.99-4.43-4.43-4.43Z"/>
          <path class="cls-8" d="M817.43,100.39c-3.32,0-6.03-2.7-6.03-6.03s2.7-6.03,6.03-6.03,6.03,2.7,6.03,6.03-2.7,6.03-6.03,6.03Zm0-10.46c-2.44,0-4.43,1.99-4.43,4.43s1.99,4.43,4.43,4.43,4.43-1.99,4.43-4.43-1.99-4.43-4.43-4.43Z"/>
          <path class="cls-8" d="M761.8,470.13c-3.32,0-6.03-2.7-6.03-6.03s2.7-6.03,6.03-6.03,6.03,2.7,6.03,6.03-2.7,6.03-6.03,6.03Zm0-10.46c-2.44,0-4.43,1.99-4.43,4.43s1.99,4.43,4.43,4.43,4.43-1.99,4.43-4.43-1.99-4.43-4.43-4.43Z"/>
          <path class="cls-8" d="M235.13,504.87c-.54,0-1.08-.16-1.53-.46l-10.77-7.32c-.65-.44-1.02-1.14-.98-1.86,.04-.72,.48-1.38,1.17-1.75l11.49-6.12c.85-.46,1.93-.41,2.75,.11,.69,.44,1.08,1.15,1.04,1.9l-.72,13.44c-.04,.75-.5,1.42-1.23,1.78-.38,.19-.8,.28-1.21,.28Zm.65-16.23c-.17,0-.35,.04-.51,.13l-11.49,6.12c-.2,.11-.32,.26-.33,.42,0,.16,.09,.33,.28,.45l10.77,7.32c.37,.25,.84,.22,1.14,.07,.12-.06,.34-.2,.35-.43h0l.72-13.44c.01-.23-.18-.39-.3-.47-.16-.1-.39-.17-.62-.17Z"/>
          <path class="cls-8" d="M52.63,292.58c-.54,0-1.08-.22-1.52-.64l-9.38-9.03c-.7-.67-.99-1.71-.75-2.65,.2-.79,.76-1.38,1.49-1.57l13.01-3.48h0c.73-.2,1.5,.04,2.07,.62,.68,.69,.94,1.74,.68,2.67l-3.63,12.5c-.22,.75-.77,1.32-1.47,1.5-.17,.04-.34,.07-.51,.07Zm3.26-15.82l-13.01,3.48c-.22,.06-.32,.29-.35,.43-.08,.32-.02,.79,.31,1.1l9.38,9.03c.16,.15,.34,.23,.5,.18,.16-.04,.28-.19,.34-.41l3.63-12.5c.13-.44-.05-.87-.28-1.11-.1-.1-.29-.25-.52-.19h0Z"/>
          <path class="cls-8" d="M943.51,219.07c-.38,0-.77-.1-1.13-.31-.84-.48-1.39-1.41-1.38-2.38l.05-13.02c0-.79,.37-1.48,.99-1.85,.62-.37,1.4-.38,2.1,0l11.5,6.1c.85,.45,1.42,1.37,1.45,2.34,.02,.82-.35,1.53-1,1.92l-11.55,6.92h0c-.31,.19-.67,.28-1.03,.28Zm-.44-16.24c-.08,0-.15,.02-.21,.05-.14,.08-.22,.26-.22,.49l-.05,13.02c0,.45,.29,.82,.58,.99,.12,.07,.35,.16,.55,.05l11.55-6.92c.2-.12,.22-.37,.22-.51,0-.33-.2-.76-.6-.97l-11.5-6.1c-.11-.06-.22-.09-.32-.09Z"/>
          <rect class="cls-8" x="656.76" y="167.04" width="46.27" height="1.6"/>
          <rect class="cls-8" y="381.68" width="46.27" height="1.6"/>
          <rect class="cls-8" x="647.18" y="156.88" width="22.36" height="1.6"/>
          <rect class="cls-8" x="156.74" y="131.6" width="22.36" height="1.6"/>
          <rect class="cls-8" x="174.43" y="123.56" width="14.29" height="1.6"/>
          <rect class="cls-8" x="933.04" y="452.36" width="22.36" height="1.6"/>
          <rect class="cls-8" x="30.52" y="392.59" width="22.36" height="1.6"/>
          <path class="cls-8" d="M941.79,435.82c-.39,0-.73-.29-.79-.68l-1.85-12.2c-3.87,.1-7.79-.29-11.61-1.14l-4.17,11.64c-.14,.39-.56,.61-.95,.5-9.4-2.46-18.21-7.15-25.49-13.58-.31-.27-.36-.74-.11-1.07l7.33-9.95c-2.84-2.71-5.33-5.73-7.42-9l-11.16,5.27c-.37,.17-.82,.04-1.03-.32-2.47-4.21-4.43-8.69-5.84-13.31-1.41-4.62-2.28-9.44-2.58-14.31-.02-.41,.27-.78,.68-.84l12.21-1.85c-.09-3.89,.29-7.79,1.14-11.61l-11.64-4.17c-.39-.14-.61-.55-.5-.95,2.45-9.4,7.15-18.21,13.58-25.49,.28-.31,.74-.36,1.07-.11l9.95,7.33c2.71-2.84,5.73-5.33,9-7.43l-5.27-11.16c-.18-.37-.04-.82,.32-1.03,4.21-2.47,8.69-4.43,13.31-5.84,4.62-1.41,9.44-2.28,14.31-2.58,.46-.03,.78,.27,.84,.68l1.86,12.2c3.88-.1,7.78,.29,11.61,1.14l4.17-11.64c.14-.39,.55-.61,.95-.5,9.4,2.46,18.21,7.15,25.49,13.58,.31,.27,.36,.74,.11,1.07l-7.33,9.95c2.84,2.71,5.33,5.73,7.43,9l11.16-5.27c.37-.17,.82-.04,1.03,.32,2.47,4.22,4.43,8.7,5.84,13.31,1.41,4.62,2.28,9.44,2.58,14.31,.02,.41-.27,.78-.68,.84l-12.2,1.85c.09,3.88-.29,7.78-1.14,11.61l11.64,4.17c.39,.14,.61,.55,.5,.95-2.45,9.4-7.15,18.21-13.58,25.49-.27,.31-.74,.36-1.07,.11l-9.95-7.33c-2.7,2.83-5.73,5.33-9,7.43l5.27,11.16c.18,.37,.04,.82-.32,1.03-4.21,2.47-8.69,4.43-13.31,5.84-4.62,1.41-9.43,2.27-14.31,2.58-.02,0-.03,0-.05,0Zm-1.96-14.5c.39,0,.73,.29,.79,.68l1.85,12.18c4.5-.33,8.94-1.16,13.21-2.46,4.28-1.3,8.42-3.1,12.34-5.33l-5.26-11.14c-.17-.37-.04-.81,.3-1.02,3.59-2.22,6.87-4.93,9.76-8.05,.28-.3,.73-.34,1.06-.1l9.93,7.31c5.86-6.8,10.19-14.92,12.56-23.58l-11.61-4.16c-.38-.14-.6-.54-.51-.93,.98-4.15,1.39-8.39,1.23-12.6-.02-.41,.28-.76,.68-.82l12.18-1.85c-.33-4.5-1.16-8.94-2.46-13.22-1.3-4.27-3.09-8.42-5.33-12.34l-11.14,5.26c-.37,.17-.81,.05-1.02-.3-2.22-3.58-4.93-6.87-8.05-9.77-.3-.28-.34-.73-.1-1.06l7.31-9.93c-6.8-5.86-14.92-10.19-23.58-12.56l-4.16,11.61c-.14,.38-.55,.61-.93,.51-4.15-.97-8.38-1.39-12.6-1.23-.37,.02-.76-.28-.82-.68l-1.85-12.18c-4.5,.33-8.94,1.16-13.21,2.46-4.27,1.3-8.42,3.1-12.34,5.33l5.26,11.14c.17,.37,.04,.81-.3,1.02-3.58,2.22-6.87,4.93-9.77,8.05-.27,.3-.73,.34-1.06,.1l-9.93-7.31c-5.86,6.8-10.19,14.92-12.56,23.58l11.61,4.16c.38,.14,.6,.54,.51,.93-.98,4.14-1.39,8.38-1.23,12.6,.01,.41-.28,.76-.68,.82l-12.18,1.85c.33,4.5,1.16,8.94,2.46,13.22,1.3,4.27,3.1,8.42,5.33,12.34l11.14-5.26c.37-.17,.81-.05,1.02,.3,2.22,3.58,4.93,6.87,8.05,9.77,.3,.28,.34,.73,.1,1.06l-7.31,9.93c6.8,5.86,14.92,10.19,23.58,12.56l4.16-11.61c.14-.38,.55-.61,.93-.51,4.14,.98,8.39,1.39,12.6,1.23h.03Zm-1.82-17.11c-4.91,0-9.77-1.2-14.22-3.57-7.15-3.81-12.39-10.17-14.75-17.92-4.88-15.99,4.17-32.97,20.16-37.85,15.99-4.88,32.97,4.17,37.85,20.16,4.88,15.99-4.17,32.97-20.16,37.85-2.92,.89-5.91,1.33-8.88,1.33Zm.02-59.07c-2.77,0-5.58,.4-8.36,1.25-15.15,4.62-23.72,20.71-19.1,35.86,2.24,7.34,7.2,13.37,13.97,16.98,6.77,3.61,14.54,4.36,21.88,2.12h0c15.15-4.62,23.72-20.7,19.1-35.86-3.77-12.37-15.19-20.35-27.49-20.35Z"/>
          <g>
            <rect class="cls-37" x="187.35" y="13.85" width="51.71" height="51.71" rx="3.66" ry="3.66"/>
            <path class="cls-3" d="M202.78,26.2v27c0,2.28,2.59,3.6,4.43,2.25l18.47-13.5c1.52-1.11,1.52-3.39,0-4.5l-18.47-13.5c-1.84-1.35-4.43-.03-4.43,2.25Z"/>
          </g>
          <g>
            <path class="cls-37" d="M60.94,144.3h56.34c2.56,0,4.65,2.08,4.65,4.65v56.34c0,2.56-2.08,4.65-4.65,4.65H60.94c-2.56,0-4.65-2.08-4.65-4.65v-56.34c0-2.56,2.08-4.65,4.65-4.65Z"/>
            <g>
              <rect class="cls-3" x="63.32" y="163.18" width="35.9" height="27.88" rx="2.15" ry="2.15"/>
              <path class="cls-3" d="M113.46,188.4l-10.4-4.94v-12.68l10.4-4.94c.67-.32,1.45,.17,1.45,.92v20.73c0,.74-.78,1.24-1.45,.92Z"/>
            </g>
          </g>
          <g>
            <rect class="cls-37" x="880.41" y="110.38" width="55.22" height="55.22" rx="3.91" ry="3.91"/>
            <path class="cls-3" d="M903.84,152.81c-.79,0-1.54-.33-2.06-.91l-12.38-13.58c-1.04-1.14-.96-2.91,.18-3.95,1.14-1.04,2.91-.95,3.95,.18l10.26,11.25,18.67-21.68c1.01-1.17,2.77-1.3,3.94-.29,1.17,1.01,1.3,2.77,.29,3.94l-20.73,24.07c-.52,.61-1.28,.96-2.08,.97h-.04Z"/>
          </g>
          <path class="cls-8" d="M759.64,92.76c-1.53,0-2.97-.6-4.06-1.68l-25.51-25.51c-4.87,3.27-10.52,4.99-16.39,4.99-16.26,0-29.5-13.23-29.5-29.5s13.23-29.5,29.5-29.5,29.5,13.23,29.5,29.5c0,5.86-1.72,11.52-4.99,16.39l25.51,25.51c1.08,1.08,1.68,2.53,1.68,4.06s-.6,2.97-1.68,4.06c-1.09,1.08-2.53,1.68-4.06,1.68Zm-29.47-29.03c.21,0,.41,.08,.56,.23l25.98,25.98c1.57,1.56,4.29,1.57,5.86,0,.78-.78,1.21-1.82,1.21-2.93s-.43-2.15-1.21-2.93h0l-25.98-25.98c-.27-.27-.31-.71-.09-1.02,3.33-4.73,5.08-10.27,5.08-16.02,0-15.38-12.52-27.9-27.9-27.9s-27.9,12.52-27.9,27.9,12.52,27.9,27.9,27.9c5.76,0,11.3-1.76,16.02-5.08,.14-.1,.3-.15,.46-.15Zm-16.48-.36c-12.31,0-22.32-10.01-22.32-22.32s10.01-22.32,22.32-22.32,22.32,10.01,22.32,22.32-10.01,22.32-22.32,22.32Zm0-43.04c-11.43,0-20.72,9.29-20.72,20.72s9.29,20.72,20.72,20.72,20.72-9.29,20.72-20.72-9.29-20.72-20.72-20.72Z"/>
        </g>
        <g>
          <path class="cls-30" d="M688.05,599.37H258.4l83.29-359.07c2.41-10.41,10.8-17.68,20.39-17.68h231.78l3.97-17.78c2.35-10.51,10.77-17.88,20.44-17.88h137.79c13.58,0,23.52,14.37,20.13,29.11l-88.14,383.3Z"/>
          <polygon class="cls-20" points="688.05 599.37 258.4 599.37 321.06 249.19 750.72 249.19 688.05 599.37"/>
          <polygon class="cls-15" points="688.05 599.37 258.4 599.37 300.42 267.18 730.08 267.18 688.05 599.37"/>
          <polygon class="cls-24" points="688.05 599.37 258.4 599.37 272.47 292.12 702.13 292.12 688.05 599.37"/>
          <polygon class="cls-3" points="688.05 599.37 258.4 599.37 244.76 314.17 674.42 314.17 688.05 599.37"/>
          <g>
            <path class="cls-18" d="M457.86,126.32c0-48.39,39.23-87.63,87.63-87.63s87.63,39.23,87.63,87.63c0,19.29-6.24,37.12-16.8,51.6h0c-12.51,18.85-45.01,40.13-45.01,52.88v14.56c0,2.91-2.36,5.26-5.26,5.26h-41.11c-2.91,0-5.26-2.36-5.26-5.26v-14.56c0-12.75-32.5-34.03-45.01-52.88h0c-10.56-14.47-16.8-32.31-16.8-51.6Z"/>
            <path class="cls-3" d="M555.44,249.17c-.1-2.2-1.67-37.37,1.15-68.2-3.45,.41-7.15,.63-11.1,.63s-7.64-.22-11.1-.63c2.82,30.83,1.25,66,1.14,68.2l-1.55-.07c.02-.54,1.65-36.92-1.23-68.34-25.99-3.61-37.62-18.34-39.71-32.23-1.22-8.12,1.55-16.2,6.59-19.22,3.06-1.83,6.75-2.2,10.69-1.07,6.19,1.78,12.07,7.11,15.73,14.27,4.23,8.27,6.73,21.99,8.17,36.89,3.49,.43,7.23,.66,11.24,.66s7.76-.23,11.24-.66c1.44-14.9,3.94-28.62,8.17-36.89,3.66-7.16,9.55-12.49,15.73-14.27,3.93-1.13,7.63-.76,10.69,1.07,5.04,3.02,7.82,11.1,6.59,19.22-2.09,13.9-13.72,28.62-39.71,32.23-2.88,31.41-1.25,67.79-1.23,68.34l-1.55,.07Zm29.54-120.02c-1.25,0-2.56,.19-3.91,.58-5.79,1.66-11.31,6.7-14.78,13.48-4.07,7.95-6.5,21.34-7.92,35.97,24.9-3.59,36.04-17.62,38.03-30.88,1.11-7.41-1.41-15-5.86-17.66-1.66-.99-3.54-1.49-5.56-1.49Zm-78.97,0c-2.02,0-3.9,.5-5.56,1.49-4.45,2.66-6.97,10.26-5.86,17.66,1.99,13.25,13.14,27.29,38.03,30.88-1.42-14.63-3.85-28.02-7.92-35.97-3.47-6.78-9-11.82-14.78-13.48-1.34-.39-2.65-.58-3.91-.58Z"/>
            <path class="cls-10" d="M618.53,131.35c-2.78,0-5.03-2.25-5.03-5.03,0-31.18-21.08-58.29-51.26-65.93-2.69-.68-4.32-3.42-3.64-6.11,.68-2.69,3.42-4.32,6.11-3.64,34.65,8.77,58.85,39.89,58.85,75.68,0,2.78-2.25,5.03-5.03,5.03Z"/>
            <path class="cls-10" d="M543.8,53.15c0,2.78,2.25,5.03,5.03,5.03s5.03-2.25,5.03-5.03-2.25-5.03-5.03-5.03-5.03,2.25-5.03,5.03Z"/>
            <g class="cls-26">
              <path class="cls-6" d="M632.95,131.51c-4.84,35.93-33.84,73.13-87.46,73.13s-81.54-38.94-87.46-73.13c1.01,17.3,7.02,33.25,16.63,46.41h0c12.51,18.85,45.01,40.13,45.01,52.88v14.56c0,2.91,2.36,5.26,5.26,5.26h41.11c2.91,0,5.26-2.36,5.26-5.26v-14.56c0-12.75,32.5-34.03,45.01-52.88h0c9.61-13.17,15.62-29.12,16.63-46.41Z"/>
            </g>
            <path class="cls-17" d="M573.38,237.02h-55.77v26.58c0,4.34,1.24,8.59,3.56,12.26h0c4.4,6.93,12.03,11.12,20.24,11.12h8.18c8.21,0,15.84-4.2,20.24-11.12h0c2.33-3.66,3.56-7.92,3.56-12.26v-26.58Z"/>
            <path class="cls-12" d="M517.6,254.94c.16,0,.32,0,.48-.02l55.77-5.78c1.9-.2,3.23-1.91,2.97-3.82-.26-1.91-2.03-3.31-3.93-3.11l-55.78,5.78c-1.9,.2-3.23,1.91-2.97,3.82,.24,1.75,1.73,3.06,3.44,3.12Z"/>
            <path class="cls-12" d="M517.6,267.11c.16,0,.32,0,.48-.02l55.77-5.78c1.9-.2,3.23-1.91,2.97-3.82-.26-1.91-2.03-3.3-3.93-3.11l-55.78,5.78c-1.9,.2-3.23,1.91-2.97,3.82,.24,1.75,1.73,3.06,3.44,3.12Z"/>
            <path class="cls-12" d="M519.83,279.15c.16,0,.32,0,.48-.02l52.87-5.48c1.9-.2,3.23-1.91,2.97-3.82-.26-1.91-2.03-3.31-3.93-3.11l-52.87,5.48c-1.9,.2-3.23,1.91-2.97,3.82,.24,1.75,1.73,3.06,3.44,3.12Z"/>
            <g>
              <line class="cls-23" x1="545.49" y1="1.5" x2="545.49" y2="29.04"/>
              <g>
                <line class="cls-23" x1="595.15" y1="12.47" x2="584.03" y2="37.66"/>
                <line class="cls-23" x1="637" y1="42.93" x2="616.65" y2="61.49"/>
                <line class="cls-23" x1="495.83" y1="12.47" x2="506.95" y2="37.66"/>
                <line class="cls-23" x1="453.98" y1="42.93" x2="474.33" y2="61.49"/>
              </g>
            </g>
          </g>
          <path class="cls-16" d="M688.05,599.37H258.4l-36.64-295.18c-1.73-13.93,7.92-26.37,20.47-26.37h381.21c14.16,0,26.16,11.7,28.11,27.43l36.51,294.12Z"/>
        </g>
        <g>
          <path class="cls-5" d="M154.97,245.37s-5.99,39.67-2.24,56.3c7.87,34.93,60.15,68.26,60.15,68.26l21.4-12.3s-34.07-40.51-37.71-53.12c-3.85-13.36-6.64-57.33-6.64-57.33"/>
          <path class="cls-5" d="M230.22,354.03c5.25,4.97,16.3,13.36,15.92,14.79-.37,1.43-7.07-3.64-7.16-2.41-.09,1.23,10.15,7.7,10.04,9.23-.11,1.53-8.3-2.89-12.15-5.3,3.45,2.36,10.63,7.27,10.01,8.44-.62,1.17-3.87-.77-5.62-1.69-2.88-1.5-5.76-3-8.64-4.49,3.32,2.41,10.23,6.4,9.71,7.68-.52,1.27-8.76-3.12-12.93-6.17,2.42,2.15,7.72,6.35,6.56,6.79-2.19,.84-16.74-6.36-29.46-15.16"/>
        </g>
        <g>
          <g class="cls-25">
            <rect class="cls-39" x="230.97" y="167.54" width="190.4" height="191.62" transform="translate(-51.21 80.8) rotate(-13.1)"/>
            <g>
              <path class="cls-2" d="M394.64,180.31s-195.67,120.9-196.9,121.83l44.22,24.1,196.9-121.83-44.22-24.1Z"/>
              <path class="cls-38" d="M462.11,217.07s-195.67,120.9-196.9,121.83l13.99,7.62,196.9-121.83-13.99-7.62Z"/>
            </g>
          </g>
          <rect class="cls-30" x="235.85" y="322.57" width="24.7" height="95.45" transform="translate(262.64 -75.25) rotate(35.69)"/>
          <path class="cls-35" d="M375.14,193.59c-40.27-28.93-96.37-19.73-125.3,20.54-28.93,40.27-19.73,96.37,20.54,125.3,40.27,28.93,96.37,19.73,125.3-20.54,28.93-40.27,19.73-96.37-20.54-125.3Zm-97.3,135.46c-34.54-24.81-42.43-72.92-17.62-107.46,24.81-34.54,72.92-42.43,107.46-17.62,34.54,24.81,42.43,72.92,17.62,107.46-24.81,34.54-72.92,42.43-107.46,17.62Z"/>
          <path class="cls-35" d="M267.79,368.13l-23.53-16.9-67.17,93.65c-4.6,6.44-3.07,15.39,3.39,19.94h0c6.39,4.5,15.2,3.02,19.77-3.32l67.54-93.38Z"/>
        </g>
        <rect class="cls-34" x="42.82" y="572.52" width="3.45" height="74.23" transform="translate(-538.65 426.54) rotate(-68.39)"/>
        <path class="cls-35" d="M31.15,571.91l-6.68-.95s-5.53,7.16-8.65,12.44-5.15,10.96-5.15,10.96l69.01,27.34s2.06-6.35-10.8-23c-5.07-6.56-6.66-12.4-6.66-12.4l-31.08-14.39Z"/>
        <path class="cls-5" d="M33.65,551.53l-9.18,19.43s1.52,4.8,13.49,9.54c11.97,4.74,24.26,5.8,24.26,5.8l19.09-33.37"/>
        <rect class="cls-34" x="124.66" y="621.46" width="75.8" height="3.45"/>
        <path class="cls-35" d="M135.42,593.04l-6.56,1.57s-2.5,8.7-3.46,14.75c-.96,6.06-.75,12.09-.75,12.09h75.8s-1.99-6.67-20.08-17.41c-7.13-4.23-10.76-9.08-10.76-9.08l-34.19-1.93Z"/>
        <path class="cls-5" d="M130.24,573.17l-1.37,21.44s3.18,3.9,16.06,3.9,24.69-3.55,24.69-3.55l5.45-38.06"/>
        <path class="cls-31" d="M136.93,365.37s-9.47,97.09-19.3,124.25c-17.24,47.63-40.58,96.24-40.58,96.24l-51.2-21.01s36.22-96.91,37.3-103.73c1.06-6.7,2.69-56.16,2.69-56.16,0,0-3.45-37.46,7.01-62.24"/>
        <path class="cls-11" d="M70.03,583.01l-1.08-.51c.23-.49,23.53-49.81,40.56-96.87,9.69-26.78,19.17-123.13,19.27-124.1l1.19,.12c-.1,.97-9.59,97.47-19.34,124.4-17.05,47.12-40.37,96.48-40.6,96.97Z"/>
        <path class="cls-31" d="M173.89,358.83s12.92,84.14,12.92,125.73-5.51,100.24-5.51,100.24h-56.68s2.22-86.03,2.22-105.43-9-74.27-9-74.27c0,0-17.22-18.87-11.55-50.06"/>
        <path class="cls-11" d="M174.33,584.86l-1.19-.11c.05-.59,5.51-59.1,5.51-100.19s-12.78-124.8-12.91-125.64l1.19-.18c.13,.84,12.92,84.66,12.92,125.82s-5.46,99.72-5.52,100.3Z"/>
        <path class="cls-11" d="M159.54,398.22c-13.61-.43-25.41-3.26-25.53-3.29l.28-1.16c.12,.03,11.8,2.83,25.28,3.26l-.04,1.2Z"/>
        <path class="cls-11" d="M92.66,389.24c-11.73-1.34-21.62-4.94-21.72-4.98l.41-1.12c.1,.04,9.86,3.59,21.45,4.91l-.14,1.19Z"/>
        <rect class="cls-11" x="124.84" y="575.56" width="57.22" height="1.2"/>
        <path class="cls-11" d="M124.24,458.55l-5.54-40.99c-.34-2.5-1.18-4.81-2.49-6.86-2.36-3.66-5.47-9.64-6.92-17.31l1.18-.22c1.41,7.48,4.45,13.31,6.75,16.89,1.41,2.19,2.31,4.67,2.67,7.35l5.54,40.99-1.19,.16Z"/>
        <rect class="cls-11" x="54.5" y="538.56" width="1.2" height="56.12" transform="translate(-487.15 393.23) rotate(-66.71)"/>
        <path class="cls-40" d="M170.08,207.57l-10.3,3.76s-34.95,12.25-61.75,60.36c-27.05,48.56-32.19,96.36-32.19,96.36,39.86,27.81,113.41,20.59,113.41,20.59,0,0,19.83-88.19,16.95-118.89-3.67-39.03-15.98-52.22-15.98-52.22l-10.13-9.96Z"/>
        <path class="cls-5" d="M200.35,177.58c1.95,1.5,4.92,9.31,3.44,14.38s-4.08,21.02-12.53,22.12c-8.44,1.1-16.35-8.64-17.87-20.35-1.53-11.7,9.83-29.34,26.96-16.16Z"/>
        <path class="cls-5" d="M189.57,206.95l-7.51,13.06s-9.52,8.17-22.28-8.67l17.39-19.82"/>
        <path class="cls-28" d="M182.03,204.27c.35-.82,.65-1.76,.28-2.56-.3-.65-.97-1.04-1.47-1.56-1.55-1.6-1.32-4.18-.71-6.32,.48-1.67,1.2-3.4,2.62-4.4,1.42-1,3.71-.94,4.63,.55,.44,.72,.49,1.6,.59,2.44,.11,.96,.31,1.91,.58,2.84,.09,.31,.23,.65,.53,.75,.47,.16,.87-.36,1.08-.8,.59-1.21,1.12-2.46,1.57-3.73,.36-1.02,.68-2.07,1.25-3s1.44-1.72,2.5-1.93c1.13-.22,2.25,.24,3.34,.6,2.15,.7,4.42,1.01,6.67,.92,2.16-.09,3.87-.41,5.84-1.34,2.41-1.14,4.76-2.68,6.07-5,1.3-2.32,1.24-5.57-.73-7.37-2.07-1.88-5.22-1.56-8.01-1.72-2.82-.16-5.61-.93-8.11-2.25-3.69-1.94-6.73-5.03-10.6-6.58-4.8-1.93-10.59-1.12-14.68,2.04-1.51,1.16-3.38,1.7-4.75,2.82-1.7,1.39-2.85,4.09-3.65,6.06-2.38,5.84-5.46,12.09-5.3,18.63,.09,3.7,1.51,7.14,3.8,10.01,1.16,1.45,2.76,2.53,3.9,3.97,1.2,1.51,2.45,3.01,4.45,3.46,1.86,.42,3.84-.38,5.24-1.68,1.4-1.3,2.3-3.04,3.06-4.84Z"/>
        <path class="cls-5" d="M200.9,198s2.36,5.42,1.18,6.96c-1.18,1.54-4.7-.11-4.7-.11"/>
        <g>
          <path class="cls-5" d="M139.81,274.75s-5.69,39.72-1.82,56.32c8.14,34.87,60.67,67.8,60.67,67.8l21.3-12.46s-32.43-32.34-38.11-52.83c-3.71-13.4,2.41-55.74,2.41-55.74"/>
          <path class="cls-5" d="M215.88,382.83c5.29,4.93,16.4,13.23,16.04,14.67-.36,1.44-7.1-3.59-7.18-2.36-.08,1.23,10.21,7.62,10.11,9.15-.1,1.53-8.33-2.83-12.19-5.2,3.47,2.33,10.68,7.18,10.07,8.36-.61,1.18-3.87-.74-5.64-1.65-2.89-1.48-5.79-2.95-8.68-4.43,3.34,2.38,10.28,6.33,9.76,7.6-.52,1.28-8.78-3.05-12.98-6.08,2.44,2.13,7.77,6.29,6.61,6.74-2.19,.85-16.79-6.23-29.57-14.93"/>
        </g>
        <path class="cls-40" d="M183.54,229.15s3.36,9.4,3.94,24.39c.88,22.6-3.28,50.33-3.28,50.33l-50.05-7.09,10.22-50.06"/>
        <polygon class="cls-36" points="184.8 303.94 183.6 303.81 186.42 276.52 187.61 276.64 184.8 303.94"/>
        <path class="cls-36" d="M134.75,296.86l-1.19-.14c.29-2.4,7.29-58.88,20.94-71.77l.82,.87c-13.34,12.6-20.51,70.47-20.58,71.05Z"/>
        <path class="cls-13" d="M199.44,196.19c-.14,.63-.76,1.03-1.39,.9-.63-.14-1.03-.76-.9-1.39s.76-1.03,1.39-.9c.63,.14,1.03,.76,.9,1.39Z"/>
        <path class="cls-13" d="M197.82,191.33c-1.02,.04-1.8,.34-2.73,.76l.57,1c2.62-.92,4.51,.18,4.51,.18l.53-.8c-.4-.78-1.86-1.17-2.88-1.14Z"/>
        <path class="cls-3" d="M196.73,207.91l-6.7-3.38s-1.61,4.49,2.39,6.16c2.82,1.18,4.31-2.78,4.31-2.78Z"/>
        <g>
          <path class="cls-4" d="M706.63,259.08l-10.48-8s-7.07-.75-12.87-4.13c-7.75,.58-5.63-14.04-5.63-14.04,0,0,4.78-4.73,7.35-4.72,8.71,.05,18.04,5.4,18.04,5.4l19.5,10.07"/>
          <g>
            <polygon class="cls-33" points="683.07 233.62 680.84 237.67 663.39 224.34 666.21 220.73 683.07 233.62"/>
            <path class="cls-35" d="M653.58,229.92c-4.3,0-8.6-1.65-11.86-4.94-6.46-6.54-6.4-17.12,.14-23.58,6.54-6.46,17.12-6.4,23.58,.14h0c3.13,3.17,4.84,7.36,4.81,11.82-.02,4.45-1.78,8.63-4.95,11.76-3.24,3.21-7.48,4.81-11.72,4.81Zm0-29.78c-3.34,0-6.67,1.26-9.22,3.78-5.14,5.09-5.19,13.41-.11,18.55,5.09,5.14,13.41,5.19,18.55,.11,2.49-2.46,3.88-5.75,3.9-9.26,.02-3.5-1.33-6.81-3.79-9.3h0c-2.56-2.59-5.95-3.89-9.33-3.89Z"/>
            <path class="cls-35" d="M694.42,245.17h0c-.92,1.66-3.39,1.52-4.69,.53l-21.35-16.31,4-5.33,21.35,16.31c1.3,.99,1.61,3.14,.69,4.8Z"/>
          </g>
          <path class="cls-4" d="M697.91,238.67c-2.36,1.38-4.54,.95-6.56-.75-1.25-1.05-2.83-2.34-3.93-3.62-.24-.28-.5-.55-.82-.65-.47-.14-.98,.11-1.45,.33-2.9,1.34-7.81,3.02-8.96,1.11-1.16-1.91,5.63-6.35,8.81-6.89"/>
          <path class="cls-4" d="M682.25,236.41c-2.34-.83-6.17-1.01-6.17-1.01,0,0-2.45,3.55,.42,6.07-.41,2.58,.44,3.31,1.8,4.62,1.31,1.26,3.28,.58,4.98,.87,1.7,.28,3.72-.63,4.49-2.6,.75-1.9,.08-4.15-1.12-5.47-1.2-1.32-2.83-1.91-4.41-2.47Z"/>
        </g>
        <path class="cls-4" d="M922.21,348.39c2.1,7.85,5.56,34.27,7.18,34.66,1.62,.4,1.53-8.12,2.8-7.55,1.27,.57,2.35,14.62,3.92,15.33,1.57,.71,1.42-10.23,1.1-15.33,.48,4.68,1.49,17.12,2.98,17.14,1.49,.02,1.3-4.24,1.34-6.46,.06-3.65,.12-7.3,.19-10.95,.6,4.57,.85,13.55,2.39,13.71,1.54,.16,1.92-8.91,1.14-14.67,.83,3.55,1.83,9.62,2.89,8.71,2-1.72,.32-19.96-1.57-37.25"/>
        <g>
          <path class="cls-35" d="M833.07,610.31c-.9-5.69-3.25-13.86-3.25-13.86l-6.16-1.48-32.12,1.81s-3.49,4.42-10.11,8.53c-13.5,8.36-16.56,11.66-18.86,16.35-.37,.75-.78,3.24-.78,3.24h40.64c4.35,0,9.96-4.43,16.94-4.43l.57,4.43h13.83v-3.24s.2-5.66-.7-11.35Z"/>
          <g>
            <path class="cls-34" d="M812.71,621.68h-50.14c-.37,.76-.77,3.23-.77,3.23h40.64c2.87,0,6.28-1.92,10.28-3.23Z"/>
            <polygon class="cls-34" points="819.53 621.68 819.94 624.9 833.77 624.9 833.77 621.68 819.53 621.68"/>
          </g>
          <path class="cls-4" d="M832.63,571.65l-2.81,24.81s-2.99,3.67-15.08,3.67c-18.36,0-23.2-3.33-23.2-3.33l.12-35.75"/>
        </g>
        <g>
          <path class="cls-35" d="M945.83,586.88c-2.79-5.04-7.78-11.92-7.78-11.92l-6.29,.71-29.57,12.66s-1.77,5.35-6.59,11.46c-9.83,12.47-11.59,16.61-12.16,21.81-.09,.83,.37,3.31,.37,3.31,0,0,34.11-12.37,38.2-13.86,4.09-1.48,7.85-7.56,14.42-9.94l2.05,3.97,13-4.72-1.1-3.04s-1.74-5.39-4.53-10.43Z"/>
          <g>
            <path class="cls-34" d="M930.56,604.51l-47.13,17.1c-.09,.83,.37,3.3,.37,3.3,0,0,34.11-12.37,38.2-13.86,2.69-.98,5.25-3.95,8.56-6.54Z"/>
            <polygon class="cls-34" points="936.97 602.18 938.46 605.07 951.46 600.36 950.36 597.32 936.97 602.18"/>
          </g>
          <path class="cls-4" d="M932.23,550.68l5.82,24.28s-1.56,4.47-12.93,8.59c-17.26,6.26-22.94,4.78-22.94,4.78l-12.08-33.65"/>
        </g>
        <path class="cls-31" d="M791.72,343.66c-3.89,45.95-6.11,68.41-8.73,111.09-2.55,41.41-1.78,137.25-1.78,137.25h52.56s6.18-84.12,7.21-108.43c.3-6.96,5.44-59.62,8.11-62.35,2.86-17.84,10.6-43.27-3.75-71.65"/>
        <path class="cls-11" d="M827.27,592.05l-1.19-.09c.06-.84,6.19-84.39,7.21-108.41,.2-4.75,10.58-79.37,13.73-82.6l.86,.84c-2.42,2.69-13.05,73.97-13.39,81.81-1.03,24.04-7.15,107.61-7.22,108.45Z"/>
        <path class="cls-31" d="M837.83,350.76s7.63,89.46,15.12,126.76c10.07,50.21,39.81,106.62,39.81,106.62l47.15-15.23s-27.92-86.45-29.97-94.29c-4.58-17.53-4.5-110.98-14.48-133.63"/>
        <path class="cls-11" d="M933.87,570.86c-.28-.86-27.81-86.55-29.84-94.31-1.81-6.91-2.88-25.34-4.13-46.69-1.91-32.59-4.28-73.15-10.31-86.86l1.09-.48c6.12,13.9,8.5,54.58,10.41,87.27,1.24,21.28,2.32,39.66,4.1,46.45,2.02,7.73,29.54,93.38,29.82,94.25l-1.14,.36Z"/>
        <path class="cls-11" d="M845.77,433.66c-.07-.76-7.42-75.73-7.42-91.45h1.2c0,15.67,7.34,90.58,7.42,91.33l-1.19,.12Z"/>
        <path class="cls-21" d="M815.79,205.36c-11.46,1.18-21.78,1.18-30.84,7.9-11.24,8.34-29.96,32.08-33.84,31.47-13.42-2.12-48.97-12.92-48.97-12.92l-10.1,38.24s45.18,16.98,67.87,16.98c15.49,0,48.21-34.24,48.21-34.24"/>
        <path class="cls-7" d="M895.46,237.8s2.22,86.02-11.09,114.59c-21.61,6.27-73.29,3.79-83.57,.94-10.28-2.85-15.43-115.53-15.43-115.53l30.41-32.43s8.61-.95,12.54-.95c19.16-1.53,26.45-.48,26.45-.48l40.68,33.87Z"/>
        <g>
          <path class="cls-4" d="M822.06,190.87l-2.26,14.36s0,8.69,11.89,8.69c17.54,0,19.75-9.52,19.75-9.52l-5.74-27.04"/>
          <path class="cls-32" d="M813.84,173.67c-.15-.75-1.13-1.02-1.87-.81-1.05,.3-1.82,1.23-2.17,2.26-.35,1.03-.32,2.15-.2,3.22,.11,1,.32,2.03,.9,2.86,1.04,1.46,3.28,1.9,4.79,.94"/>
          <path class="cls-4" d="M812.77,160.86s-2.88,24.6,1.22,28.99c6.15,6.57,18.4,5.41,23.06,1.33,3.91-3.43,5.32-19.04,4.76-22.97-1.5-10.65-24.23-13.74-29.05-7.35Z"/>
          <path class="cls-35" d="M846.92,154.96c-2.51-3.21-6.25-5.2-9.98-6.83-4.43-1.93-9.2-3.51-14-3.03-3.06,.31-5.97,1.43-8.74,2.76-.97,.46-1.91,1.05-2.62,1.87-.63,.72-.98,2.23-2.1,2.32-2.31,.18-1.39,2.71-1.09,4.13,.3,1.42,.9,2.79,2.03,3.75,1.03,.87,2.36,1.3,3.68,1.54,3.04,.56,6.16,.28,9.25,.16,4.59-.18,9.19,.01,13.75,.56-.33,4.89,.14,9.84,1.4,14.57,1.07-.66,2.59-1.29,3.47-.38,.26,.27,.41,.63,.55,.98,.66,1.65,1.42,3.26,2.28,4.82,.49,.89,1.25,1.89,2.27,1.77,2.73-.34,2.57-4.44,2.85-6.42,.45-3.18,.76-6.39,.77-9.61,.01-4.59-.94-9.35-3.77-12.96Z"/>
          <path class="cls-32" d="M823.03,195.43c-.56,0-.91-.02-.97-.02l.09-1.59c.08,0,8.18,.4,13.08-3.2,3.78-2.77,4.6-8.16,4.61-8.22l1.58,.23c-.04,.25-.92,6.11-5.24,9.28-4.36,3.2-10.72,3.52-13.14,3.52Z"/>
          <path class="cls-4" d="M836.77,175.15c.39-.95,1.96-2.33,2.92-2.36,.96-.03,1.91,.42,2.68,1.07,3.61,3.07,1.16,10.23-3.72,10.17-1.79-.02-1.64-2.41-1.64-2.41"/>
          <path class="cls-32" d="M821.25,181.74c-1.01-.05-4.32-.38-4.56-2.23-.19-1.46,1.98-6.26,2.65-7.7l1.45,.67c-1.28,2.75-2.59,6.14-2.51,6.81,.12,.31,1.52,.76,3.07,.85l-.09,1.59Z"/>
          <path class="cls-19" d="M826.61,173.26c-.05,.62,.29,1.16,.77,1.2,.47,.04,.89-.44,.94-1.06,.05-.62-.29-1.16-.76-1.2-.47-.04-.89,.44-.94,1.06Z"/>
          <path class="cls-19" d="M813.36,172.12c-.05,.62,.29,1.16,.77,1.2,.47,.04,.89-.44,.94-1.06,.05-.62-.29-1.16-.77-1.2-.47-.04-.89,.44-.94,1.06Z"/>
          <path class="cls-3" d="M826.33,185.1l-8.05,.17s.68,5.57,4.33,5.6c4.48,.03,3.72-5.77,3.72-5.77Z"/>
          <path class="cls-19" d="M831.63,168.14c-.17-.29-.34-.57-.52-.85-.07-.1-.14-.21-.25-.28-.13-.08-.28-.08-.43-.08-1.18,0-2.37,.15-3.52,.42-.52,.12-1.15,.23-1.63,.48-.64,.32-.54,.32-.19,.96,.03,.06,.07,.13,.13,.17,.1,.06,.24,.03,.35,0,1.89-.55,3.88-.72,5.84-.49,.1,.01,.23,.01,.28-.08,.04-.08,0-.17-.05-.26Z"/>
          <path class="cls-19" d="M812.35,167.65c.15-.28,.31-.55,.47-.82,.06-.1,.13-.2,.22-.26,.11-.07,.23-.06,.35-.06,.95,.07,1.89,.27,2.8,.59,.41,.15,.91,.29,1.28,.55,.49,.35,.41,.34,.1,.97-.03,.06-.06,.13-.12,.16-.09,.06-.19,.02-.28-.02-1.48-.64-3.08-.91-4.66-.77-.08,0-.18,0-.22-.09-.03-.08,.01-.17,.06-.25Z"/>
        </g>
        <path class="cls-21" d="M854.78,203.93s-8.35,29.4-2.6,93.98c3.34,37.49,10.6,74.54,10.6,74.54,0,0,29.64-3.21,42.58-8.06,0-5.5-6.63-33.28-6.63-52.51s-2.58-89.51-2.58-89.51c0,0-18.74-15.97-41.36-18.43Z"/>
        <path class="cls-36" d="M853.97,299.58l-1.16-.28c3.29-13.75,5.7-33.69,5.7-37.89,0-2.41-1.56-3.42-2.94-4.31-.95-.61-1.84-1.19-1.84-2.17,0-1.54,2.52-2.2,4.96-2.85,.88-.23,2.08-.55,2.31-.75,1.91-1.86,5.25-27.62,6.9-43.41l1.19,.12c-.44,4.22-4.4,41.37-7.26,44.15-.4,.39-1.3,.64-2.83,1.05-1.11,.29-4.07,1.07-4.07,1.69,0,.33,.63,.74,1.29,1.17,1.39,.9,3.48,2.25,3.48,5.31,0,4.75-2.48,24.58-5.73,38.17Z"/>
        <path class="cls-21" d="M815.79,205.36s-3.41,160.59-5.68,165.98c-10.01,2.11-28.51-3.42-28.51-3.42,0,0,4.78-48.96,3.77-64.91-1.57-24.94-2.89-53.93-2.89-53.93l.91-32.05s12.09-7.61,32.39-11.68Z"/>
        <path class="cls-36" d="M812.23,300.49c-2.71-14.91-5.27-34.6-5.07-39.01,.14-3.06,2.29-4.32,3.72-5.15,.68-.4,1.33-.77,1.34-1.11,.02-.55-2.58-1.34-3.7-1.68-1.84-.56-2.82-.88-3.16-1.48-4.49-7.84-1.75-44.04-1.63-45.58l1.19,.09c-.03,.37-2.83,37.37,1.48,44.89,.21,.24,1.57,.65,2.47,.93,2.37,.72,4.61,1.4,4.54,2.88-.04,.98-.96,1.52-1.94,2.09-1.41,.83-3.02,1.76-3.12,4.17-.19,4.34,2.36,23.89,5.05,38.74l-1.18,.22Z"/>
        <rect class="cls-36" x="782.61" y="237.13" width="1.2" height="37.8" transform="translate(-5.65 17.97) rotate(-1.31)"/>
        <path class="cls-21" d="M862.78,205.36s27.53,6.05,42.33,18.5c18.55,15.61,41.03,57.29,42.82,66.44,6.79,34.65,6.79,78.88,6.79,78.88l-36.16-1.63s-6.03-50.95-13.21-68.11c-2.52-6.03-27.72-44.26-27.72-44.26"/>
        <rect class="cls-36" x="887.42" y="255.88" width="1.2" height="30.73" transform="translate(4.04 555.4) rotate(-34.81)"/>
        <path class="cls-4" d="M622.63,515.01c.18,7.8-2.6,33.24-1.18,33.98,1.42,.74,3.27-7.23,4.32-6.41,1.05,.82-1.13,14.17,.17,15.19,1.3,1.02,3.65-9.23,4.51-14.05-.61,4.48-2.5,16.31-1.11,16.67,1.39,.35,2.18-3.66,2.72-5.73,.89-3.39,1.78-6.79,2.66-10.18-.48,4.4-2.28,12.83-.88,13.34,1.4,.5,3.82-7.88,4.39-13.43-.03,3.5-.48,9.39,.71,8.78,2.26-1.15,4.84-18.55,7-35.11"/>
        <path class="cls-27" d="M563.79,418.33s-.01-11.04,11.58-10.69c13.13,.39,55.78,28.08,65.78,53.49,10.01,25.4,4.23,69.67,4.23,69.67l-32.33-3.08s-4.92-53.86-7.64-56.58c-2.72-2.72-33.05-23.09-33.05-23.09"/>
        <g>
          <path class="cls-34" d="M657.54,629.48s2.25-.03,2.75,0c3.53,.16,9.27-6.25,9.31-9.8,.08-6.31-5.26-48.16-5.26-48.16l-3.24-.62-3.4,50.5-1.16,6.64,.98,1.44Z"/>
          <g>
            <path class="cls-35" d="M639.67,580.25l.69-5.29s6.63-2.7,11.31-3.97c4.68-1.26,9.44-.11,9.44-.11,0,0,5.47,42.47,5.39,48.78-.05,4.05-7.51,11.83-10.65,9.32-2.56-2.04,.75-8.34-3.73-14.32-3.93-5.25-8.04-7.7-8.04-7.7l-4.4-26.72Z"/>
            <path class="cls-4" d="M623.62,577.85l16.74-2.89s3.34,2.17,4.42,12.3c1.08,10.12-.71,19.71-.71,19.71l-29.46,7.5"/>
          </g>
        </g>
        <path class="cls-36" d="M571.36,533.96s-55.9-57.73-86.23-46.31c-20.28,7.64-20.86,29.34-11.29,46.12,11.29,19.79,32.15,63.9,32.15,63.9,0,0,38.76-5.81,38.76-7.37s-5.45-16.55-5.45-16.55c0,0,59.3,11.81,72.17-11.07,9.84-17.49-11.39-49.62-11.39-49.62"/>
        <path class="cls-36" d="M558.49,519.14l-15.85,20.59s-69.54,42.54-61.8,70.8c2.67,9.75,7.55,18.03,31.6,18.96,47.41,1.83,121.46-8.7,121.46-8.7l-5.74-44.76-31.31,4.56s31-11,37.05-29.9c6.1-19.03-9.33-37.92-9.33-37.92"/>
        <path class="cls-11" d="M496.41,577.64l-.85-.85c.28-.28,28.33-28.14,50.47-39.62l.55,1.06c-21.98,11.39-49.9,39.13-50.18,39.41Z"/>
        <rect class="cls-11" x="550.05" y="589.99" width="48.93" height="1.2" transform="translate(-191.39 286.87) rotate(-24.16)"/>
        <rect class="cls-11" x="502.59" y="510.48" width="1.2" height="51.54" transform="translate(-229.2 470.15) rotate(-41.66)"/>
        <g>
          <polygon class="cls-1" points="439.21 391.69 435.12 392.95 432.09 372.87 436.27 372.29 439.21 391.69"/>
          <path class="cls-35" d="M421.98,370.29c-2.86-2.76-4.66-6.62-4.71-10.9-.1-8.5,6.74-15.49,15.23-15.59,8.5-.1,15.49,6.74,15.59,15.23h0c.05,4.12-1.51,8.01-4.39,10.95-2.88,2.95-6.73,4.59-10.85,4.64-4.22,.05-8.06-1.61-10.88-4.33Zm19.13-19.8c-2.22-2.14-5.24-3.45-8.56-3.41-6.69,.08-12.07,5.58-11.99,12.27,.08,6.69,5.58,12.07,12.27,11.99,3.24-.04,6.27-1.33,8.54-3.65,2.26-2.32,3.49-5.38,3.45-8.62h0c-.04-3.37-1.46-6.41-3.71-8.58Z"/>
          <path class="cls-35" d="M439.34,406.65h0c-1.68,.52-3.23-1.17-3.46-2.66l-3.72-24.56,6.08-.98,3.72,24.56c.23,1.49-.95,3.12-2.63,3.64Z"/>
        </g>
        <path class="cls-4" d="M458.06,419.58l-9.29-15.1s-2.11-12.46-4.73-15.07c-2.95-2.95-4.52-2.52-4.52-2.52l.22,1.53c.25,1.69-1.02,3.23-2.73,3.32h-.22c-1.56,.09-2.93-1.03-3.17-2.58l-.51-3.36c-.13,.05-3.29-2.7-3.49,2.21-1.37-1.27-4.02-.58-3.45,3.27-1.25-.46-2.74,1.03-2.63,4.07-2.05,.07-2.27,3.04-1.53,4.75,1.39,3.25,18.79,31.3,18.79,31.3"/>
        <path class="cls-27" d="M554.82,405.11l-11.16,6.47s-17.21,2.22-29.84,9.85c-12.26,7.42-30.59,20.84-30.59,20.84l-27.71-34.64-27.71,19.25s32.46,54.29,54.85,55.3c16.98,.77,59.95-22.07,59.95-22.07"/>
        <path class="cls-27" d="M516.18,445.63s-3.33,22.71,3.03,35.51c4.61,9.3,8.01,8.61,11.21,15.01,7.06,14.11,8.71,43.3,8.71,43.3,0,0,12.51,7.86,48.43,.92,33.66-6.5,42.49-18.62,42.49-18.62,0,0-20.97-88.73-56.66-116.65l-25.9,2.92-31.32,37.6Z"/>
        <path class="cls-4" d="M546.35,358.68c-1.47,.81-17.79,24.56-13.51,32.78,2.91,5.6,12.36,8.08,23.9,3.08,11.55-5,19.95-27.13,15.4-31.68-4.56-4.56-16.55-9.24-25.79-4.17Z"/>
        <path class="cls-4" d="M543.66,390.69v20.89s7.01,2.47,19.25,0c8.58-1.73,12.15-5.12,12.15-5.12l-12.15-27.31"/>
        <path class="cls-22" d="M629.47,521.86c-.14-.74-14.45-74.6-54.84-114.99l.85-.85c40.65,40.65,55.03,114.87,55.17,115.61l-1.18,.22Z"/>
        <polygon class="cls-22" points="516.77 472.77 516.27 471.69 538.77 461.34 539.27 462.43 516.77 472.77"/>
        <path class="cls-35" d="M604.57,410.28c-2.36-3.58-6.1-6.02-8.51-9.5-2.91-4.2-.91-10.04-2.27-14.96-.64-2.33-2.07-4.44-4-5.91-1.37-1.04-2.97-1.76-4.2-2.96-1.74-1.7-2.49-4.14-3.23-6.46-.98-3.08-2.07-6.17-3.77-8.92-1.7-2.75-4.08-5.18-7.06-6.43-3.51-1.46-7.39-1.16-11.1-1.15-1.71,0-3.31,.02-4.92-.5-1.38-.45-2.68-.91-4.13-1.11-2.92-.41-6.51-.55-9.39,.9-2.98,1.49-5.22,3.3-6.38,4.72,2.6,3.4,14.56,8.13,18.19,8.13-2.84,2.67-5.09,5.96-6.53,9.58-.12,.31-.22,.72,.04,.94,.36,.31,.85-.15,1.19-.49,2.53-2.55,3.87,2.34,3.43,4.12-.59,2.37-2.72,4.37-5.17,4.66-.46,.05-.93,.06-1.35,.24-.39,.16-.71,.45-.96,.79-1.33,1.75-.78,4.3,.34,6.19,1.37,2.3,3.44,4.17,4.1,6.85,.51,2.06,.61,4.62,.61,6.76,0,6.02-2.63,11.65-1.45,17.75,1.98,10.24,13.08,16.07,23.38,17.69,9.46,1.49,19.84,.45,27.4-5.43,7.56-5.88,11.03-17.49,5.75-25.49Z"/>
        <path class="cls-4" d="M540.06,371.34s-8.82,3.83-8.03,5.4c1.51,3.01,3.56,3.97,3.56,3.97"/>
        <path class="cls-35" d="M543.68,371.13c-.43,.73-1.24,1.06-1.81,.72s-.69-1.2-.27-1.93c.43-.73,1.24-1.06,1.81-.72,.57,.33,.69,1.2,.27,1.93Z"/>
        <path class="cls-35" d="M546.99,369.69c-.29,0-.54-.21-.59-.5-.26-1.51-1.64-2.88-3.23-3.19-.32-.06-.54-.38-.47-.7,.06-.32,.36-.54,.7-.47,2.08,.4,3.84,2.15,4.18,4.17,.05,.33-.17,.63-.49,.69-.03,0-.07,0-.1,0Z"/>
        <path class="cls-3" d="M534.12,383.24l7.95,1.23s-3.93,5.47-7.33,3.55c-1.77-1-.62-4.78-.62-4.78Z"/>
      </g>
    </g>
  </g>
</svg>